<?xml version="1.0" encoding="utf-8"?>
<!-- Generator: Adobe Illustrator 24.1.0, SVG Export Plug-In . SVG Version: 6.00 Build 0)  -->
<svg version="1.1" id="b5708c2f-4f88-4c73-bc81-55ebbc869fb7"
	 xmlns="http://www.w3.org/2000/svg" xmlns:xlink="http://www.w3.org/1999/xlink" x="0px" y="0px" viewBox="0 0 704 741.6"
	 style="enable-background:new 0 0 704 741.6;" xml:space="preserve">
<style type="text/css">
	.st0{opacity:0.17;fill:#6C63FF;enable-background:new    ;}
	.st1{fill:#3F3D56;}
	.st2{fill:#FFFFFF;}
	.st3{fill:#6C63FF;}
	.st4{fill:#E6E6E6;}
	.st5{fill:#EAEAEA;}
	.st6{fill:#FFB9B9;}
	.st7{fill:#2F2E41;}
	.st8{fill:#A0616A;}
	.st9{fill:#EFEFEF;}
	.st10{fill:#FFB8B8;}
</style>
<g>
	<ellipse class="st0" cx="352" cy="725.3" rx="317.9" ry="16.3"/>
	<path class="st1" d="M420.6,228H417v-98.9c0-31.6-25.6-57.3-57.3-57.3l0,0H150.2c-31.6,0-57.3,25.6-57.3,57.3l0,0v542.7
		c0,31.6,25.6,57.3,57.3,57.3l0,0h209.6c31.6,0,57.3-25.6,57.3-57.3l0,0V298.5h3.6V228z"/>
	<path class="st2" d="M362.1,86.8h-27.4c4.2,10.4-0.7,22.2-11.1,26.5c-2.4,1-5.1,1.5-7.7,1.5H195.9c-11.2,0-20.3-9.1-20.3-20.3
		c0-2.6,0.5-5.2,1.5-7.7h-25.6c-23.6,0-42.7,19.1-42.7,42.7l0,0v541.9c0,23.6,19.1,42.7,42.7,42.7l0,0h210.6
		c23.6,0,42.7-19.1,42.7-42.7l0,0V129.5C404.8,105.9,385.7,86.8,362.1,86.8z"/>
	<rect x="211.4" y="232.4" class="st3" width="74.7" height="7"/>
	<rect x="211.4" y="256.4" class="st4" width="130.1" height="7"/>
	<rect x="211.4" y="377.9" class="st3" width="74.7" height="7"/>
	<rect x="211.4" y="402" class="st4" width="130.1" height="7"/>
	<rect x="211.4" y="523.5" class="st3" width="74.7" height="7"/>
	<rect x="211.4" y="547.5" class="st4" width="130.1" height="7"/>
	<g>
		<rect x="115.7" y="377.9" class="st5" width="89.2" height="78.7"/>
		<circle class="st6" cx="156" cy="397.2" r="8.9"/>
		<path class="st6" d="M152.6,403.9c0,0,1.1,5.2,1.1,5.8c0,0.5,5.2,3.1,5.2,3.1l4.7-0.8l1.6-5c0,0-2.8-4.2-2.8-5.8L152.6,403.9z"/>
		<path class="st3" d="M176.5,456.6l1.2-2.1l0.2-0.4l-2.3-23.6l0.1-1.1l2.3-19.1l-13.6-4.8l0,0c-0.1,2.4-1.7,4.6-4.1,5.3
			c-4.2,1.4-7-3.3-7-3.3l-11.6,8.9l5.6,16.3l2.7,7.9c0,0,0.3,9.1,0.5,10c0.3,0.8-0.3,1.1-0.5,1.4c-0.3,0.3,0.3,1.1,0.5,1.1
			c0.2,0,0.5,1.1,0.6,2.1c0.1,0.5,0.3,1.1,0.4,1.4H176.5z"/>
		<path class="st6" d="M198.2,455.1c0,0,7.5,4.7,6.7,7.8c-0.8,3.1-9.4-5.2-9.4-5.5C195.4,457,198.2,455.1,198.2,455.1z"/>
		<path class="st7" d="M148.4,390c0,0,2.8-6.1,8.2-4.7c5.4,1.4,8.5,3.5,8.7,5.6c0.3,2.1-0.1,5.2-0.1,5.2s-0.5-4.3-4.3-3.4
			c-3.8,0.9-9.7,0.3-9.7,0.3l-0.9,8.5c0,0-1.1-1.5-2.3-0.5C146.8,401.9,144.6,391.9,148.4,390z"/>
		<path class="st3" d="M148,456.6h-7.6l-0.5-1.1c-3.3-5.8-3.3-13.9-3.3-13.9l1.9-16.3c-0.3-5.8,3.3-8.9,3.3-8.9h4.2l3.1,10.3
			l-1.6,6.1l-2,7.6l-0.5,0.8c0,0,0.5,0.8,0.3,1.1c-0.3,0.3-0.5,1.4-0.5,1.4s0.8,5.5,1.6,6.1c0.8,0.5-0.3,0.5-0.3,0.8
			c0,0.3,0.8,1.4,0.8,1.4v1.4L148,456.6z"/>
		<path class="st3" d="M173.4,409.5l4.7,0.8c0,0,2.8,2.8,3.9,6.1l2.3,10l3.6,7.2c0,0,4.2,4.2,7.2,13.5l4.4,8.3l-4.7,2.8
			c0,0-13-15.3-14.7-20.5l-7.2-13.8L173.4,409.5z"/>
	</g>
	<g>
		<rect x="114.7" y="230" class="st5" width="90.3" height="79.5"/>
		<path class="st7" d="M167.2,247.3c-3.4-5.8-10.3-6.1-10.3-6.1s-6.7-0.8-10.9,8c-4,8.3-9.5,16.3-0.9,18.2l1.5-4.8l1,5.1
			c1.3,0.1,2.4,0.1,3.7,0.1c9.2-0.3,17.9,0.1,17.6-3.3C168.7,260.2,170.6,252.9,167.2,247.3z"/>
		<circle class="st8" cx="157.7" cy="254.8" r="8.9"/>
		<path class="st8" d="M154,260.7c0,0,4.1,9.4-1.4,11.3l5.4,17.8l9.2-0.5l2.4-6l-0.5-8.9l-0.8-6c0,0-5.7,1.4-5.1-8.7L154,260.7z"/>
		<path class="st8" d="M151.9,271.7c0,0-8.9-0.8-8.1,5.7c0.8,6.5,1.6,7.9,1.6,7.9l0.8,9.7l-4.9,3h-4.6c0,0-14,3.3-7,6.8
			c7,3.5,9.4-2.7,9.4-2.7s12.9,0,13.7-2.2C153.8,297.7,151.9,271.7,151.9,271.7z"/>
		<path class="st8" d="M169.1,269c0,0,8.4-3,8.9,3.5s0.5,7,0.5,7l1.6,9.2c0,0,3.3,8.1,3.3,10.5c0,2.4,2.4,9.9,2.4,9.9
			s3.3,10.5-0.3,10.2c-3.5-0.3-4.1-11.3-4.1-11.3l-7.3-14.5l-2.2-8.9L169.1,269z"/>
		<path class="st3" d="M153.2,270.6h-2.2l-0.3,11.3c0,0-3.5,4.9,0.8,9.2l1.1,7l19.7-0.8l1.4-7.3c0,0,2.7-6-1.1-11.3l-3.5-11h-1.9
			c0,0,4.3,16.1-4.9,16.4C154.9,284.4,153.2,270.6,153.2,270.6z"/>
		<path class="st7" d="M177.9,309.5h-28.3c1.5-4.3,2.4-7,2.5-7.3l0,0l0.6-2.2l0.3-0.9l0.3-1l0.4-1.4l17.5-0.5l0.5,1.1l1.6,3.8
			c0.2,0,0.3,0.1,0.5,0.2C175.1,302.2,176.4,305.1,177.9,309.5z"/>
		<path class="st1" d="M173.2,294.1l-21.3,0.8c0,0-1,7.3,0,7.3c0.3,0,22.4,1.9,22.1-1.4C173.7,297.7,173.2,294.1,173.2,294.1z"/>
		<circle class="st7" cx="157.8" cy="241.1" r="5"/>
		<path class="st7" d="M152.4,239.9c0-2.5,1.9-4.6,4.4-4.9c-0.2,0-0.4,0-0.5,0c-2.7,0-5,2.2-5,5s2.2,5,5,5c0.2,0,0.4,0,0.5,0
			C154.3,244.5,152.4,242.4,152.4,239.9z"/>
		<polygon class="st7" points="165.8,246.6 159,243.1 149.7,244.6 147.8,253 152.6,252.9 153.9,249.8 153.9,252.9 156.1,252.8 
			157.4,247.8 158.2,253 166.1,252.9 		"/>
	</g>
	<g>
		<rect x="116" y="523.6" class="st9" width="89" height="78.3"/>
		<g>
			<path class="st10" d="M168.9,569l-2.8,12.6l6.5,17.9c0,0-1.8,10.7,4.3,11.1c6.1,0.3,0-11.4,0-11.4s-4.3-21.2-4.3-21.5
				c0-0.3,0.6-8.6,0.6-8.6h-4.3V569z"/>
			<path class="st10" d="M160.3,539.5c0,1.3-3.7,6.5-3.7,6.5l5.9,7.4c0,0,5.2-2.8,5.2-3.7s1.3-7,1.3-7L160.3,539.5z"/>
			<path class="st1" d="M157.7,544.1l-9.8,1.2l-3.1,1.3c-1.5,0.6,0.6,13.2,0.6,13.2l-1.5,28.3c0,0-2.2,3.3-1.5,5.2
				c0.6,1.8-1.8,7.4-1.8,7.4s9.6,4.3,17.5,1.3c8-3.1,13.5-1.3,13.5-1.3s-1.5-9.8-2.2-11.6c-0.6-1.8,0-0.9,0.6-2.2
				c0.6-1.3-1.3-9.2-1.3-10.5c0-1.3-0.6-0.9,0-1.3c0.6-0.3,0.6-4.6,0.6-4.6l6.8-12c0-1.5-8.5-9.9-8.5-9.9c-0.8,1.2-3.5,1.9-3.5,1.9
				C160.3,550.2,157.7,544.1,157.7,544.1z"/>
			<path class="st1" d="M168,569.9l6.1,0.6c0,0,0.6-3.1,2.2-5.2s0-6.8,0-6.8l-3.1-2.2L168,569.9z"/>
			<circle class="st10" cx="166.1" cy="536.7" r="8"/>
			<path class="st7" d="M174.7,536.6L174,538c0,0-1.6-2-1.8-3.4c-0.1-1.5-3.4-3.3-3.4-3.3l1.2,1.5l-2.9-0.5l0.7,1.3l-4.7-1.5
				l-0.4,1.5l-0.7-1c0,0.8-1.4,2.1-1.4,2.1v-1.4c0,0.5-2.6,4.5-2.6,4.5l0.1-1.1c-0.4-1.2-0.5-2.3-0.2-3.5l-2.3,0.3l2.2-1.4l-0.6-1.4
				h1.4c1-2,2.5-3.8,3.8-5.3c2.5-2.9,5.3-1.8,5.3-1.8l-1.2,1.3c4.1-0.3,7,2.9,7,2.9l-1.4,0.5C175.8,530.3,174.7,536.6,174.7,536.6z"
				/>
			<path class="st10" d="M140.6,559.7c0,0,1.3,14.2,3.1,17.5s25.2,6.8,25.2,6.8s8.9,6.5,11.4,2.2c2.4-4.3-7.4-5.3-7.4-5.3L151,570.5
				l0,0c0.5-0.6,0.7-1.4,0.8-2.3c0.4-4.5-1.4-9.1-1.4-9.1L140.6,559.7z"/>
			<path class="st1" d="M151.6,560.4c0,0.3-11.1,0.6-12,0.6c-0.9,0,0-1.5,0.9-7.7c0.9-6.1,4.3-6.8,4.3-6.8h4.6
				C149.4,546.5,151.6,560.1,151.6,560.4z"/>
		</g>
	</g>
	<g>
		<path class="st3" d="M224.2,299.5c-6.1,0-11.1-5-11.1-11.1s5-11.1,11.1-11.1c6.1,0,11.1,5,11.1,11.1l0,0
			C235.3,294.4,230.4,299.5,224.2,299.5z M224.2,278.1c-5.6,0-10.1,4.5-10.1,10.1c0,5.6,4.5,10.1,10.1,10.1
			c5.6,0,10.1-4.5,10.1-10.1C234.3,282.7,229.8,278.1,224.2,278.1z"/>
		<circle class="st3" cx="228.7" cy="284.7" r="2.5"/>
		<circle class="st3" cx="220.2" cy="284.7" r="2.5"/>
		<path class="st3" d="M221.1,290.3c-1,7.1,7.1,8.6,6.3,0C227.5,290.3,221.3,290.3,221.1,290.3z"/>
	</g>
	<g>
		<path class="st3" d="M259.5,283.7c-0.5-0.5-1.5-0.5-2.1,0c-0.5,0.5-0.5,1.5,0,2.1l0,0l2.1,2.1l2.1-2.1c0.5-0.5,0.5-1.5,0-2.1
			C261.1,283.1,260.2,283.1,259.5,283.7L259.5,283.7z"/>
		<path class="st3" d="M250.9,283.7c-0.5-0.5-1.5-0.5-2.1,0c-0.5,0.5-0.5,1.5,0,2.1l0,0l2.1,2.1l2.1-2.1c0.5-0.5,0.5-1.5,0-2.1
			C252.5,283.1,251.5,283.1,250.9,283.7L250.9,283.7z"/>
		<path class="st3" d="M255.5,299.4c-6.1,0-11.1-5-11.1-11.1c0-6.1,5-11.1,11.1-11.1c6.1,0,11.1,5,11.1,11.1l0,0
			C266.6,294.4,261.6,299.4,255.5,299.4z M255.5,278.1c-5.6,0-10.1,4.5-10.1,10.1c0,5.6,4.5,10.1,10.1,10.1
			c5.6,0,10.1-4.5,10.1-10.1C265.6,282.7,261.1,278.1,255.5,278.1z"/>
		<path class="st3" d="M251.6,291.7c2.3,3.1,6.3,3.4,8.5,0H251.6z"/>
	</g>
	<path class="st3" d="M315.5,299.3l-9.2-9.2c-2.6-2.6-2.6-7,0-9.6c2.5-2.5,6.5-2.6,9.2-0.4c2.8-2.4,7.1-2.2,9.6,0.7
		c2.3,2.7,2.2,6.7-0.4,9.2L315.5,299.3z M311.1,279.6c-3.2,0-5.7,2.5-5.7,5.7c0,1.5,0.6,3,1.7,4.1l8.5,8.5l8.5-8.5
		c2.3-2.3,2.3-5.9,0-8.1c-2.3-2.3-5.9-2.3-8.1,0l-0.4,0.4l-0.4-0.4C314.1,280.1,312.6,279.6,311.1,279.6L311.1,279.6z"/>
	<g>
		<path class="st3" d="M285.4,299c-6.1,0-11.1-5-11.1-11.1s5-11.1,11.1-11.1s11.1,5,11.1,11.1l0,0C296.5,294,291.5,299,285.4,299z
			 M285.4,277.7c-5.6,0-10.1,4.5-10.1,10.1s4.5,10.1,10.1,10.1s10.1-4.5,10.1-10.1C295.5,282.3,291,277.7,285.4,277.7z"/>
		<path class="st3" d="M281.5,291.3c2.3,3.1,6.3,3.4,8.5,0H281.5z"/>
		<polygon class="st3" points="282.7,288.2 281.1,287.4 279.6,288.3 279.8,286.5 278.5,285.4 280.2,285.1 280.9,283.4 281.8,285 
			283.5,285.2 282.4,286.5 		"/>
		<polygon class="st3" points="290.8,288.2 289.1,287.4 287.6,288.3 287.8,286.5 286.4,285.4 288.2,285.1 289,283.4 289.8,285 
			291.6,285.2 290.3,286.5 		"/>
	</g>
	<g>
		<g>
			<path class="st3" d="M223.9,443.4c-6.1,0-11.1-5-11.1-11.1c0-6.1,5-11.1,11.1-11.1c6.1,0,11.1,5,11.1,11.1l0,0
				C235.1,438.4,230.1,443.4,223.9,443.4z M223.9,422.1c-5.6,0-10.1,4.5-10.1,10.1s4.5,10.1,10.1,10.1c5.6,0,10.1-4.5,10.1-10.1
				C234.1,426.6,229.5,422.1,223.9,422.1z"/>
			<circle class="st3" cx="228.5" cy="428.7" r="2.5"/>
			<circle class="st3" cx="219.9" cy="428.7" r="2.5"/>
			<path class="st3" d="M220.8,434.3c-1,7.1,7.1,8.6,6.3,0C227.1,434.3,221.1,434.3,220.8,434.3z"/>
		</g>
		<g>
			<path class="st3" d="M259.3,427.6c-0.5-0.5-1.5-0.5-2.1,0c-0.5,0.5-0.5,1.5,0,2.1l0,0l2.1,2.1l2.1-2.1c0.5-0.5,0.5-1.5,0-2.1
				C260.8,427.1,259.9,427.1,259.3,427.6L259.3,427.6z"/>
			<path class="st3" d="M250.7,427.6c-0.5-0.5-1.5-0.5-2.1,0c-0.5,0.5-0.5,1.5,0,2.1l0,0l2.1,2.1l2.1-2.1c0.5-0.5,0.5-1.5,0-2.1
				C252.2,427.1,251.2,427.1,250.7,427.6L250.7,427.6z"/>
			<path class="st3" d="M255.2,443.3c-6.1,0-11.1-5-11.1-11.1s5-11.1,11.1-11.1s11.1,5,11.1,11.1l0,0
				C266.3,438.3,261.3,443.3,255.2,443.3z M255.2,422c-5.6,0-10.1,4.5-10.1,10.1c0,5.6,4.5,10.1,10.1,10.1s10.1-4.5,10.1-10.1
				C265.3,426.6,260.8,422.1,255.2,422z"/>
			<path class="st3" d="M251.2,435.6c2.3,3.1,6.3,3.4,8.5,0H251.2z"/>
		</g>
		<path class="st3" d="M315.2,443.2L306,434c-2.6-2.6-2.6-7,0-9.6c2.5-2.5,6.5-2.6,9.2-0.4c2.8-2.4,7.1-2.2,9.6,0.7
			c2.3,2.7,2.2,6.7-0.4,9.2L315.2,443.2z M310.8,423.5c-3.2,0-5.7,2.5-5.7,5.7c0,1.5,0.6,3,1.7,4.1l8.5,8.5l8.5-8.5
			c2.3-2.3,2.3-5.9,0-8.1c-2.3-2.3-5.9-2.3-8.1,0l-0.4,0.4l-0.4-0.4C313.8,424.1,312.4,423.5,310.8,423.5L310.8,423.5z"/>
		<g>
			<path class="st3" d="M285.1,443c-6.1,0-11.1-5-11.1-11.1c0-6.1,5-11.1,11.1-11.1s11.1,5,11.1,11.1l0,0
				C296.2,438,291.2,443,285.1,443z M285.1,421.6c-5.6,0-10.1,4.5-10.1,10.1c0,5.6,4.5,10.1,10.1,10.1s10.1-4.5,10.1-10.1
				C295.2,426.2,290.7,421.6,285.1,421.6z"/>
			<path class="st3" d="M281.2,435.3c2.3,3.1,6.3,3.4,8.5,0H281.2z"/>
			<polygon class="st3" points="282.5,432.2 280.8,431.4 279.3,432.3 279.5,430.5 278.1,429.3 279.9,429 280.7,427.3 281.5,429 
				283.3,429.1 282,430.4 			"/>
			<polygon class="st3" points="290.4,432.2 288.9,431.4 287.2,432.3 287.5,430.5 286.2,429.3 288,429 288.6,427.3 289.5,429 
				291.3,429.1 290,430.4 			"/>
		</g>
	</g>
	<g>
		<g>
			<path class="st3" d="M224.2,593.1c-6.1,0-11.1-5-11.1-11.1s5-11.1,11.1-11.1c6.1,0,11.1,5,11.1,11.1l0,0
				C235.3,588.2,230.4,593.1,224.2,593.1z M224.2,571.8c-5.6,0-10.1,4.5-10.1,10.1c0,5.6,4.5,10.1,10.1,10.1
				c5.6,0,10.1-4.5,10.1-10.1C234.3,576.4,229.8,571.9,224.2,571.8z"/>
			<circle class="st3" cx="228.7" cy="578.4" r="2.5"/>
			<circle class="st3" cx="220.2" cy="578.4" r="2.5"/>
			<path class="st3" d="M221.1,584c-1,7.1,7.1,8.6,6.3,0C227.5,584,221.3,584,221.1,584z"/>
		</g>
		<g>
			<path class="st3" d="M259.5,577.3c-0.5-0.5-1.5-0.5-2.1,0c-0.5,0.5-0.5,1.5,0,2.1l0,0l2.1,2.1l2.1-2.1c0.5-0.5,0.5-1.5,0-2.1
				C261.1,576.8,260.2,576.8,259.5,577.3L259.5,577.3z"/>
			<path class="st3" d="M250.9,577.3c-0.5-0.5-1.5-0.5-2.1,0c-0.5,0.5-0.5,1.5,0,2.1l0,0l2.1,2.1l2.1-2.1c0.5-0.5,0.5-1.5,0-2.1
				C252.5,576.8,251.5,576.8,250.9,577.3L250.9,577.3z"/>
			<path class="st3" d="M255.5,593c-6.1,0-11.1-5-11.1-11.1s5-11.1,11.1-11.1c6.1,0,11.1,5,11.1,11.1l0,0
				C266.6,588.1,261.6,593,255.5,593z M255.5,571.8c-5.6,0-10.1,4.5-10.1,10.1c0,5.6,4.5,10.1,10.1,10.1c5.6,0,10.1-4.5,10.1-10.1
				C265.6,576.3,261.1,571.8,255.5,571.8z"/>
			<path class="st3" d="M251.6,585.5c2.3,3.1,6.3,3.4,8.5,0H251.6z"/>
		</g>
		<path class="st3" d="M315.5,593l-9.2-9.2c-2.6-2.6-2.6-7,0-9.6c2.5-2.5,6.5-2.6,9.2-0.4c2.8-2.4,7.1-2.2,9.6,0.7
			c2.3,2.7,2.2,6.7-0.4,9.2L315.5,593z M311.1,573.3c-3.2,0-5.7,2.5-5.7,5.7c0,1.5,0.6,3,1.7,4.1l8.5,8.5l8.5-8.5
			c2.3-2.3,2.3-5.9,0-8.1c-2.3-2.3-5.9-2.3-8.1,0l-0.4,0.4l-0.4-0.4C314.1,573.8,312.6,573.3,311.1,573.3L311.1,573.3z"/>
		<g>
			<path class="st3" d="M285.4,592.7c-6.1,0-11.1-5-11.1-11.1c0-6.1,5-11.1,11.1-11.1s11.1,5,11.1,11.1l0,0
				C296.5,587.7,291.5,592.7,285.4,592.7z M285.4,571.5c-5.6,0-10.1,4.5-10.1,10.1c0,5.6,4.5,10.1,10.1,10.1s10.1-4.5,10.1-10.1
				C295.5,576,291,571.5,285.4,571.5z"/>
			<path class="st3" d="M281.5,585.1c2.3,3.1,6.3,3.4,8.5,0H281.5z"/>
			<polygon class="st3" points="282.7,581.9 281.1,581.1 279.6,582 279.8,580.3 278.5,579.1 280.2,578.8 280.9,577.2 281.8,578.7 
				283.5,578.9 282.4,580.1 			"/>
			<polygon class="st3" points="290.8,581.9 289.1,581.1 287.6,582 287.8,580.3 286.4,579.1 288.2,578.8 289,577.2 289.8,578.7 
				291.6,578.9 290.3,580.1 			"/>
		</g>
	</g>
	<g>
		<path class="st8" d="M594.3,495.2c5.2-5.8,4.9-14.6-0.9-19.9c-0.6-0.5-1.3-1.1-2-1.5l-23.6-126l-28.7,10.7l32.2,120.5
			c-3.7,6.9-1.2,15.4,5.7,19.1C582.8,501.2,590,500,594.3,495.2L594.3,495.2z"/>
		<path class="st8" d="M365.4,302.9c0.1,0.8,0.1,1.5,0,2.3l55.8,43l15.8-6.5l12.9,22.6L423,378.6c-4.4,2.3-9.9,1.5-13.5-2.2
			l-55.7-57.5c-8,1.8-16-3.3-17.8-11.3c-1.8-8,3.3-16,11.3-17.8c8-1.8,16,3.3,17.8,11.3C365.2,301.6,365.3,302.3,365.4,302.9
			L365.4,302.9z"/>
		<polygon class="st8" points="495.7,718.8 479.6,718.8 472,669.9 495.7,669.9 		"/>
		<path class="st7" d="M499.7,734.3H448v-0.6c0-11.1,9-20.1,20.1-20.1l0,0l0,0h31.6V734.3z"/>
		<polygon class="st8" points="555.9,718.8 539.8,718.8 532.3,669.9 555.9,669.9 		"/>
		<path class="st7" d="M560.1,734.3h-51.7v-0.6c0-11.1,9-20.1,20.1-20.1l0,0l0,0h31.6V734.3z"/>
		<path class="st7" d="M476.3,709.1c-3.1,0-5.6-2.3-5.9-5.3l-14-188.2l0.6-0.1l96.4-7.9v0.7l7.7,195c0.1,3.3-2.4,6-5.7,6.1
			c-0.1,0-0.2,0-0.2,0h-18.9c-2.9,0-5.4-2.1-5.9-5l-25.6-157.5c-0.1-0.4-0.4-0.6-0.7-0.5c-0.4,0.1-0.5,0.4-0.5,0.6l-1.2,155.5
			c0,3.2-2.4,5.7-5.6,5.9l-20.2,0.8C476.5,709.1,476.4,709.1,476.3,709.1z"/>
		
			<ellipse transform="matrix(0.3827 -0.9239 0.9239 0.3827 77.3809 606.7165)" class="st8" cx="492.7" cy="245.5" rx="32.1" ry="32.1"/>
		<path class="st1" d="M498.9,527.6c-14.1,0-28.1-2-41.6-5.7c-2.7-0.8-4.4-3.3-4.2-6.1c4.3-65.1,5.3-115.6-3.8-150.5
			c-3.9-14.9-2.1-30.6,4.9-43.1c10.5-18.8,29.7-30.2,50.2-29.8l0,0c1,0,2,0.1,3,0.1c31.2,1.6,55.4,29.8,54.1,62.8l-6.2,157.5
			c-0.1,2.3-1.5,4.4-3.7,5.3C534.7,524.2,516.9,527.5,498.9,527.6z"/>
		<path class="st1" d="M454.6,377.2l-24-29.5c-2.6-3.3-2.2-7.9,1.1-10.7c0.3-0.3,0.6-0.5,0.9-0.6l32.7-19.4c9-7.2,22.2-5.9,29.4,3.2
			c7.2,8.9,5.9,22.1-3.1,29.4l-25.6,28c-2.8,3.1-7.6,3.3-10.7,0.5C455.1,377.8,454.9,377.5,454.6,377.2L454.6,377.2z"/>
		<path class="st1" d="M530.4,373.5c-2-0.9-3.5-2.6-4.2-4.7l-10.8-36.3c-4.9-10.5-0.4-22.9,10.1-27.9c10.5-4.9,22.8-0.5,27.8,10
			l21,31.7c2.3,3.4,1.4,8.1-2.2,10.5c-0.3,0.2-0.6,0.4-1,0.5l-34.5,16.2C534.8,374.4,532.4,374.4,530.4,373.5z"/>
		<path class="st7" d="M508.6,271.8l-23.8-5.4c-2.4-0.5-5.4-1.6-5.8-4.2c-0.5-3.3,4.3-5.7,4-9c-0.5-3.3-4.9-3.7-7.9-4.6
			c-6.1-2.2-9.4-8.7-7.4-14.9c-3.4,4.8-11.2,5.2-15.5,1.4c-4.4-3.9-5.2-10.9-2.6-16.2c2.9-5.2,8.1-8.8,14.1-9.5
			c5.9-0.6,11.8,0.5,17.1,3.2c0.4-3.7,5-5.2,8.7-5.2c15.9,0.2,29.9,10.4,34.9,25.5c4.6,14.7,1.5,30.9-11.3,39.6L508.6,271.8z"/>
	</g>
</g>
</svg>
