<?xml version="1.0" encoding="utf-8"?>
<!-- Generator: Adobe Illustrator 24.1.0, SVG Export Plug-In . SVG Version: 6.00 Build 0)  -->
<svg version="1.1" id="b08b9267-8725-41d4-9fd9-d16b8c1f0d2f"
	 xmlns="http://www.w3.org/2000/svg" xmlns:xlink="http://www.w3.org/1999/xlink" x="0px" y="0px" viewBox="0 0 974 729.2"
	 style="enable-background:new 0 0 974 729.2;" xml:space="preserve">
<style type="text/css">
	.st0{opacity:0.1;fill:#6C63FF;enable-background:new    ;}
	.st1{fill:#3F3D56;}
	.st2{fill:#FFFFFF;}
	.st3{fill:#F2F2F2;}
	.st4{fill:#6C63FF;}
	.st5{fill:#CCCCCC;}
	.st6{fill:#FFB9B9;}
	.st7{fill:#2F2E41;}
	.st8{fill:#FFB8B8;}
	.st9{fill:#A0616A;}
	.st10{fill:#48A1BC;}
	.st11{fill:#D0CDE1;}
	.st12{fill:#E6E6E6;}
	.st13{fill:#575A89;}
	.st14{opacity:0.2;enable-background:new    ;}
</style>
<path class="st0" d="M523.9,171.2c-49.5,8.4-99,4.8-146.5-0.4c-47.6-5.2-95-12-144.6-10c-31.9,1.3-67.4,7.6-89.6,26
	c-21.4,17.7-24.8,41.5-24.8,63c-0.1,16.2,1.3,32.9,12.8,45.8c8,8.9,20.2,15.3,29.5,23.6c32.1,28.7,22.4,73.8,1.3,112.1
	c-9.9,18-22,35.7-28.7,54.1s-7.6,38.2,4.4,53.2c11.9,14.9,35.1,23.3,59.2,27.6c48.9,8.8,103.5,3.4,156.2-4.1
	c116.8-16.5,232.3-42.3,347.6-68c42.7-9.5,85.5-19.1,126.6-32.8c22.8-7.6,46.1-17.1,60.8-31.9c18.7-18.7,19.2-44.4,1.2-59.7
	c-30.3-25.7-98.9-20-122.3-49.3c-12.9-16.2-7.3-38.1,3-57.5c22-41.6,64.5-82.7,59-124.1c-3.8-28.4-32.8-52-71.7-58.1
	c-40.8-6.4-93.1,5.8-116.6,34.4C616.5,144.6,567.6,163.8,523.9,171.2z"/>
<g>
	<path class="st1" d="M624.2,218.1h-3v-82.8c0-26.5-21.5-47.9-47.9-47.9l0,0H397.8c-26.5,0-47.9,21.5-47.9,47.9v454.3
		c0,26.5,21.5,47.9,47.9,47.9h175.4c26.5,0,47.9-21.5,47.9-47.9V277h3L624.2,218.1z"/>
	<path class="st2" d="M610.9,135.6v453.6c0,19.8-16,35.8-35.8,35.8H398.9c-19.8,0-35.8-16-35.8-35.8V135.6c0-19.8,16-35.8,35.8-35.8
		h21.4c-3.5,8.7,0.6,18.6,9.3,22.2c2,0.8,4.2,1.3,6.4,1.3h100.5c9.4,0,17-7.6,17-17c0-2.2-0.4-4.4-1.3-6.4h22.9
		C594.9,99.8,610.9,115.9,610.9,135.6z"/>
	<path class="st3" d="M408.3,141.9c-13.4,0-24.2,10.8-24.2,24.2s10.8,24.2,24.2,24.2l0,0c13.4,0,24.2-10.8,24.2-24.2
		S421.6,141.9,408.3,141.9z"/>
	<path class="st3" d="M583.9,186.5h-127c-3.3,0-6-2.7-6-6s2.7-6,6-6h127c3.3,0,6,2.7,6,6S587.2,186.5,583.9,186.5z"/>
	<path class="st3" d="M497,160.8h-40.1c-3.3,0-6-2.7-6-6s2.7-6,6-6H497c3.3,0,6,2.7,6,6S500.3,160.8,497,160.8z"/>
	<path class="st3" d="M408.3,243.2c-13.4,0-24.2,10.8-24.2,24.2s10.8,24.2,24.2,24.2l0,0c13.4,0,24.2-10.8,24.2-24.2
		C432.4,254,421.6,243.2,408.3,243.2z"/>
	<path class="st3" d="M583.9,287.8h-127c-3.3,0-6-2.7-6-6s2.7-6,6-6h127c3.3,0,6,2.7,6,6C589.9,285.1,587.2,287.8,583.9,287.8z"/>
	<path class="st3" d="M497,262.1h-40.1c-3.3,0-6-2.7-6-6c0-3.3,2.7-6,6-6H497c3.3,0,6,2.7,6,6C503,259.4,500.3,262.1,497,262.1z"/>
	<path class="st3" d="M408.3,445.8c-13.3,1.2-23.1,13-22,26.3c1,11.7,10.3,20.9,22,22.1l0,0c13.4,0,24.2-10.8,24.2-24.2
		S421.6,445.8,408.3,445.8z"/>
	<path class="st3" d="M583.9,490.4h-127c-3.3,0-6-2.7-6-6s2.7-6,6-6h127c3.3,0,6,2.7,6,6C589.9,487.7,587.2,490.4,583.9,490.4z"/>
	<path class="st3" d="M497,464.7h-40.1c-3.3,0-6-2.7-6-6s2.7-6,6-6H497c3.3,0,6,2.7,6,6S500.3,464.7,497,464.7z"/>
	<path class="st3" d="M408.3,547.1c-13.4,0-24.2,10.8-24.2,24.2s10.8,24.2,24.2,24.2l0,0c13.4,0,24.2-10.8,24.2-24.2
		C432.4,557.9,421.6,547.1,408.3,547.1z"/>
	<path class="st3" d="M583.9,591.7h-127c-3.3,0-6-2.7-6-6s2.7-6,6-6h127c3.3,0,6,2.7,6,6S587.2,591.7,583.9,591.7z"/>
	<path class="st3" d="M497,566h-40.1c-3.3,0-6-2.7-6-6s2.7-6,6-6H497c3.3,0,6,2.7,6,6S500.3,566,497,566z"/>
	<path class="st2" d="M632.9,426.9H341.1c-6.9,0-12.5-5.6-12.5-12.5v-93.7c0-6.9,5.6-12.5,12.5-12.5h291.8c6.9,0,12.5,5.6,12.5,12.5
		v93.7C645.4,421.3,639.8,426.9,632.9,426.9z"/>
	<path class="st4" d="M408.3,343.4c-13.4,0-24.2,10.8-24.2,24.2c0,13.4,10.8,24.2,24.2,24.2l0,0c13.4,0,24.2-10.8,24.2-24.2
		C432.4,354.2,421.6,343.4,408.3,343.4z"/>
	<path class="st5" d="M517.7,362.3h-40.1c-3.3,0-6-2.7-6-6s2.7-6,6-6h40.1c3.3,0,6,2.7,6,6C523.8,359.5,521.1,362.3,517.7,362.3z"/>
	<path class="st1" d="M632.9,426.9H341.1c-6.9,0-12.5-5.6-12.5-12.5v-93.7c0-6.9,5.6-12.5,12.5-12.5h291.8c6.9,0,12.5,5.6,12.5,12.5
		v93.7C645.4,421.3,639.8,426.9,632.9,426.9z M341.1,309c-6.5,0-11.7,5.2-11.7,11.7v93.7c0,6.5,5.2,11.7,11.7,11.7h291.8
		c6.5,0,11.7-5.2,11.7-11.7v-93.7c0-6.5-5.2-11.7-11.7-11.7H341.1z"/>
	<g>
		<circle class="st6" cx="406.9" cy="153.4" r="5.1"/>
		<path class="st6" d="M404.9,157.3c0,0,0.6,3.1,0.6,3.4s3.1,1.8,3.1,1.8l2.7-0.5l1-2.9c0,0-1.6-2.4-1.6-3.4L404.9,157.3z"/>
		<path class="st4" d="M418.8,187.8l0.7-1.2l0.1-0.2l-1.3-13.7l0.1-0.6l1.4-11.1l-7.9-2.8l0,0c0,1.4-1,2.7-2.4,3.1
			c-2.4,0.8-4.1-1.9-4.1-1.9l-6.7,5.1l3.3,9.4l1.6,4.5c0,0,0.2,5.3,0.3,5.8c0.2,0.5-0.2,0.6-0.3,0.8c-0.2,0.2,0.2,0.6,0.3,0.6
			c0.1,0,0.2,0.6,0.4,1.2c0.1,0.3,0.1,0.6,0.2,0.8L418.8,187.8z"/>
		<path class="st6" d="M431.4,186.9c0,0,4.3,2.7,3.9,4.5c-0.5,1.8-5.5-3.1-5.5-3.2S431.4,186.9,431.4,186.9z"/>
		<path class="st7" d="M402.5,149.2c0,0,1.6-3.5,4.8-2.7c3.1,0.8,4.9,2,5,3.3c0.1,1.2-0.1,3.1-0.1,3.1s-0.3-2.5-2.5-2
			s-5.6,0.1-5.6,0.1l-0.5,4.9c0,0-0.6-0.9-1.3-0.3S400.3,150.3,402.5,149.2z"/>
		<path class="st4" d="M402.3,187.8h-4.4l-0.3-0.6c-1.9-3.4-1.9-8-1.9-8l1.1-9.5c-0.2-3.4,1.9-5.1,1.9-5.1h2.4l1.8,5.9L402,174
			l-1.2,4.4l-0.3,0.5c0,0,0.3,0.5,0.2,0.6c-0.2,0.2-0.3,0.8-0.3,0.8s0.5,3.2,1,3.5s-0.2,0.3-0.2,0.5s0.5,0.8,0.5,0.8v0.8
			L402.3,187.8z"/>
		<path class="st4" d="M417,160.5l2.7,0.5c0,0,1.6,1.6,2.2,3.5l1.3,5.8l2.1,4.2c0,0,2.4,2.4,4.2,7.9l2.6,4.8l-2.7,1.6
			c0,0-7.5-8.8-8.5-11.9l-4.2-8L417,160.5z"/>
	</g>
	<g>
		<path class="st8" d="M414.8,474l-1.5,6.9l3.5,9.7c0,0-1,5.9,2.4,6c3.4,0.2,0-6.2,0-6.2s-2.4-11.6-2.4-11.8s0.3-4.7,0.3-4.7h-2.3
			V474z"/>
		<path class="st8" d="M410.1,457.8c0,0.7-2,3.5-2,3.5l3.2,4c0,0,2.9-1.5,2.9-2s0.7-3.9,0.7-3.9L410.1,457.8z"/>
		<path class="st1" d="M408.8,460.4l-5.4,0.7l-1.7,0.7c-0.8,0.3,0.3,7.2,0.3,7.2l-0.8,15.4c0,0-1.2,1.8-0.8,2.9s-1,4-1,4
			s5.2,2.4,9.6,0.7c4.4-1.7,7.4-0.7,7.4-0.7s-0.8-5.4-1.2-6.4s0-0.5,0.3-1.2s-0.7-5-0.7-5.7s-0.3-0.5,0-0.7s0.3-2.5,0.3-2.5l3.7-6.5
			c0-0.8-4.6-5.4-4.6-5.4c-0.4,0.6-1.9,1-1.9,1C410.1,463.7,408.8,460.4,408.8,460.4z"/>
		<path class="st1" d="M414.3,474.5l3.4,0.3c0,0,0.3-1.7,1.2-2.9c0.8-1.2,0-3.7,0-3.7l-1.7-1.2L414.3,474.5z"/>
		<circle class="st8" cx="413.3" cy="456.3" r="4.4"/>
		<path class="st7" d="M418,456.3l-0.4,0.8c0,0-0.9-1.1-1-1.9s-1.9-1.8-1.9-1.8l0.6,0.8l-1.6-0.2l0.4,0.7l-2.5-0.8l-0.2,0.8
			l-0.4-0.5c0,0.5-0.8,1.1-0.8,1.1v-0.8c0,0.3-1.4,2.5-1.4,2.5v-0.6c-0.2-0.6-0.2-1.3-0.1-1.9l-1.2,0.1l1.2-0.7l-0.3-0.7h0.8
			c0.5-1.1,1.4-2.1,2.1-2.9c1.4-1.6,2.9-1,2.9-1l-0.6,0.7c2.2-0.2,3.8,1.6,3.8,1.6l-0.8,0.3C418.6,452.9,418,456.3,418,456.3z"/>
		<path class="st8" d="M399.4,468.9c0,0,0.7,7.7,1.7,9.6c1,1.8,13.8,3.7,13.8,3.7s4.9,3.5,6.2,1.2s-4-2.9-4-2.9l-11.9-5.7l0,0
			c0.2-0.4,0.4-0.8,0.4-1.2c0.2-2.5-0.8-5-0.8-5L399.4,468.9z"/>
		<path class="st1" d="M405.4,469.3c0,0.2-6,0.3-6.5,0.3s0-0.8,0.5-4.2c0.5-3.4,2.4-3.7,2.4-3.7h2.5
			C404.2,461.7,405.4,469.1,405.4,469.3z"/>
	</g>
	<g>
		<path class="st7" d="M411.2,351.5c-2.1-3.5-6.2-3.7-6.2-3.7s-4-0.5-6.6,4.9c-2.4,5-5.8,9.9-0.5,11.1l0.9-2.9l0.6,3.2
			c0.7,0.1,1.5,0.1,2.2,0c5.6-0.2,10.9,0.1,10.7-2C412,359.4,413.2,354.9,411.2,351.5z"/>
		<circle class="st9" cx="405.3" cy="356.2" r="5.4"/>
		<path class="st9" d="M403.1,359.7c0,0,2.5,5.7-0.8,6.9l3.3,10.8l5.6-0.3l1.5-3.6l-0.3-5.4l-0.5-3.6c0,0-3.4,0.8-3.1-5.2
			L403.1,359.7z"/>
		<path class="st9" d="M401.8,366.4c0,0-5.4-0.5-4.9,3.4s1,4.8,1,4.8l0.5,5.9l-3,1.8h-2.8c0,0-8.5,2-4.3,4.1
			c4.3,2.1,5.7-1.6,5.7-1.6s7.9,0,8.4-1.3C403,382.2,401.8,366.4,401.8,366.4z"/>
		<path class="st9" d="M412.3,364.8c0,0,5.1-1.8,5.4,2.1s0.3,4.3,0.3,4.3l1,5.6c0,0,2,4.9,2,6.4s1.5,6.1,1.5,6.1s2,6.4-0.2,6.2
			c-2.1-0.2-2.5-6.9-2.5-6.9l-4.4-8.9l-1.3-5.4L412.3,364.8z"/>
		<path class="st10" d="M402.6,365.8h-1.3l-0.2,6.9c0,0-2.1,3,0.5,5.6l0.7,4.3l12-0.5l0.8-4.4c0,0,1.6-3.6-0.7-6.9l-2.1-6.7h-1.1
			c0,0,2.7,9.8-3,10C403.6,374.2,402.6,365.8,402.6,365.8z"/>
		<path class="st7" d="M417.7,389.4h-17.2c0.9-2.6,1.5-4.3,1.5-4.4l0,0l0.4-1.3l0.2-0.6l0.2-0.6l0.2-0.8l10.7-0.3l0.3,0.7l1,2.3
			c0.1,0,0.2,0.1,0.2,0.1C416,384.9,416.8,386.7,417.7,389.4z"/>
		<path class="st1" d="M414.8,380.1l-13,0.5c0,0-0.6,4.4,0,4.4c0.2,0,13.6,1.1,13.5-0.8C415.1,382.2,414.8,380.1,414.8,380.1z"/>
		<circle class="st7" cx="405.4" cy="347.8" r="3"/>
		<path class="st7" d="M402.1,347.1c0-1.5,1.2-2.8,2.7-3c-0.1,0-0.2,0-0.3,0c-1.7,0-3,1.3-3,3s1.3,3,3,3c0.1,0,0.2,0,0.3,0
			C403.3,349.9,402.1,348.6,402.1,347.1z"/>
		<polygon class="st7" points="410.2,351.2 406.2,349 400.5,349.9 399.3,355.1 402.2,355 403.1,353.1 403.1,355 404.4,354.9 
			405.2,351.9 405.7,355.1 410.4,355 		"/>
	</g>
	<g>
		<path class="st9" d="M404.5,577.2l3.8,7.6l11.4,5.2c1.2,2.1,5.1,2.2,5.4,0.9c0.3-1.5-4.7-3.9-4.7-3.9l-9.6-6.5l-0.8-5.6
			L404.5,577.2z"/>
		<circle class="st9" cx="405.3" cy="555.3" r="4.4"/>
		<path class="st9" d="M407.4,557.4c-0.9,2-0.4,4.7,1.4,7.8l-7.2-3.4l1.1-1l-0.3-2.8L407.4,557.4z"/>
		<path class="st10" d="M407.4,561.9c0.9,0.6,1.5,1.6,1.8,2.6c0.6,1.9,1,3.9,1.1,6l0.3,6.1l4.2,16.1c-3.7,3.1-5.8,2.4-10.7-0.1
			c-4.9-2.5-5.5,0.8-5.5,0.8s-0.4-0.1,0-0.6c0.4-0.4,0,0-0.4-0.4s0,0,0.1-0.4s0-0.1-0.1-0.3c-0.1-0.1,0.6-1.4,0.6-1.4l-1.1-10.6
			l-1.4-14.9c1.7-2.1,6.5-3.9,6.5-3.9l4.4,3.1c1.4,0.6,0.3-1.7,0.3-1.7L407.4,561.9L407.4,561.9z"/>
		<path class="st9" d="M394,573.7l-0.6,8.5l7.2,10.3c0,2.4,1.3,3,1.3,3c0.5-0.8,0.9-1.6,1.3-2.4c0.7-1.6-0.4-2.8-0.4-2.8l-4.9-10.4
			l2.1-5.2L394,573.7z"/>
		<path class="st10" d="M396.4,564.8c-2.4,0.8-2.8,10-2.8,10c2.8-1.6,6.2,1,6.2,1s0.7-2.4,1.6-5.5c0.5-1.8,0.1-3.7-1.1-5.1
			C400.2,565.2,398.8,563.9,396.4,564.8z"/>
		<path class="st7" d="M401.2,556.7c0.6-0.4,1.3,0.4,1.3,0.4l0.4-4c0,0,2.8,0.3,4.6-0.1c1.8-0.4,2.1,1.6,2.1,1.6
			c0.1-0.8,0.1-1.7,0.1-2.5c-0.1-1-1.6-2-4.1-2.7c-2.6-0.7-3.9,2.2-3.9,2.2C399.9,552.5,400.7,557.1,401.2,556.7z"/>
	</g>
	<g>
		<path class="st8" d="M393.6,279.7v0.9c0,0-0.6,4.9-2.4,4.9s-0.3-5-0.3-5v-0.8H393.6z"/>
		<path class="st8" d="M419.9,261.9l-0.3-0.8c0,0-2-3-0.6-3.8s3.1,3.1,3.1,3.1l0.3,1.3L419.9,261.9z"/>
		<circle class="st8" cx="413.4" cy="256.8" r="4.1"/>
		<polygon class="st8" points="410.4,257.3 407.5,259.5 411.5,262.8 413.7,260.1 		"/>
		<path class="st11" d="M416.9,266l-4.9,9.3l2.4,12.3c-3.1,5.8-17-2-17-2l0.8-2l2.2-23.6l0,0c0.1-0.8,0.8-1.3,1.5-1.3l6,0.6l4.4,2.5
			l0.1,1.2L416.9,266z"/>
		<path class="st11" d="M400.5,267.3l-4.1,5.3l-2.5,7.5h-3.8l2.7-11.2l7.1-9.6c0.4-0.5,1-0.7,1.6-0.5c0.1,0,0.2,0.1,0.3,0.1
			L400.5,267.3z"/>
		<polygon class="st11" points="413.4,271.5 423.2,275.5 425,273.8 422.5,261.2 419.4,261.8 420.7,269.3 416.9,266 415.6,265.7 		
			"/>
		<path class="st7" d="M409.3,258.2c-0.2-1.7,0-3.3,0.5-4.9c0.9-2.5,3.9-1.7,5.5-1.2c1.7,0.6,3.9,2.9,3.3,4.2
			c-0.6,1.3-3.3-0.3-4.3-1.2c-1-0.8-2.7,1.7-2.7,1.7L409.3,258.2z"/>
		
			<ellipse transform="matrix(0.3416 -0.9398 0.9398 0.3416 29.9838 555.8612)" class="st8" cx="411.7" cy="256.5" rx="0.8" ry="0.5"/>
	</g>
	<g>
		<g>
			<path class="st4" d="M460.2,388.4c-5.2,0-9.3-4.2-9.3-9.3c0-5.2,4.2-9.3,9.3-9.3s9.3,4.2,9.3,9.3l0,0
				C469.5,384.2,465.3,388.4,460.2,388.4z M460.2,370.6c-4.7,0-8.5,3.8-8.5,8.5s3.8,8.5,8.5,8.5s8.5-3.8,8.5-8.5
				C468.6,374.4,464.9,370.6,460.2,370.6z"/>
			<circle class="st4" cx="464" cy="376.1" r="2.1"/>
			<circle class="st4" cx="456.8" cy="376.1" r="2.1"/>
			<path class="st4" d="M457.5,380.8c-0.9,6,6,7.2,5.3,0C462.9,380.8,457.8,380.8,457.5,380.8z"/>
		</g>
		<g>
			<path class="st4" d="M489.8,375.2c-0.5-0.5-1.3-0.5-1.8,0s-0.5,1.3,0,1.8l0,0l1.8,1.8l1.8-1.8c0.5-0.5,0.5-1.3,0-1.8
				S490.3,374.7,489.8,375.2L489.8,375.2z"/>
			<path class="st4" d="M482.6,375.2c-0.5-0.5-1.3-0.5-1.8,0s-0.5,1.3,0,1.8l0,0l1.8,1.8l1.8-1.8c0.5-0.5,0.5-1.3,0-1.8
				S483.1,374.7,482.6,375.2L482.6,375.2z"/>
			<path class="st4" d="M486.3,388.4c-5.2,0-9.3-4.2-9.3-9.3s4.2-9.3,9.3-9.3c5.2,0,9.3,4.2,9.3,9.3l0,0
				C495.7,384.2,491.5,388.3,486.3,388.4z M486.3,370.5c-4.7,0-8.5,3.8-8.5,8.5s3.8,8.5,8.5,8.5s8.5-3.8,8.5-8.5
				S491,370.6,486.3,370.5z"/>
			<path class="st4" d="M483.1,382c1.9,2.6,5.3,2.8,7.1,0H483.1z"/>
		</g>
		<path class="st4" d="M536.6,388.3l-7.7-7.7c-2.2-2.2-2.2-5.8,0-8c2.1-2.1,5.5-2.2,7.7-0.3c2.4-2,5.9-1.8,8,0.6
			c1.9,2.2,1.8,5.6-0.3,7.7L536.6,388.3z M532.9,371.8c-2.6,0-4.8,2.1-4.8,4.8c0,1.3,0.5,2.5,1.4,3.4l7.1,7.1l7.1-7.1
			c1.9-1.9,1.9-4.9,0-6.8s-4.9-1.9-6.8,0l-0.3,0.3l-0.3-0.3C535.4,372.3,534.2,371.8,532.9,371.8L532.9,371.8z"/>
		<g>
			<path class="st4" d="M511.4,388c-5.2,0-9.3-4.2-9.3-9.3c0-5.2,4.2-9.3,9.3-9.3c5.2,0,9.3,4.2,9.3,9.3l0,0
				C520.7,383.9,516.5,388,511.4,388z M511.4,370.2c-4.7,0-8.5,3.8-8.5,8.5s3.8,8.5,8.5,8.5c4.7,0,8.5-3.8,8.5-8.5
				S516.1,370.2,511.4,370.2z"/>
			<path class="st4" d="M508.1,381.7c1.9,2.6,5.3,2.8,7.1,0H508.1z"/>
			<polygon class="st4" points="509.2,379 507.8,378.4 506.5,379.1 506.7,377.7 505.6,376.7 507.1,376.4 507.7,375 508.4,376.3 
				509.9,376.5 508.9,377.6 			"/>
			<polygon class="st4" points="515.9,379 514.5,378.4 513.2,379.1 513.4,377.7 512.3,376.7 513.8,376.4 514.4,375 515.1,376.3 
				516.6,376.5 515.6,377.6 			"/>
		</g>
	</g>
</g>
<g>
	<ellipse class="st12" cx="179.9" cy="685.9" rx="109.3" ry="22.4"/>
	<path class="st8" d="M284.8,364.1l30.1,3.2c0,0,28-9.1,26.2-19.3c-1.8-10.3-31.1,3.3-31.1,3.3l-14.4,2.5L284.8,364.1z"/>
	<polygon class="st13" points="172.2,299.1 215.4,378.2 302,378 299.4,351 232.3,341.5 212.2,249.9 	"/>
	<polygon class="st14" points="172.2,299.1 215.4,378.2 302,378 299.4,351 232.3,341.5 212.2,249.9 	"/>
	<path class="st8" d="M311.5,291.2l26.4-14.9c0,0,17.5-23.6,10.1-31S324.6,266,324.6,266l-10.2,10.4L311.5,291.2z"/>
	<path class="st7" d="M190.6,220.6c17.9-5.1,28.2-23.8,23.1-41.7l0,0c0-23.4-19-42.4-42.5-42.4l0,0l0,0c-23.4,0-42.4,19-42.4,42.5
		l0,0c-0.4,2.1-0.6,4.3-0.6,6.5c0,17.9,14.6,32.4,32.5,32.4l12.6,3.1C179,222.4,184.9,222.2,190.6,220.6z"/>
	<polygon class="st7" points="207.9,414.5 191.4,545.6 187.4,653.8 218.6,653.8 237.2,543.5 247.4,431.1 	"/>
	<path class="st7" d="M189.4,647.6c-4.2,0-6.2,22.9-6.2,27.1c0,4.2,72.8,10.3,79.1-0.1c6.2-10.4-27.1-14.5-27.1-14.5l-20.8-12.5
		H189.4z"/>
	<path class="st7" d="M205.8,399.9L235,429l-22.7,124.9l-91.4,104.2l-27.1-22.9l74.8-95.8l2-77c-14.6-25-15.2-41-15.2-41
		L205.8,399.9z"/>
	<path class="st7" d="M120.8,651.8v27.1c3,4.7,5.8,9.6,8.3,14.6c4.2,8.3-8.3,8.3-8.3,8.3c-27,6.3-37.5-41.6-41.7-52
		s20.8-14.6,20.8-14.6L120.8,651.8z"/>
	<circle class="st8" cx="186.8" cy="191.9" r="31.2"/>
	<polygon class="st8" points="201.4,212.7 205.6,248 172.3,248.1 172.2,212.7 	"/>
	<path class="st13" d="M170.3,362.5c-11.9-47.6-15.7-91.8,1.9-126.9l31.5-2.5c0,0,14.3,11.2,30.4,25.3c13.2,11.6,4.2,45.8,4.2,45.8
		l2.6,26l1.2,12.1l9.3,93c-25.9-6.6-52.9-7.8-79.2-3.3l-20.7,3.5L170.3,362.5z"/>
	<path class="st13" d="M182.1,303.7l67.8,32.8c8.2,4,18,3.1,25.4-2.2l53.1-46.8L315.8,272l-60.2,31.2l-69.5-62.9L182.1,303.7z"/>
	<circle class="st7" cx="126.5" cy="148.7" r="20.1"/>
	<path class="st7" d="M133.6,156.1c1.6-0.3,3.2-0.8,4.6-1.5c10.1-4.7,14.3-16.7,9.6-26.8s-16.7-14.3-26.8-9.6c1.3-0.3,2.6-0.4,4-0.4
		c11.1,0,20.1,9,20.1,20.1C145.1,145.7,140.6,152.8,133.6,156.1z"/>
	<path class="st7" d="M133.7,184.7l14.6,22.9l22.9,12.5c1.4-15.6,4.1-30,16-36.8c5-2.9,9.2-6.9,12.2-11.8l0,0l4.7,11.7l20.9,5.3
		c1.6-12.3-4.1-24.3-14.6-30.9l-20.9-13.1l-27.1,5L133.7,184.7z"/>
	<polygon class="st14" points="241,330.1 242.2,342.3 188,284.8 	"/>
	<ellipse class="st12" cx="781.2" cy="689.8" rx="109.3" ry="22.4"/>
</g>
<g>
	<polygon class="st8" points="767.2,188.5 781.8,232.4 813.3,208.8 806.6,175 	"/>
	<circle class="st8" cx="781.2" cy="175.6" r="30.4"/>
	<path class="st7" d="M743.5,405.8c-12.4,5.6-28.2,109.2-28.2,109.2l5.6,102.5v9c0,2.3,3.4,6.8,5.6,9c2.3,2.3,2.3,2.3-1.1,5.6
		c-3.4,3.4-1.1,10.1-1.1,10.1c10.1,12.4,33.8,4.5,33.8,4.5c9-12.4-3.4-20.3-3.4-20.3l4.5-87.8l2.3-27c-4.5,25.9,14.6,47.3,14.6,47.3
		l45,66.4l5.6,10.1c14.6,9,28.2-12.4,28.2-12.4s-5.6-16.9-6.8-16.9c-1.1,0-11.3-28.2-13.5-32.7c-2.3-4.5-6.8-25.9-6.8-25.9
		s-10.1-5.6-6.8-6.8c3.4-1.1-1.1-4.5-1.1-4.5s-3.4-1.1,0-12.4s27-125,27-125S755.9,400.2,743.5,405.8z"/>
	<path class="st7" d="M721,655.8c-1.1,4.5-23.6,20.3-23.6,20.3s-18,10.1-5.6,22.5s43.9-12.4,43.9-12.4c8-0.2,15.9-1.3,23.6-3.4
		c12.4-3.4-2.3-31.5-2.3-31.5S722.1,651.3,721,655.8z"/>
	<path class="st7" d="M824.4,651.3c0.2,4.6-16.8,26.3-16.8,26.3s-14.3,14.9,1.1,23.2c15.4,8.3,38.4-24.6,38.4-24.6
		c7.6-2.5,14.9-5.9,21.7-10.1c10.9-6.8-14.4-35.6-14.4-35.6S824.2,646.7,824.4,651.3z"/>
	<path class="st4" d="M745.4,352c2.3-15.4,5.1-32.2,8.1-47.9c6.5-32.9,19.9-70.2,28.1-71.6c0,0,23.8-35,35-33.8l11.3,11.3
		c0,0,35.5,27.6,26.5,76s-5.1,128.9-5.1,128.9s-70.9-3.4-89,0c-18,3.4-22.5-5.6-22.5-5.6S740.7,383.4,745.4,352z"/>
	<path class="st7" d="M815.7,177.1c-2.3,0-8,14.8-8,14.8l1.1-25c0,0-17.1,1.1-23.9-5.7c-6.8-6.8-24.5-5.3-26.8,1.5
		s-10.7,15.5-10.7,15.5s5.7-3.4,5.7-21.6s17.1-25,17.1-25c25-13.6,37.5,6.8,37.5,6.8c14.8,5.7,9.1,18.2,9.1,18.2
		C820.2,156.6,817.9,177.1,815.7,177.1z"/>
	<path class="st14" d="M753.5,304l28.9-23.5c0,0,27.4-49.5,50.2-35.1c0,0,20.2,17.4,1.7,40.2c-14.9,18.3-62.8,53.2-89,66.3
		C747.7,336.5,750.5,319.7,753.5,304z"/>
	<path class="st8" d="M669.8,314.9l-15-2.1c0,0-38.1-0.3-31.5,17.9s46.5,2,46.5,2V314.9z"/>
	<path class="st4" d="M787.6,273.1l-37.4,30.3l-65.1,7.1l-23.1-2.3l3,29.4l15.7-2.9c0,0,40,15.3,55.4,15
		c15.3-0.4,85-48.7,103.5-71.5s-1.7-40.2-1.7-40.2C814.9,223.6,787.6,273.1,787.6,273.1z"/>
	<polygon class="st14" points="769.7,447.1 760.8,529.6 764.3,447.1 	"/>
</g>
<circle class="st0" cx="35.6" cy="96.8" r="19"/>
<circle class="st0" cx="552.6" cy="23.6" r="19"/>
<circle class="st0" cx="888.7" cy="61.7" r="19"/>
<circle class="st0" cx="49.8" cy="467.1" r="31.9"/>
<ellipse transform="matrix(0.9239 -0.3827 0.3827 0.9239 -225.1823 238.5322)" class="st0" cx="487" cy="685.3" rx="31.9" ry="31.9"/>
<ellipse class="st0" cx="920.7" cy="547" rx="31.9" ry="31.9"/>
</svg>
