<?xml version="1.0" encoding="utf-8"?>
<!-- Generator: Adobe Illustrator 24.1.0, SVG Export Plug-In . SVG Version: 6.00 Build 0)  -->
<svg version="1.1" id="abc6f0fe-ac59-4901-a46a-93a5eed63bf8"
	 xmlns="http://www.w3.org/2000/svg" xmlns:xlink="http://www.w3.org/1999/xlink" x="0px" y="0px" viewBox="0 0 865.8 650.5"
	 style="enable-background:new 0 0 865.8 650.5;" xml:space="preserve">
<style type="text/css">
	.st0{fill:#E6E6E6;}
	.st1{fill:#3F3D56;}
	.st2{fill:#FFFFFF;}
	.st3{fill:#A0616A;}
	.st4{fill:#2F2E41;}
	.st5{fill:#48A1BC;}
	.st6{fill:#FFB9B9;}
	.st7{fill:#FFB8B8;}
	.st8{fill:#D0CDE1;}
</style>
<path class="st0" d="M919,632.7c0,9.9-91,11-203,18c-111.9,7-203-8.1-203-18s91.5-29.9,203-18C828,626.7,919,622.7,919,632.7z"/>
<path class="st0" d="M406,630.7c0,9.9-91,11-203,18c-111.9,7-203-8.1-203-18s91.5-29.9,203-18C315,624.7,406,620.7,406,630.7z"/>
<path class="st1" d="M590.7,0H350.1c-23.9,0-44.6,16.6-49.9,39.9L178.6,579.2c-5,22.3,9,44.4,31.2,49.4c2.3,0.5,4.7,0.8,7.1,1
	l247.4,12.2c27.4,1.3,51.5-17.8,56.4-44.8l69-381.3l5.1,1.5l13.2-72.3l-5.3-1.3L622,37.2c3-17.2-8.3-33.6-25.5-36.7
	C594.6,0.2,592.6,0,590.7,0L590.7,0z"/>
<path class="st2" d="M381.7,11.6h-28.1c-16.6,0-31,11.6-34.5,27.8L202.4,574.3c-2.6,11.8,4.9,23.5,16.7,26.1
	c1.1,0.2,2.1,0.4,3.2,0.5L468.9,617c14.4,0.9,27.2-9.1,29.8-23.3l99.6-552.8c2.4-13.5-6.5-26.4-20-28.9c-1.5-0.3-2.9-0.4-4.4-0.4
	h-26.6c-5.3,0-9.9,3.6-11.3,8.7l0,0c-1.2,4.5-5.3,7.7-10,7.7H399.4C390.1,28,382.4,20.8,381.7,11.6L381.7,11.6z"/>
<path class="st3" d="M125.8,286.7l21.7,43l65,29.6c6.9,11.7,29,12.6,30.6,5c1.8-8.5-26.8-22.2-26.8-22.2l-54.4-36.8l-4.8-31.7
	L125.8,286.7z"/>
<polygon class="st3" points="128.3,575.6 124.3,607.6 147.6,609.2 150,575.6 "/>
<path class="st4" d="M131.5,602.8c-2.1-2.2-4-4.5-5.7-7c-3.3-4.6-6.3,19-6.3,19s-3.2,9.6-2.4,14.4s19.2,4.8,22.5,4s19.2,0,19.2,0
	h24.1c20.8-9.6,0-16,0-16c-6.4-0.8-28.1-20.8-28.1-20.8l-4.8-8.8c-3.2-0.8-6.4,11.2-6.4,11.2L131.5,602.8z"/>
<polygon class="st3" points="68.2,576 64.2,608 87.4,609.6 89.8,576 "/>
<path class="st4" d="M71.4,603.2c-2.1-2.2-4-4.5-5.7-7c-3.3-4.6-6.3,19-6.3,19s-3.2,8.8-2.4,13.6s19.2,4.8,22.5,4s19.2,0.8,19.2,0.8
	h24.1c20.8-9.6,0-16,0-16c-6.4-0.8-28.1-20.8-28.1-20.8l-4.8-8.8c-3.2-0.8-6.4,11.2-6.4,11.2L71.4,603.2z"/>
<path class="st4" d="M94.6,369.1c-3.2,4-1.6,17.6-1.6,17.6s-5.6,44.1-3.2,48.1s-1.6,7.2-4,12.8S81,466.9,81,466.9
	c-13.6,11.2-12.8,62.5-12.8,62.5l-4.8,45.7c1.6,4.8,24.1,5.6,27.3,4.8s12.8-73,12.8-73l21.6-40.9c0,0-1.6,109-1.6,113.9
	s21.6,2.4,26.5,2.4s4.8-80.2,4.8-80.2l4.8-20.8l25.7-95.4v-11.2l-4-5.6C181.2,369.1,97.8,365.1,94.6,369.1z"/>
<circle class="st3" cx="129.9" cy="162.2" r="24.9"/>
<path class="st3" d="M142.3,173.8c-5,11.2-2.1,26.9,8,44.1l-40.9-19.2l6.4-5.6l-1.6-16L142.3,173.8z"/>
<path class="st5" d="M142.3,199.5c5.4,3.2,8.6,9,10.4,15c3.4,11,5.5,22.4,6.1,33.9l1.9,34.5l24.1,91.4
	c-20.8,17.6-32.9,13.6-60.9-0.8c-28.1-14.4-31.3,4.8-31.3,4.8s-2.4-0.8,0-3.2s0,0-2.4-2.4s0,0,0.8-2.4s0-0.8-0.8-1.6
	c-0.8-0.8,3.2-8,3.2-8L87,300.5l-8-85c9.6-12,36.9-22.5,36.9-22.5l24.9,17.6c8,3.2,1.6-9.6,1.6-9.6L142.3,199.5z"/>
<path class="st3" d="M65.8,266.5l-3.2,48.1l40.9,58.5c0,13.6,7.2,16.8,7.2,16.8c2.7-4.4,5.1-8.9,7.2-13.6c4-8.8-2.4-16-2.4-16
	L87.4,301l12-29.7L65.8,266.5z"/>
<path class="st5" d="M79.4,215.9c-13.6,4.8-16,56.9-16,56.9c16-8.8,35.3,5.6,35.3,5.6s4-13.6,8.8-31.3c3-10.1,0.5-21-6.4-28.9
	C101.1,218.3,93,211.1,79.4,215.9z"/>
<path class="st4" d="M107.1,169.8c3.2-2.5,7.5,2.1,7.5,2.1l2.5-22.8c0,0,15.8,1.9,25.9-0.6s11.7,9.2,11.7,9.2
	c0.5-4.7,0.6-9.5,0.3-14.2c-0.6-5.7-8.9-11.4-23.4-15.2S109.4,141,109.4,141C99.4,146,103.9,172.4,107.1,169.8z"/>
<path class="st0" d="M521.7,413.3c1,0,1.9-0.7,2.1-1.8l55.3-328c0.2-1.2-0.5-2.3-1.6-2.5c-0.1,0-0.2,0-0.3,0l-251.5-3.2l0,0
	c-0.9,0-1.7,0.7-2,1.7l-65.2,317.4c-0.2,1.2,0.4,2.3,1.5,2.6c0.1,0,0.2,0,0.3,0.1L521.7,413.3z"/>
<path class="st0" d="M302.8,422.8c-0.5,0-0.9,0.3-1,0.8l-2.3,10c-0.1,0.5,0.2,1.1,0.7,1.2c0.1,0,0.1,0,0.2,0l131.2,9.3
	c0.5,0,1-0.3,1.1-0.8l2.2-11.5c0.1-0.5-0.2-1.1-0.8-1.2H434L302.8,422.8L302.8,422.8z"/>
<path class="st0" d="M462.2,481c0.5,0,0.9-0.3,1.1-0.8l2.8-11.5c0.1-0.5-0.2-1.1-0.7-1.2c-0.1,0-0.1,0-0.2,0l-167.6-11.7
	c-0.5,0-0.9,0.3-1,0.7l-3,10c-0.2,0.5,0.1,1.1,0.7,1.2c0.1,0,0.1,0,0.2,0L462.2,481z"/>
<path class="st0" d="M453.2,518c0.5,0,0.9-0.3,1.1-0.8l2.8-11.5c0.1-0.5-0.2-1.1-0.7-1.2c-0.1,0-0.1,0-0.2,0l-167.6-11.7
	c-0.5,0-0.9,0.3-1,0.7l-3,10c-0.2,0.5,0.1,1.1,0.7,1.2c0.1,0,0.1,0,0.2,0L453.2,518z"/>
<path class="st5" d="M376,563.5c0.5,0.1,0.9-0.3,1.1-0.8l6-24.1c0.1-0.5-0.2-1.1-0.7-1.2c-0.1,0-0.1,0-0.2,0l-102.9-8.7
	c-0.5,0-0.9,0.3-1.1,0.8l-5.1,23.1c-0.1,0.5,0.2,1.1,0.8,1.2h0.1L376,563.5z"/>
<g>
	
		<rect x="456.3" y="78.8" transform="matrix(6.261793e-02 -0.998 0.998 6.261793e-02 313.7723 569.1343)" class="st5" width="7.2" height="77.4"/>
	
		<rect x="483.5" y="76.7" transform="matrix(6.261793e-02 -0.998 0.998 6.261793e-02 312.6472 621.3174)" class="st2" width="7.2" height="135"/>
	<g>
		
			<rect x="325.2" y="102.6" transform="matrix(6.261793e-02 -0.998 0.998 6.261793e-02 194.4843 504.8137)" class="st2" width="81.6" height="92.6"/>
		
			<ellipse transform="matrix(6.261791e-02 -0.998 0.998 6.261791e-02 212.5855 481.999)" class="st6" cx="362.9" cy="127.8" rx="9.2" ry="9.2"/>
		<path class="st6" d="M358.9,134.6c0,0,0.8,5.5,0.8,6.1s5.3,3.5,5.3,3.5l4.9-0.6l2-5.1c0,0-2.6-4.5-2.5-6.2L358.9,134.6z"/>
		<path class="st5" d="M380.2,190.6l1.3-2.1l0.2-0.3l-0.8-24.5l0.2-1.1l3.7-19.7L371,137l0,0c-0.2,2.6-2.1,4.7-4.6,5.3
			c-4.4,1.2-7.1-3.8-7.1-3.8l-12.5,8.4l4.8,17.2l2.3,8.3c0,0-0.3,9.5-0.1,10.4c0.2,0.9-0.4,1.1-0.7,1.4c-0.3,0.3,0.2,1.2,0.5,1.2
			c0.1,0,0.4,1.1,0.5,2.2c0.1,0.6,0.2,1.1,0.2,1.5L380.2,190.6z"/>
		<path class="st6" d="M402.8,190.5c0,0,7.4,5.4,6.4,8.5c-1.1,3.1-9.4-6.1-9.4-6.4C399.8,192.4,402.8,190.5,402.8,190.5z"/>
		<path class="st4" d="M355.4,119.9c0,0,3.3-6.1,8.8-4.3s8.5,4.2,8.6,6.4s-0.5,5.5-0.5,5.5s-0.3-4.5-4.3-3.8s-10-0.4-10-0.4
			l-1.5,8.7c0,0-1-1.6-2.3-0.8C353.1,132.1,351.4,121.6,355.4,119.9z"/>
		<path class="st5" d="M350.7,188.8l-7.9-0.5l-0.5-1.1c-3.1-6.2-2.5-14.6-2.5-14.6l3.1-16.8c0.1-6,4-9,4-9l4.3,0.3l2.5,10.8l-2,6.1
			l-2.6,7.7l-0.6,0.8c0,0,0.5,0.9,0.2,1.2s-0.7,1.4-0.7,1.4s0.5,5.8,1.3,6.4c0.8,0.6-0.3,0.6-0.3,0.8c0,0.3,0.8,1.5,0.8,1.5
			l-0.1,1.4L350.7,188.8z"/>
		<path class="st5" d="M380,141.7l4.8,1.2c0,0,2.7,3.1,3.6,6.6L390,160l3.3,7.7c0,0,4,4.6,6.6,14.5l4.1,8.9l-5.1,2.6
			c0,0-12.5-16.6-13.9-22.2l-6.6-14.8L380,141.7z"/>
	</g>
	<g>
		<g>
			<path class="st5" d="M430.2,180.1c-6.4-0.4-11.2-5.9-10.8-12.3c0.4-6.4,5.9-11.2,12.3-10.8s11.2,5.9,10.8,12.3l0,0
				C442,175.6,436.5,180.5,430.2,180.1z M431.5,158.1c-5.8-0.4-10.8,4-11.1,9.8s4,10.8,9.8,11.1c5.8,0.4,10.8-4,11.1-9.8
				C441.7,163.4,437.3,158.4,431.5,158.1z"/>
			<circle class="st5" cx="435.8" cy="165.2" r="2.6"/>
			<circle class="st5" cx="426.9" cy="164.6" r="2.6"/>
			<path class="st5" d="M427.5,170.4c-1.5,7.3,6.9,9.4,6.6,0.4C434.1,170.9,427.8,170.5,427.5,170.4z"/>
		</g>
		<g>
			<path class="st5" d="M467.8,166.1c-0.6-0.6-1.5-0.7-2.2-0.1c-0.6,0.6-0.7,1.5-0.1,2.2l0,0l2,2.3l2.3-2c0.6-0.6,0.7-1.5,0.1-2.2
				C469.4,165.6,468.4,165.5,467.8,166.1L467.8,166.1z"/>
			<path class="st5" d="M458.9,165.5c-0.6-0.6-1.5-0.7-2.2-0.1c-0.6,0.6-0.7,1.5-0.1,2.2l0,0l2,2.3l2.3-2c0.6-0.6,0.7-1.5,0.1-2.2
				S459.5,164.9,458.9,165.5L458.9,165.5z"/>
			<path class="st5" d="M462.5,182c-6.4-0.4-11.2-5.9-10.8-12.3s5.9-11.2,12.3-10.8s11.2,5.9,10.8,12.3l0,0
				C474.4,177.6,468.9,182.4,462.5,182z M463.9,160c-5.8-0.4-10.8,4-11.1,9.8c-0.4,5.8,4,10.8,9.8,11.1s10.8-4,11.1-9.8
				C474.1,165.4,469.7,160.4,463.9,160z"/>
			<path class="st5" d="M459,173.9c2.2,3.4,6.3,3.9,8.8,0.5L459,173.9z"/>
		</g>
		<path class="st5" d="M524.8,185.9l-8.9-10.1c-2.6-2.9-2.3-7.3,0.6-9.9c2.8-2.4,6.9-2.3,9.6,0.2c3.1-2.3,7.5-1.7,9.8,1.4
			c2.2,2.9,1.8,7.1-0.9,9.5L524.8,185.9z M521.5,165.1c-3.3-0.2-6.1,2.3-6.3,5.6c-0.1,1.6,0.4,3.1,1.5,4.3l8.2,9.3l9.3-8.2
			c2.5-2.2,2.7-5.9,0.5-8.4s-5.9-2.7-8.4-0.5l-0.4,0.4l-0.4-0.4C524.5,166,523,165.2,521.5,165.1L521.5,165.1z"/>
		<g>
			<path class="st5" d="M493.5,183.6c-6.4-0.4-11.2-5.9-10.8-12.3s5.9-11.2,12.3-10.8s11.2,5.9,10.8,12.3l0,0
				C505.4,179.2,499.9,184,493.5,183.6z M494.9,161.6c-5.8-0.4-10.8,4-11.1,9.8c-0.4,5.8,4,10.8,9.8,11.1s10.8-4,11.1-9.8
				C505.1,166.9,500.7,162,494.9,161.6z"/>
			<path class="st5" d="M490,175.5c2.2,3.4,6.3,3.9,8.8,0.5L490,175.5z"/>
			<polygon class="st5" points="491.5,172.3 489.9,171.4 488.2,172.2 488.6,170.4 487.2,169.1 489.1,168.8 489.9,167.2 490.7,168.9 
				492.6,169.2 491.2,170.4 			"/>
			<polygon class="st5" points="499.8,172.8 498.2,171.9 496.5,172.7 496.9,170.9 495.5,169.6 497.4,169.4 498.2,167.7 499,169.4 
				500.9,169.7 499.5,171 			"/>
		</g>
	</g>
</g>
<g>
	
		<rect x="445.4" y="187.6" transform="matrix(0.1015 -0.9948 0.9948 0.1015 178.6716 649.564)" class="st5" width="7.1" height="76.5"/>
	
		<rect x="471.2" y="186.5" transform="matrix(0.1015 -0.9948 0.9948 0.1015 174.6465 699.7921)" class="st2" width="7.1" height="133.4"/>
	<g>
		
			<rect x="313.9" y="204.9" transform="matrix(0.1015 -0.9948 0.9948 0.1015 68.7164 578.5587)" class="st2" width="81.5" height="92.6"/>
		<path class="st4" d="M364.6,229c-2.9-6.3-9.8-7.3-9.8-7.3s-6.7-1.6-12,7c-4.9,8-11.3,15.6-2.8,18.5l2.1-4.8l0.4,5.4
			c1.2,0.2,2.5,0.4,3.7,0.4c9.4,0.7,18.3,2,18.3-1.4C364.7,242.3,367.4,235.1,364.6,229z"/>
		<circle class="st3" cx="354.1" cy="235.8" r="9.1"/>
		<path class="st3" d="M349.8,241.4c0,0,3.1,10-2.6,11.4l3.6,18.7l9.4,0.4l3.1-5.8l0.4-9.1l-0.2-6.1c0,0-5.9,0.8-4.3-9.3
			L349.8,241.4z"/>
		<path class="st3" d="M346.4,252.4c0,0-9-1.8-8.8,4.9c0.2,6.7,0.8,8.1,0.8,8.1l-0.2,10L333,278l-4.7-0.5c0,0-14.6,1.8-7.9,6.1
			c6.8,4.3,9.9-1.8,9.9-1.8s13.2,1.3,14.3-0.8C345.6,279,346.4,252.4,346.4,252.4z"/>
		<path class="st3" d="M364.3,251.4c0,0,8.8-2.2,8.7,4.5c-0.1,6.7-0.2,7.2-0.2,7.2l0.7,9.5c0,0,2.5,8.6,2.2,11.1s1.4,10.4,1.4,10.4
			s2.2,11.1-1.3,10.4c-3.5-0.6-2.9-12-2.9-12L367,277l-1.3-9.3L364.3,251.4z"/>
		<path class="st5" d="M347.9,251.4l-2.2-0.2l-1.5,11.5c0,0-4.1,4.6-0.1,9.4l0.4,7.3l20.2,1.2l2.1-7.3c0,0,3.4-5.8,0.1-11.7
			l-2.4-11.6l-1.9-0.2c0,0,2.8,16.9-6.7,16.3C348.1,265.6,347.9,251.4,347.9,251.4z"/>
		<path class="st4" d="M369,293.6l-28.9-2.9c2-4.3,3.2-6.9,3.3-7.2l0,0l0.9-2.2l0.4-0.9l0.4-1l0.5-1.3l17.9,1.3l0.4,1.2l1.3,4
			c0.1,0.1,0.3,0.1,0.4,0.2C366.9,285.8,368,289,369,293.6z"/>
		<path class="st1" d="M365.8,277.4L344,276c0,0-1.7,7.3-0.8,7.4c0.3,0,22.6,4.3,22.7,0.9C366,281.1,365.8,277.4,365.8,277.4z"/>
		<circle class="st4" cx="355.7" cy="221.8" r="5.1"/>
		<path class="st4" d="M350.2,219.9c0.3-2.6,2.4-4.5,5-4.5c-0.2,0-0.3-0.1-0.5-0.1c-2.8-0.3-5.3,1.7-5.5,4.5
			c-0.3,2.8,1.7,5.3,4.5,5.5c0.2,0,0.4,0,0.5,0C351.7,224.9,350,222.5,350.2,219.9z"/>
		<polygon class="st4" points="363.1,228.3 356.6,224 347,224.5 344.2,232.9 349.1,233.3 350.8,230.2 350.4,233.3 352.7,233.5 
			354.5,228.5 354.8,234 362.8,234.7 		"/>
	</g>
	<g>
		<g>
			<path class="st5" d="M417.3,288.2c-6.3-0.6-10.8-6.2-10.2-12.5c0.6-6.3,6.2-10.8,12.5-10.2s10.8,6.2,10.2,12.5l0,0
				C429.2,284.3,423.6,288.8,417.3,288.2z M419.5,266.5c-5.7-0.6-10.8,3.6-11.4,9.3c-0.6,5.7,3.6,10.8,9.3,11.4
				c5.7,0.6,10.8-3.6,11.4-9.3S425.2,267.1,419.5,266.5z"/>
			<circle class="st5" cx="423.5" cy="273.7" r="2.6"/>
			<circle class="st5" cx="414.7" cy="272.8" r="2.6"/>
			<path class="st5" d="M415,278.6c-1.8,7.2,6.4,9.5,6.5,0.7C421.5,279.2,415.3,278.6,415,278.6z"/>
		</g>
		<g>
			<path class="st5" d="M455,275.8c-0.5-0.6-1.5-0.7-2.1-0.2s-0.7,1.5-0.2,2.1l0,0l1.9,2.4l2.4-1.9c0.6-0.5,0.7-1.5,0.2-2.1
				C456.6,275.4,455.7,275.3,455,275.8L455,275.8z"/>
			<path class="st5" d="M446.2,274.9c-0.5-0.6-1.5-0.7-2.1-0.2s-0.7,1.5-0.2,2.1l0,0l1.9,2.4l2.4-1.9c0.6-0.5,0.7-1.5,0.2-2.1
				C447.8,274.5,446.9,274.4,446.2,274.9L446.2,274.9z"/>
			<path class="st5" d="M449.2,291.4c-6.3-0.6-10.8-6.2-10.2-12.5s6.2-10.8,12.5-10.2c6.3,0.6,10.8,6.2,10.2,12.5l0,0
				C461.1,287.4,455.5,292,449.2,291.4z M451.4,269.7c-5.7-0.6-10.8,3.6-11.4,9.3c-0.6,5.7,3.6,10.8,9.3,11.4
				c5.7,0.6,10.8-3.6,11.4-9.3C461.3,275.3,457.1,270.3,451.4,269.7z"/>
			<path class="st5" d="M446,283.2c2,3.4,6.1,4.1,8.6,0.9L446,283.2z"/>
		</g>
		<path class="st5" d="M510.5,297.5l-8.4-10.3c-2.4-3-2-7.3,1-9.8c2.8-2.3,6.9-2,9.4,0.6c3.1-2.2,7.5-1.4,9.7,1.7
			c2.1,3,1.5,7.1-1.3,9.4L510.5,297.5z M508,276.9c-3.2-0.3-6.1,2-6.4,5.2c-0.2,1.6,0.3,3.1,1.3,4.3l7.8,9.5l9.5-7.8
			c2.5-2.1,2.9-5.8,0.8-8.3s-5.8-2.9-8.3-0.8l-0.4,0.3l-0.3-0.4C511,277.9,509.6,277.1,508,276.9L508,276.9z"/>
		<g>
			<path class="st5" d="M479.7,294.1c-6.3-0.6-10.8-6.2-10.2-12.5s6.2-10.8,12.5-10.2s10.8,6.2,10.2,12.5l0,0
				C491.6,290.2,486,294.7,479.7,294.1z M482,272.4c-5.7-0.6-10.8,3.6-11.4,9.3c-0.6,5.7,3.6,10.8,9.3,11.4
				c5.7,0.6,10.8-3.6,11.4-9.3C491.8,278.1,487.7,273,482,272.4z"/>
			<path class="st5" d="M476.6,285.9c2,3.4,6.1,4.1,8.6,0.9L476.6,285.9z"/>
			<polygon class="st5" points="478.2,282.8 476.6,281.9 474.9,282.6 475.3,280.9 474.1,279.5 475.9,279.3 476.8,277.7 477.5,279.4 
				479.3,279.8 478,281 			"/>
			<polygon class="st5" points="486.3,283.7 484.8,282.7 483.1,283.5 483.5,281.7 482.3,280.3 484.1,280.2 485,278.6 485.7,280.3 
				487.5,280.6 486.1,281.8 			"/>
		</g>
	</g>
</g>
<rect x="434.8" y="284" transform="matrix(9.066411e-02 -0.9959 0.9959 9.066411e-02 77.1934 730.1134)" class="st5" width="7.2" height="77.5"/>
<rect x="454.1" y="288.2" transform="matrix(9.066416e-02 -0.9959 0.9959 9.066416e-02 68.0242 773.8262)" class="st2" width="7.2" height="122.9"/>
<g>
	
		<rect x="304.1" y="305.4" transform="matrix(9.066411e-02 -0.9959 0.9959 9.066411e-02 -36.6559 663.0051)" class="st2" width="81.3" height="92.4"/>
	<g>
		<path class="st7" d="M352.8,358.8l-4.1,12.8l5,19.1c0,0-2.9,11,3.4,11.9s1.1-11.8,1.1-11.8s-2.5-22.4-2.4-22.7s1.4-8.8,1.4-8.8
			L352.8,358.8z"/>
		<path class="st7" d="M346.7,327.4c-0.1,1.3-4.4,6.3-4.4,6.3l5.3,8.2c0,0,5.7-2.4,5.8-3.3c0.1-1,1.9-7.2,1.9-7.2L346.7,327.4z"/>
		<path class="st1" d="M343.7,332l-10.3,0.3l-3.3,1c-1.6,0.5-0.6,13.7-0.6,13.7l-4.3,29.1c0,0-2.5,3.3-2.1,5.3
			c0.5,2-2.6,7.5-2.6,7.5s9.5,5.4,18,2.9s14.1,0,14.1,0s-0.7-10.3-1.1-12.3c-0.5-2,0.1-1,0.8-2.2c0.8-1.2-0.4-9.7-0.3-10.9
			c0.1-1.3-0.5-1,0.1-1.3c0.7-0.3,1.1-4.7,1.1-4.7l8.1-11.8c0.1-1.6-7.9-11-7.9-11c-1,1.1-3.8,1.6-3.8,1.6
			C345.6,338.5,343.7,332,343.7,332z"/>
		<path class="st1" d="M351.7,359.6l6.3,1.2c0,0,0.9-3.1,2.7-5.2c1.8-2.1,0.6-7,0.6-7l-3-2.5L351.7,359.6z"/>
		<circle class="st7" cx="353" cy="325.1" r="8.3"/>
		<path class="st4" d="M361.9,325.8l-0.9,1.4c0,0-1.5-2.2-1.5-3.8c0-1.6-3.2-3.8-3.2-3.8l1,1.7l-3-0.7l0.7,1.4l-4.7-2l-0.5,1.5
			l-0.7-1.1c-0.1,0.9-1.6,2-1.6,2l0.1-1.4c-0.1,0.6-3.1,4.5-3.1,4.5l0.2-1.1c-0.3-1.2-0.2-2.5,0.1-3.7h-2.3l2.4-1.2l-0.5-1.5
			l1.5,0.1c1.2-2,2.9-3.7,4.5-5.2c2.9-2.8,5.6-1.4,5.6-1.4l-1.3,1.2c4.2,0.1,6.9,3.7,6.9,3.7l-1.5,0.4
			C363.7,319.4,361.9,325.8,361.9,325.8z"/>
		<path class="st7" d="M324.4,346.5c0,0-0.1,14.7,1.5,18.4c1.6,3.7,25.4,9.4,25.4,9.4s8.6,7.5,11.6,3.3s-7.2-6.2-7.2-6.2l-21.6-12.8
			l0,0c0.5-0.7,0.9-1.4,1-2.3c0.8-4.7-0.6-9.6-0.6-9.6L324.4,346.5z"/>
		<path class="st1" d="M335.8,348.2c0,0.3-11.5-0.4-12.5-0.5s0.1-1.6,1.7-7.9c1.5-6.3,5.1-6.6,5.1-6.6l4.8,0.4
			C334.9,333.7,335.8,347.9,335.8,348.2z"/>
	</g>
</g>
<g>
	<g>
		<path class="st5" d="M404.7,389c-6.4-0.6-11.1-6.2-10.5-12.6s6.2-11.1,12.6-10.5s11.1,6.2,10.5,12.6l0,0
			C416.7,384.8,411.1,389.5,404.7,389z M406.8,367c-5.8-0.5-10.9,3.7-11.4,9.5s3.7,10.9,9.5,11.4s10.9-3.7,11.4-9.5
			S412.5,367.5,406.8,367z"/>
		<circle class="st5" cx="410.8" cy="374.2" r="2.6"/>
		<circle class="st5" cx="401.9" cy="373.4" r="2.6"/>
		<path class="st5" d="M402.3,379.2c-1.7,7.3,6.6,9.6,6.6,0.6C409,379.8,402.7,379.3,402.3,379.2z"/>
	</g>
	<g>
		<path class="st5" d="M442.8,376c-0.5-0.7-1.5-0.7-2.2-0.2s-0.7,1.5-0.2,2.2l0,0l2,2.4l2.4-2c0.7-0.5,0.7-1.5,0.2-2.2
			C444.4,375.5,443.5,375.4,442.8,376L442.8,376z"/>
		<path class="st5" d="M433.9,375.2c-0.5-0.7-1.5-0.7-2.2-0.2s-0.7,1.5-0.2,2.2l0,0l2,2.4l2.4-2c0.7-0.5,0.7-1.5,0.2-2.2
			S434.6,374.6,433.9,375.2L433.9,375.2z"/>
		<path class="st5" d="M437.1,391.8c-6.4-0.6-11.1-6.2-10.5-12.6s6.2-11.1,12.6-10.5s11.1,6.2,10.5,12.6l0,0
			C449.1,387.7,443.5,392.4,437.1,391.8z M439.1,369.8c-5.8-0.5-10.9,3.7-11.4,9.5s3.7,10.9,9.5,11.4s10.9-3.7,11.4-9.5
			C449.1,375.5,444.9,370.4,439.1,369.8z"/>
		<path class="st5" d="M433.8,383.6c2.1,3.4,6.2,4.1,8.8,0.8L433.8,383.6z"/>
	</g>
	<path class="st5" d="M499.3,397.4l-8.7-10.4c-2.5-3-2.1-7.4,0.9-9.9c2.8-2.4,7-2.1,9.6,0.5c3.2-2.3,7.5-1.5,9.8,1.6
		c2.1,3,1.6,7.1-1.2,9.5L499.3,397.4z M496.6,376.6c-3.3-0.3-6.2,2.1-6.5,5.4c-0.1,1.6,0.3,3.1,1.4,4.4l8,9.6l9.6-8
		c2.5-2.1,2.9-5.9,0.8-8.4s-5.9-2.9-8.4-0.8l-0.4,0.3l-0.3-0.4C499.6,377.5,498.1,376.7,496.6,376.6L496.6,376.6z"/>
	<g>
		<path class="st5" d="M468.1,394.3c-6.4-0.6-11.1-6.2-10.5-12.6s6.2-11.1,12.6-10.5s11.1,6.2,10.5,12.6l0,0
			C480.1,390.2,474.4,394.8,468.1,394.3z M470.1,372.3c-5.8-0.5-10.9,3.7-11.4,9.5s3.7,10.9,9.5,11.4s10.9-3.7,11.4-9.5
			S475.9,372.8,470.1,372.3z"/>
		<path class="st5" d="M464.8,386c2.1,3.4,6.2,4.1,8.8,0.8L464.8,386z"/>
		<polygon class="st5" points="466.4,382.9 464.8,381.9 463.1,382.7 463.5,380.9 462.2,379.5 464,379.4 464.9,377.7 465.7,379.4 
			467.5,379.8 466.1,381 		"/>
		<polygon class="st5" points="474.7,383.6 473,382.7 471.4,383.5 471.8,381.7 470.5,380.3 472.3,380.1 473.2,378.5 474,380.2 
			475.8,380.5 474.4,381.8 		"/>
	</g>
</g>
<polygon class="st6" points="626.7,591.5 627.4,609.2 627.4,624.6 646.5,624.6 646.5,591.5 "/>
<polygon class="st6" points="731.9,575.4 732.6,593 732.6,608.5 751.7,608.5 748,572.4 "/>
<polygon class="st6" points="712.7,289.2 706.8,335.5 687.7,390.7 678.9,359.1 689.9,339.2 687.7,297.3 "/>
<path class="st4" d="M620.8,284.8c0,0-16.2,28.7-14,31.6s3.7,19.1,3.7,19.1h6.1l10.1-25L620.8,284.8z"/>
<circle class="st6" cx="660.9" cy="182.9" r="25.7"/>
<path class="st6" d="M651.3,203.5c0,0,14,19.1,9.6,28.7s42.7-5.1,42.7-5.1s-23.5-26.5-24.3-35.3L651.3,203.5z"/>
<path class="st8" d="M703.5,288.8c-1.7,2.5-3.3,5.3-4.9,8.2c-0.7,1.4-1.5,2.8-2.2,4.3c-8.5,17.2-15,37.6-15,37.6l-68.4-2.2l2.1-6.2
	l9.6-28.3c-16.9-10.3-0.7-30.2,8.1-48.6c8.1-16.9,24.9-28.1,27.6-29.8c0.2-0.1,0.4-0.2,0.4-0.2l0.3-0.1l12.3-2.1l22.1-3.7l0,0
	c3.9,0.7,7.6,2.1,11,4.1c2.8,1.8,5.2,4.1,6.9,6.9c2.7,4.3,3.9,9.4,4.2,14.9C718.3,259.6,710.2,278.9,703.5,288.8z"/>
<path class="st8" d="M707.6,228.1c0,0,13.2,15.4,14,28.7c0.7,13.2-2.2,38.3-8.8,38.3s-18.4,4.4-17.7,0S707.6,228.1,707.6,228.1z"/>
<path class="st4" d="M695.1,256.1l-8.1,1.5c-2.7-22-18.6-30.8-26.5-33.9c0.2-0.1,0.4-0.2,0.4-0.2l0.3-0.1l12.3-2.1
	C689.7,229.7,695.1,256.1,695.1,256.1z"/>
<path class="st4" d="M750.2,572.4c-0.7,4.4-22.1,12.5-28,11.8s-64-142.7-64-142.7s0,158.2-1.5,161.1c-1.5,2.9-26.5,0-35.3-10.3
	S606.7,420.9,603,393.7s7.4-62.5,7.4-62.5l4.7-0.7l14.4-2.2c0,0,0-3.7,22.1-21.3c22.1-17.7,35.3-49.3,35.3-49.3l2.2-4.4l5.9,2.9
	c6.3-11.7,10.3-23.2,11.5-34.4c2.8,1.8,5.2,4.1,6.9,6.9c-0.6,1.5-1.1,3.2-1.7,5c-5,15.4-10.6,39.4-16.2,62.9
	c-0.2,0.7-0.3,1.5-0.5,2.2c0.5,0.8,1,1.6,1.4,2.5c1.5,3.1,3.1,8.5-1.4,11.5c-6.6,4.4-8.8,26.5-8.8,26.5c12.5,11,15.4,63.3,14,66.9
	c-1.5,3.7-1.5,2.9,2.2,5.1s3.7,20.6,3.7,20.6S751,568,750.2,572.4z"/>
<path class="st4" d="M637.7,615.8c0,0-4.4,4.4-7.4,2.2c-2.9-2.2-3.1-11.6-3.1-11.6s-33.7-3.1-27.1,19c6.6,22.1,53,25,54.4,20.6
	s-5.1-32.4-5.1-32.4L637.7,615.8z"/>
<path class="st4" d="M742.9,599.6c0,0-4.4,4.4-7.4,2.2c-2.9-2.2-3.1-11.6-3.1-11.6s-33.7-3.1-27.1,19c6.6,22.1,53,25,54.4,20.6
	c1.5-4.4-5.1-32.4-5.1-32.4L742.9,599.6z"/>
<path class="st6" d="M639.9,272.3l-2.9,39l-37.5,41.9c0,0-12.5,5.9-5.1,16.2c7.4,10.3,10.3,11,10.3,11l0.7-13.2l50.8-40.5l5.1-54.4
	H639.9z"/>
<path class="st8" d="M663.4,256.1c0,0,2.9-33.1-11.8-30.2c-14.7,2.9-15.4,16.9-15.4,16.9s-6.6,33.8-0.7,35.3s25.7,4.4,28,0
	S663.4,256.1,663.4,256.1z"/>
<path class="st4" d="M727.2,204.6c-2.9-1.4-9.2-4.3-14.6-7.7c0.4-11.2-1-21.4-5-26.8c-2.3-5.2-7-10.3-10.8-14.4
	c-9.2-10-29.5-15.6-33-10.6c-27.2,0.5-30.1,21.9-30.1,21.9c0.1,8.9,9.4,9.2,17.5,8.9c-0.7,6.1,1.2,12.4,6.8,15.2
	c10.7,5.4,14,12.3,8.6,17.2s-15,17.7-2.1,20.9s14.5,9.7,10.7,12.3c-3.8,2.7,8.6-4.8,8.6-4.8s2.1,12.9,13.4,9.7
	c1.2-0.4,2.2-1.2,3-2.1c3,3.3,5.8,5.3,7.8,5.3c11.7,0.1,10.3-12.9,10.3-12.9s13.9,3.9,9.6,2.3c-4.3-1.6-4.5-8.2,7-14.8
	C746.4,217.6,733.6,207.8,727.2,204.6z"/>
</svg>
