<?xml version="1.0" encoding="utf-8"?>
<!-- Generator: Adobe Illustrator 24.1.0, SVG Export Plug-In . SVG Version: 6.00 Build 0)  -->
<svg version="1.1" id="b20fa69d-126b-479c-8485-104b5d95d423"
	 xmlns="http://www.w3.org/2000/svg" xmlns:xlink="http://www.w3.org/1999/xlink" x="0px" y="0px" viewBox="0 0 1135.2 712.9"
	 style="enable-background:new 0 0 1135.2 712.9;" xml:space="preserve">
<style type="text/css">
	.st0{opacity:0.1;fill:#6C63FF;enable-background:new    ;}
	.st1{fill:#BE6F72;}
	.st2{opacity:0.1;enable-background:new    ;}
	.st3{fill:#3F3D56;}
	.st4{fill:#FBBEBE;}
	.st5{fill:#E3E8F4;}
	.st6{fill:#F86D70;}
	.st7{fill:#48A1BC;}
	.st8{opacity:0.2;}
	.st9{fill:#6C63FF;}
	.st10{fill:#FFFFFF;}
	.st11{fill:#2F2E41;}
	.st12{fill:#A0616A;}
	.st13{fill:#FFB8B8;}
	.st14{fill:#F2F2F2;}
	.st15{fill:#E6E6E6;}
	.st16{fill:#EAEAEA;}
	.st17{fill:#FFB9B9;}
	.st18{fill:#EFEFEF;}
</style>
<path class="st0" d="M1128,491.1c-11.4,27.4-35.2,52.1-60.8,75.6c-22.5,20.6-46.5,40.5-72.2,59.7c-7.1,5.3-14.3,10.6-21.6,15.8
	l-5.1,3.6c-4.5,3.2-9.1,6.4-13.8,9.5l-0.6,0.4c-4.5,3.1-9.1,6.1-13.7,9.2c-15.1,9.9-31,19.7-48.6,27.9c-6,2.8-12.2,5.4-18.6,7.7
	c-3.5,1.3-7,2.4-10.6,3.5c-5.9,1.8-12,3.4-18.3,4.7c-1.1,0.2-2.1,0.4-3.2,0.6c-6.5,1.2-13.1,2.1-19.7,2.7c-24.4,2.2-49.5,0.6-74-3.2
	c-12.2-1.9-24.2-4.4-35.8-7.2c-1.4-0.3-2.8-0.7-4.3-1c-39.6-9.9-76.7-23.3-116.6-32.8c-13.7-3.3-27.7-6-42-8.3c-7-1.1-14-2.1-21-3
	c-16.6-2.1-33.3-3.4-50.2-4.1c-22.7-1-46.2-0.6-67.8,3.4c-2.9,0.5-5.7,1.1-8.5,1.8c-3.6,0.8-7.1,1.8-10.5,2.8
	c-9.2,3-18.2,6.7-26.9,11.1c-1.7,0.8-3.4,1.7-5.1,2.5l0,0c-5.3,2.7-10.5,5.5-15.8,8.1c-9.6,5-19.5,9.2-29.7,12.6
	c-5.6,1.8-11.3,3.2-17.1,4.4c-15.3,3.1-31.5,4.3-47.8,4.3c-7.9,0-15.8-0.2-23.5-0.6h-0.2c-2.7-0.1-5.3-0.3-8-0.5
	c-12.2-0.8-24.3-2.1-36.2-3.9c-40.9-6-79.7-17.3-110.9-34.6c-42.4-23.5-69.3-58.5-65.3-93.5c2.9-25.2,20.9-48.6,38-71.5
	c31.8-42.7,61.6-86.3,77.2-132.3c12.7-37.3,16.5-76.8,45.8-110.4c9.4-10.7,21.4-20.5,35.3-29.1c10.4-6.4,21.4-11.9,32.7-16.5
	c12.8-5.2,26-9.5,39.4-12.9c11.6-2.9,23.4-5.1,35.3-6.6c6.5-0.8,13-1.5,19.6-1.9c5.1-0.4,10.2-0.6,15.3-0.7h0.8
	c3.1-0.1,6.3-0.1,9.4,0c22.8,0.4,45.5,2.5,68,6.4c14.1,2.4,28,5.2,41.7,8.4c8.1,1.9,16.2,3.9,24.2,5.9c2.4,0.6,4.9,1.3,7.3,1.9
	c56.9,15.2,107,36.3,161.8,53.6c0.3,0.1,0.5,0.2,0.8,0.2l0,0c11.3,3.5,22.7,6.3,34.2,8.6c8.5,1.7,17.2,3.2,26,4.5
	c13.5,2,27.3,3.6,41.2,4.9l3.1,0.3c20.4,2,41,3.5,61,5.2c7.1,0.6,14.1,1.3,21.1,2c4.4,0.4,8.8,0.9,13.1,1.4c3.1,0.4,6.2,0.7,9.3,1.1
	s6.4,0.8,9.6,1.2c2.1,0.3,4.2,0.5,6.2,0.8c12.6,1.7,25.2,3.5,37.6,5.7c7.6,1.3,15.1,2.7,22.5,4.2c5.4,1.1,10.7,2.2,16,3.5
	c3.9,0.9,7.8,1.8,11.7,2.8c31.3,7.9,60.6,18.2,85.9,32.1C1120.5,379.3,1149.8,438.7,1128,491.1z"/>
<circle class="st0" cx="249" cy="68.8" r="21.6"/>
<circle class="st0" cx="691.1" cy="21.6" r="21.6"/>
<circle class="st0" cx="953.2" cy="70.1" r="21.6"/>
<circle class="st0" cx="36.2" cy="121.1" r="36.3"/>
<circle class="st0" cx="71" cy="300.1" r="36.2"/>
<circle class="st0" cx="1043.9" cy="234.2" r="36.3"/>
<path class="st1" d="M354.3,239.4c0.2,3,0,6.1-0.5,9.1c-2,9.3-10.5,15.7-18.7,20.5s-17.2,9.4-22.1,17.6c-5.9,9.9-4,23.1,2.9,32.4
	s17.8,14.7,29,17c20.5,4.2,43-1.7,58.3-15.9s23.1-36.4,19.3-57c-8.3,1.2-15.8-6.2-18.5-14.2s-2.1-16.6-3.2-25
	c-0.1-1.4-0.5-2.8-1.2-4c-1.2-1.6-3.2-2.3-5.2-2.8c-9.6-2.6-25.9-8.5-35.8-6.2C349.8,212.9,354.2,231.8,354.3,239.4z"/>
<path class="st2" d="M354.3,239.4c0.2,3,0,6.1-0.5,9.1c-2,9.3-10.5,15.7-18.7,20.5s-17.2,9.4-22.1,17.6c-5.9,9.9-4,23.1,2.9,32.4
	s17.8,14.7,29,17c20.5,4.2,43-1.7,58.3-15.9s23.1-36.4,19.3-57c-8.3,1.2-15.8-6.2-18.5-14.2s-2.1-16.6-3.2-25
	c-0.1-1.4-0.5-2.8-1.2-4c-1.2-1.6-3.2-2.3-5.2-2.8c-9.6-2.6-25.9-8.5-35.8-6.2C349.8,212.9,354.2,231.8,354.3,239.4z"/>
<path class="st1" d="M342.7,682.1c-9.6,5-19.5,9.2-29.7,12.6c-5.6,1.8-11.3,3.2-17.1,4.4c-0.4-7.7,0-15.4,1.2-23
	c0.8-4.4,1.9-8.7,2.2-13.1c0.4-6.4-0.9-12.8-4-18.4c11.1-1.5,21.7-4,32.9-3.3l0.7,0c1.3,0,2.6,0.3,3.9,0.7c1.7,0.8,3.2,2.1,4.2,3.7
	c0.6,0.8,1.1,1.6,1.6,2.5c3.2,5.5,4.4,11.8,4.6,18.2C343.5,671.6,343.3,676.9,342.7,682.1z"/>
<path class="st1" d="M401,657.4c-3.6,0.8-7.1,1.8-10.5,2.8c-9.2,3-18.2,6.7-26.9,11.1c-0.6-2.7-0.8-5.5-0.8-8.3
	c10.3-7.1,23.1-9.7,35.3-7.3c0.8,0.1,1.6,0.4,2.2,0.9C400.6,656.9,400.8,657.2,401,657.4z"/>
<path class="st3" d="M418.2,607c-0.7,6.5-1.7,13.1-4,19.2c-2.5,6.6-6.6,13-6.1,20c0.2,3.1,1.3,6.4,1.4,9.4c-2.9,0.5-5.7,1.1-8.5,1.8
	c-3.6,0.8-7.1,1.8-10.5,2.8c-9.2,3-18.2,6.7-26.9,11.1c-1.7,0.8-3.4,1.7-5.1,2.5l0,0c-0.7-0.1-1.4-0.2-2.1-0.3
	c-5-0.9-10.3-3.2-13.1-7.2c-0.6-0.9-1.2-1.9-1.5-3c-1.6-4.9,0.1-10.9-3.3-14.8l-0.2,0.1l-0.1,0.1c-1.9,1.7-3.9,3.2-6.1,4.4l0,0
	c-10.1,5.7-22,6.8-33,3.2c-2.1-0.7-4.2-1.7-6.2-2.8c-4.6-2.6-9-7-8.6-12.2c0.2-2.9,1.9-5.7,1.4-8.6c-0.3-2.1-1.7-3.8-2.7-5.6
	c-6.7-12,1.3-27.4-2.9-40.5c-0.1-0.3-0.2-0.6-0.3-0.9c-0.3-0.8-0.7-1.7-1-2.5c-0.9-1.9-1.8-3.8-2.6-5.8c-0.6-1.6-1.1-3.3-1.5-5.1
	c-0.9-5-1.3-10.1-1-15.2c0-13.4,2.4-27.2,5.8-40.1c0.6-2.3,1.3-5.5,2.2-9.1l0,0c0.9-3.7,2.1-7.4,3.5-10.9c2-4.6,4.7-8.3,8.4-9.1
	c5.6-1.3,14.2,1.5,19.8,2.1l22.5,2.7l44.9,5.4c7.8,0.9,15.9,2,22.3,6.4c0.4,0.3,0.8,0.6,1.2,0.9c1.7,1.3,3.2,2.9,4.5,4.6
	c0.5,0.6,0.9,1.2,1.3,1.8c1.5,2.2,2.7,4.6,3.7,7.1c5.6,13.4,5.7,28.3,5.7,42.8C419.7,576.8,419.8,592,418.2,607z"/>
<path class="st2" d="M332.1,653.3c-1.4-5.2-4.2-12.7-4.6-14.8c-1.4-6.9-2.4-13.8-3.1-20.8c-1.1-12.5-3.1-30,1.3-41.8
	c4.1,2.2,7.8,8.4,9.7,12.7c6.9,15.4-0.9,34.3,5.6,49.9c0.5,0.9,0.8,2,0.9,3c-0.1,1.3-0.6,2.6-1.4,3.7l-2.2,3.6L332.1,653.3z"/>
<path class="st1" d="M476.2,177.6c7.4-12,17.4-23.8,16.8-37.8c-0.2-5-1.9-9.9-3.1-14.8c-3.6-14.2-3.8-29-0.7-43.3
	c12.4-2,25,0.8,35.4,7.9c3.3,2.3,6.4,5.1,7.8,8.8c1.3,3.4,1.1,7.2,0.9,10.9c-0.5,8.4-1.3,17.4-6.5,24c-1.6,2.1-3.6,3.8-5.2,5.9
	c-2.3,3-3.6,6.7-4.9,10.2l-17,46.3c-8.6,23.3-17.9,47.7-36.8,63.8c-0.5,0.4-14-18.8-15.1-20.8c-4.5-7.9-2.5-11.2,2.9-17.9
	C461.5,207.7,467.3,191.9,476.2,177.6z"/>
<path class="st4" d="M281.3,571.8c-0.1,3.5-0.3,6.9-0.9,10.3c-0.2,1.3-0.4,2.5-0.6,3.8c-3.4,17.8-11.9,34.7-17.8,52.1
	c-7.8,22.9-11.3,42.8-14,65.5c-7.9,0-15.8-0.2-23.5-0.6h-0.2c-2.7-0.1-5.3-0.3-8-0.5c2.4-21.2-2-43.4,2.3-64.7
	c1.7-8.5,4.7-16.8,6.5-25.3c0.6-2.5,1-5,1.2-7.6c0.2-2.4,0.4-4.9,1.5-7.1c0.1-0.2,0.2-0.4,0.3-0.6c1-1.5,2.1-2.9,3.5-4
	c12.2-10.7,27.1-17.8,43.1-20.5C276.9,572.2,279.1,571.9,281.3,571.8z"/>
<path class="st2" d="M281.3,571.8c-0.1,3.5-0.3,6.9-0.9,10.3c-0.2,1.3-0.4,2.5-0.6,3.8c-3.4,17.8-11.9,34.7-17.8,52.1
	c-7.8,22.9-11.3,42.8-14,65.5c-7.9,0-15.8-0.2-23.5-0.6h-0.2c-2.7-0.1-5.3-0.3-8-0.5c2.4-21.2-2-43.4,2.3-64.7
	c1.7-8.5,4.7-16.8,6.5-25.3c0.6-2.5,1-5,1.2-7.6c0.2-2.4,0.4-4.9,1.5-7.1c0.1-0.2,0.2-0.4,0.3-0.6c1-1.5,2.1-2.9,3.5-4
	c12.2-10.7,27.1-17.8,43.1-20.5C276.9,572.2,279.1,571.9,281.3,571.8z"/>
<path class="st4" d="M230.6,617.3c-0.2,5.6-0.6,11.1-1.4,16.6c-2.7,22.5-3.2,46-5,68.8c-2.7-0.1-5.3-0.3-8-0.5
	c-12.2-0.8-24.3-2.1-36.2-3.9c0.9-5.1,1.8-10.3,2.8-15.4c1.1-6.3,2.3-12.7,1.9-19.1c-0.3-6-1.9-11.9-3.2-17.9
	c-2.8-12.7-4.3-26.4-8.8-38.4c-2.4-6.7-6.1-12.9-11.1-18c18.7-7.4,36.8-7.8,56.9-7c1.4-0.1,2.8,0.3,4.1,1c1,0.8,1.7,1.9,2.1,3.1
	c3,7.3,4.9,15,5.6,22.8C230.6,612.2,230.7,614.8,230.6,617.3z"/>
<circle class="st1" cx="381.6" cy="195.2" r="39"/>
<path class="st5" d="M389.7,286.3c5-8.5,9.4-19.2,19-21.5c5.4-1.4,11.1,0.5,16.4,2.3c1.5,0.4,2.9,1.2,4,2.3c0.8,1.2,1.2,2.7,1.2,4.1
	c1.7,17.6,1.6,35.4-0.2,53c-1.3,12.5-3.4,24.9-3.8,37.4c-0.5,17.4,2.3,34.7,1.4,52.1c-0.7,13.1-3.6,26.1-6.5,38.9l-12,53.8
	c-0.2,1.7-0.9,3.2-1.9,4.5c-1,0.9-2.2,1.6-3.5,2c-35.1,12.4-73.9,9.4-106.6-8.3c-4.3-2.4-8.7-5.1-11.5-9.2c-4-5.8-4.4-13.4-3.1-20.3
	s4.1-13.4,6-20.2c2.9-10.5,3.6-21.5,4.3-32.3c0.9-14.3,1.8-28.7,0.2-43c-1-9.8-3.2-19.5-4.9-29.3c-2.4-14.7-3.8-29.5-4.2-44.4
	c-0.2-8.9,0.2-18.8,6.3-25.2c3-3.1,7-5,11.1-6.5c6.8-2.5,14.5-4,21.4-1.7c6.9,2.3,12.5,9.5,10.8,16.6c-0.8,3.3-2.9,6.2-3.4,9.5
	c-0.7,4.4,1.7,8.9,5,11.9C353.2,329.2,380.7,301.8,389.7,286.3z"/>
<path class="st3" d="M391.1,246.5c5.5-2,11.4-2.4,17.1-1c3.6,0.9,7.5,2.4,10.8,0.8c1.2-0.6,2.2-1.5,3.4-2.1
	c3.3-1.5,7.6,0.3,10.5-1.8c1.8-1.3,2.4-3.8,3.1-6c3-10.5,9.2-19.8,17.6-26.7c-1,7.7-1.8,16.4,3.3,22.3c2.3,2.7,5.5,4.3,8.8,5.6
	c4.7,1.9,9.9,3.1,14.9,2.1s9.6-4.8,10.4-9.8c-0.2,7.5-7.3,12.8-9.3,20.1c-0.8,2.7-0.7,5.6-1.2,8.4c-1.4,7.1-6.4,12.8-10.9,18.5
	c-14.1,18.4-23.2,40.2-26.2,63.2c-0.2,2.7-0.8,5.4-1.7,8c-1,2-2.1,3.9-3.3,5.7c-7.3,12.4-5.1,28-2.6,42.1
	c3.9,22.1,7.8,43.8,14.1,65.4c1.1,3.7,2.3,7.5,5,10.2c-0.9,8.7-9.7,12.7-17.6,16.5c-7.8,3.7-15,8.6-21.4,14.5
	c-2.3,2.1-4.5,4.5-5.4,7.5c-0.8,2.8-0.2,5.9-1.2,8.6s-5,4.7-6.8,2.4c-2.2-8.2,1.6-16.8,1.4-25.4c-0.1-5.8-2-11.3-2.3-17.1
	c-0.3-6.5,1.7-12.9,3.7-19.1c5.7-17.2,12.5-34.3,14.5-52.3c2-18-1.7-37.7-14.5-50.5c-15.2-15.3-23.6-36.1-39.9-50.2
	c-2.6-2.2-5.5-5-5.1-8.4c0.3-1.5,1-2.9,1.9-4.1c5.6-7.9,13-14.3,19-21.9S392.2,256.1,391.1,246.5z"/>
<path class="st3" d="M337.7,262.6c-1,1-1.7,2.4-2.8,3.2c-1.4,0.8-2.9,1.3-4.5,1.4c-5.9,0.9-11.8,1.4-17.8,1.6c-5,0-10.2-0.4-15,0.9
	c-6.7,1.9-12.1,7.2-15.4,13.3s-5,13-6.2,19.9c-2.8,15.1-4.4,30.5-4.5,45.9c8.2-6.6,15.6-14.2,21.9-22.7c4.8-6.5,9.1-13.7,16-18.1
	c3.1-2,6.7-3.3,9.9-5.3c6.6-4.1,11.2-10.6,15.6-17c3.2-4.7,12.6-13.9,13.4-19.5C348.7,260.9,341.2,258.2,337.7,262.6z"/>
<path class="st3" d="M372.6,168.5c1.2,0.7,2.4,1.6,3.5,2.5c6.8,4.7,15.9,3.9,24.1,2.8c2.5-0.3,5.1-0.7,7.3-2
	c3.5-2.1,5.1-6.5,4.8-10.6c-0.3-4.1-2.4-7.8-4.9-11c-6.7-8.5-16.6-13.9-27.3-14.9c-2.8-0.4-5.6-0.1-8.2,0.9
	c-3.2,1.3-5.7,4.1-8.6,5.9c-8.8,5.4-22.3,3-28,11.6c-4.2,6.4-1.2,15-3.2,22.3c-1.5,5.5-5.7,10.4-4.9,16c0.5,3,2.3,5.6,3.8,8.3
	c3.4,6.2,5,13.2,4.6,20.2c3.8,2.7,9.2-1.5,10.3-6.1s-0.2-9.5,0.8-14.1c1.6-8.1,8.8-14.1,12-21.5
	C360.9,173.4,364.7,164.4,372.6,168.5z"/>
<path class="st4" d="M278,257.3c-0.3,1.8-0.5,3.8,0.5,5.4c2,3,6.6,1.9,10.2,2.4c5.6,0.7,9.8,6,10.8,11.6c1.1,5.6-0.2,11.3-1.6,16.7
	c-3.2,12.4-7,24.7-11.5,36.7c-11.9-1.4-24.5-6-30.8-16.2c-5.8-9.3-5.2-21.1-8.8-31.4c-2.6-7.2-7.2-13.5-11.7-19.7
	c7.3,0.9,12.6-7.5,13-14.8s-1.9-14.9-0.3-22.1c0.4-1.7,29.3,3.7,32.1,5.6C287.9,237.1,279.3,249.4,278,257.3z"/>
<path class="st2" d="M278,257.3c-0.3,1.8-0.5,3.8,0.5,5.4c2,3,6.6,1.9,10.2,2.4c5.6,0.7,9.8,6,10.8,11.6c1.1,5.6-0.2,11.3-1.6,16.7
	c-3.2,12.4-7,24.7-11.5,36.7c-11.9-1.4-24.5-6-30.8-16.2c-5.8-9.3-5.2-21.1-8.8-31.4c-2.6-7.2-7.2-13.5-11.7-19.7
	c7.3,0.9,12.6-7.5,13-14.8s-1.9-14.9-0.3-22.1c0.4-1.7,29.3,3.7,32.1,5.6C287.9,237.1,279.3,249.4,278,257.3z"/>
<circle class="st4" cx="271.6" cy="206.2" r="39"/>
<path class="st3" d="M259.6,251.7c1.4-2.2-1-5.3,0.1-7.7c0.7-1.4,2.3-2.1,3.6-3c1.6-1.3,2.9-3,3.8-4.9c6.1-11.7,7.9-25.1,5.2-38
	c-0.9-4.3-1.7-10.1,2.2-12c1.1-0.5,2.3-0.7,3.5-0.6c7.1,0.2,14,5,20.9,3.3c4.8-1.3,8.3-5.5,8.8-10.5c0.5-6.5-4.4-12-9.1-16.4
	c-8.6-7.9-21.6-9.6-33.3-9.8l-21.6-0.4c-6.9-0.1-14.7,0.1-19.5,5.1c-6.9,7.2-3.4,18.8-4.4,28.8c-0.9,7.9-4.8,15.2-11,20.1
	c-4.5,3.6-10.7,7-10.6,12.7c0,2,0.9,3.8,1.4,5.7c2.2,7.5,0.1,15.8-4.1,22.3s-10.4,11.6-16.9,16c-3.4,2.4-7,4.6-9.7,7.8
	c-3,3.7-4.8,8.2-5.1,12.9c-0.4,3.6,0.3,7.3,2.1,10.4c4.2,6.8,14.4,7.8,21.3,3.8s11.2-11.3,14-18.8c1.7-4.4,3.4-9.5,7.7-11.5
	c5.4-2.5,11.8,1.5,15.3,6.3s5.7,10.8,10.2,14.7c7.1,6.2,19.2,5.2,25.2-2.1c4.3-5.2,5.2-12.4,5-19.2
	C264.5,261.5,262.7,256.2,259.6,251.7z"/>
<path class="st6" d="M273.6,302.5c-4.5,1-9.1-1.1-12.4-4.3s-5.5-7.2-7.9-11.1c-5.9-9.9-12.6-19.2-20.1-27.9
	c-6.6-7.6-15.7-15.3-25.4-12.9c-3.3,0.9-6.3,2.6-8.9,4.8c-17.5,13.8-26.6,35.6-24.2,57.8c0.8,6.4,2.5,12.6,3.2,19
	c0.5,5.3,0.6,10.6,0.4,15.9c-0.3,16.1-0.8,33.2-9.5,46.8c-13.5,21-20.7,46.1-30.6,69c-5.3,12.4-8.5,25.6-11.7,38.7
	c-1.9,7.8-3.7,15.6-5.6,23.3l-12.1,50.9c-1.2,5.2-2.5,10.8-1.2,16c2,7.8,9.4,13.3,17.1,15.5s16,1.8,24.1,1.9
	c15.4,0.2,31,2.1,45.5,7.4c4.1,1.5,8.3,3.4,12.7,3.7s8.8-0.8,12.9-2.4c11.3-4.4,20.9-12,31.3-18.2c6.5-3.9,13.3-7.2,20.4-9.9
	c3.6-1.3,7.4-2.6,9.8-5.5c1.9-2.2,2.7-5,3.3-7.8c3.4-15.8,1.1-32.1,0-48.2s-10.7-33.1-2.8-47.1c1.6-2.8,3.5-5.5,4.3-8.7
	c1.1-4.1,0.2-8.5,1.1-12.7c0.7-3.1,2.3-5.8,3.4-8.7c1.9-5.2,2.2-10.8,2.2-16.3c0-12.1-1.3-24.2-3.8-36c-3.2-15,7.3-29.8,13.2-44
	c2.1-5.1,5.2-9.9,6.1-15.3c0.8-4.9-0.2-9.9-1-14.8c-1.1-7.6-1.6-15.3-1.4-23c0.2-6.9,0.9-13.9-0.7-20.6s-6.4-13.2-13.1-14.6
	c-1.5-0.5-3.2-0.2-4.5,0.7c-0.8,0.8-1.3,1.7-1.6,2.8c-2.2,6.7-1.8,14-3,21C281.9,294.7,280.5,301,273.6,302.5z"/>
<path class="st1" d="M179.2,345.4c0.4-2.8-0.9-6.5-3.7-6.4c-2.6,0.1-3.7,3.3-3.7,5.9s0.4,5.6-1.5,7.4c-1.6,1.6-4.3,1.6-6.2,2.9
	c-1.3,1-2.1,2.5-2.1,4.2c0,1.4,0.6,2.7,0.7,4.1s-0.9,3-2.3,2.9c-1.5,2.4-1.1,5.6,0.9,7.6c0.7,0.7,1.7,1.3,1.9,2.3
	c0.1,0.7,0,1.4-0.2,2c-0.4,2.8,1.5,5.8,4.2,6.1c-1.6,1.1-1.2,3.7,0.2,5s3.5,1.5,5.4,1.5c4.3,0,8.6-0.9,12.6-2.6
	c1.4-0.5,2.6-1.3,3.5-2.4c0.9-1.2,0.7-2.8-0.3-3.9c1.9,0.3,4.3,0.5,5.5-1c1.8-2.1-0.1-5.2-2-7.2c2.2-0.3,3.7-2.4,3.4-4.5
	c-0.2-1-0.7-1.9-1.5-2.6c-0.6-0.5-1.5-0.9-1.6-1.7s0.6-1.3,0.9-2c0.6-1.6-0.8-3.2-2.2-4.1c-3.3-2.2-8.3-2.2-11.2-4.4
	S178.8,348.4,179.2,345.4z"/>
<path class="st4" d="M764.8,211.3c1.5,3.9,1.5,8.1,1.3,12.3c-0.3,5.1-1.5,11-6.2,12.9c-3.1,1.2-6.8,0.3-9.6,2.2
	c-3.3,2.2-3.1,7.1-2.6,11c1.4,10.8,3,22.1,8.9,31.2c3.2,4.9,7.5,9,11.8,12.9c8.7,7.8,18.2,15.5,29.6,18.1c1.9,0.5,3.8,0.6,5.7,0.2
	c1.9-0.6,3.6-1.6,4.9-3c6.6-6.1,10-14.7,14.4-22.5c3.1-5.6,6.8-11,8.6-17.2c2.9-11-0.6-22.7-9.2-30.3c-2-1.7-4.1-3.1-6-4.8
	c-4.9-4.5-7.8-10.9-9-17.5s-1-13.3-0.4-20c-10-0.8-19.9,0.4-29.7,2.4c-4.3,0.9-10.5,1.3-14.4,3.3C758.4,205,763.6,208,764.8,211.3z"
	/>
<path class="st2" d="M764.8,211.3c1.5,3.9,1.5,8.1,1.3,12.3c-0.3,5.1-1.5,11-6.2,12.9c-3.1,1.2-6.8,0.3-9.6,2.2
	c-3.3,2.2-3.1,7.1-2.6,11c1.4,10.8,3,22.1,8.9,31.2c3.2,4.9,7.5,9,11.8,12.9c8.7,7.8,18.2,15.5,29.6,18.1c1.9,0.5,3.8,0.6,5.7,0.2
	c1.9-0.6,3.6-1.6,4.9-3c6.6-6.1,10-14.7,14.4-22.5c3.1-5.6,6.8-11,8.6-17.2c2.9-11-0.6-22.7-9.2-30.3c-2-1.7-4.1-3.1-6-4.8
	c-4.9-4.5-7.8-10.9-9-17.5s-1-13.3-0.4-20c-10-0.8-19.9,0.4-29.7,2.4c-4.3,0.9-10.5,1.3-14.4,3.3C758.4,205,763.6,208,764.8,211.3z"
	/>
<path class="st4" d="M709,240.7c-16.2-5.6-24-27.3-41-29.8c-2.7-0.4-5.4-0.2-8.1-0.9c-9.8-2.3-14-13.6-16.8-23.3
	c-9.5-32.2-22-63.6-39.7-92.2c-7.5-12-19.3-21.9-24.7-35c-1.2-3-1.9-6.4-4.1-8.8s-7-2.7-8.2,0.3c-0.3,1.1-0.4,2.2-0.2,3.3l1.2,12.4
	L547,65.1c-1.9-0.3-3.8-0.2-5.6,0.4c-2,1-3.5,2.6-4.4,4.6c-6.9,12.9,0.5,29.9,12.6,38.1c14.2,9.6,34.4,11,43.8,25.2
	c5.6,8.5,5.7,19.4,9.4,28.9c1.8,4.5,4.3,8.7,6.4,13.1c3.9,8.4,5.9,17.5,8.9,26.2c4.3,12.5,10.8,24.1,17.2,35.6
	c4.9,8.9,10,18,17.6,24.8c5,4.5,10.9,7.8,16.8,11c14.5,7.9,31.5,15.5,46.8,9.4C717.4,268.8,714,253.5,709,240.7z"/>
<path class="st4" d="M758.3,671.2c-1.2,13-9.2,24.9-11,37.4c-12.2-1.9-24.2-4.4-35.8-7.2c-1.4-0.3-2.8-0.7-4.3-1
	c6.6-18,0.8-38.2,2.6-57.3c0.2-1.8,0.4-3.7,0.7-5.5c15.1-5.1,28.7-12,44.5-10c0.3,3.2,0.6,6.4,0.9,9.6c0.6,6.4,1.3,12.8,1.9,19.2
	C758.4,661.3,758.6,666.3,758.3,671.2z"/>
<path class="st4" d="M862.5,703.9c-5.9,1.8-12,3.4-18.3,4.7c-1.1,0.2-2.1,0.4-3.2,0.6c-6.5,1.2-13.1,2.1-19.7,2.7
	c-0.7-13.9-10-26.7-11.4-41c-0.3-3.5-0.2-7.1,0.1-10.7c0.1-1.4,0.3-2.8,0.4-4.2l2.8-28.8c2.2-0.3,4.5-0.4,6.8-0.3
	c13,0.3,24.8,5.9,37.7,10.3c1,6.1,1.3,12.2,1,18.4c-0.5,15.6-3,31.4,2.8,45.8C861.8,702.2,862.2,703,862.5,703.9z"/>
<path class="st6" d="M693.7,484.5c1.8,13.6-5.2,26.7-8.2,40.1c-2,8.9-2.3,18-2.5,27.1l-1.6,54.5c-0.2,5.5-0.3,11,1.4,16.2
	c3.3,10.5,13.6,17.6,24.3,20.1s21.9,1.2,32.8-0.2c5.3-0.7,10.9-1.5,15.4-4.6c6.1-4.2,8.8-11.8,11-18.9l6.5-19.9
	c7.5,16.8,4.3,35.2,8.8,53.1c0.3,1.7,1,3.2,2,4.5c1.9,2.1,5,2.4,7.8,2.6c19.6,1.4,39.5,2.8,58.8-1c5.3-1,10.8-2.6,14.5-6.6
	c4.3-4.6,5-11.4,5-17.7c-0.3-21.6-8.1-42.5-9.8-64c-0.8-9.2-0.4-18.5-0.7-27.8c-0.3-7-0.9-13.9-2-20.8c-0.3-3.2-1.2-6.2-2.6-9.1
	c-3-5.6-9.2-8.6-15.1-11C793.6,482.5,743.2,482.7,693.7,484.5z"/>
<circle class="st4" cx="778.6" cy="173.2" r="43"/>
<path class="st5" d="M816.1,248.9c-3.2,7-8.2,14-15.7,15.8c-6.9,1.6-14.2-1.7-19.2-6.6s-8.4-11.3-11.9-17.5c-2.6-4.5-5.4-9-9.7-11.8
	c-5.9-3.8-13.6-3.7-20.5-2.6s-13.9,3.1-21,2.7c-8.8-0.6-17.8-5-26.2-2.1c2.7,12.1,1.7,25.4,1.4,37.7c0.1,1.9-0.2,3.8-0.8,5.6
	c-0.7,1.7-1.7,3.3-2.9,4.7l-8,10.3c8.6,6.4,16,14.8,19,25.1c1.7,5.9,1.2,12.1,1.1,18.2c-0.2,17.9,3.7,35.8,2.5,53.6
	c-1.4,20.9-9.8,40.7-14.1,61.2c-3.7,17.6-4.4,35.7-2.1,53.6c44.8,15.5,91,23.5,138.4,26c8.4,0.5,17.4,0.5,24.3-4.3
	c5.7-4,8.9-10.8,10-17.8s0.3-13.9-0.4-20.9c-2.1-18.8-4.1-37.5-6.2-56.3c-1.2-10.7-2.3-21.4-1.6-32.1c0.6-8,2.2-15.9,3.8-23.7
	l10-48.1c1.4-6.8,2.9-13.7,5.7-20.1c2.3-5.2,5.5-10,8.1-15.1c3.1-6.1,5.2-12.6,6.2-19.3c0.4-1.9,0.4-4-0.1-5.9
	c-1.1-3.3-4.3-5.2-7.4-6.9c-18.6-9.8-38.5-16.8-59.2-20.8C818.3,237.9,818.6,243.4,816.1,248.9z"/>
<path class="st3" d="M811.9,220.1c5-9.6,14.3-16.3,19.8-25.7c6.1-10.8,6.5-23.8,1.2-35c-1.9-3.9-4.5-7.5-6-11.6
	c-1.7-4.6-1.8-9.8-3.8-14.3c-2.7-6.2-8.4-10.7-14.6-13.3s-13-3.5-19.7-4.4l-22.7-3.1c-3.3-0.4-6.7-0.9-9.9,0s-6.2,3.5-6.4,6.8
	c-0.3,3.9,3.1,7.6,2.3,11.4c-0.3,1.4-1.1,2.7-0.6,4.1c0.4,0.9,1.1,1.6,2,2c5.4,3,11.8,3.3,17.7,5.2s11.7,6.9,11.1,13
	c-0.3,3.3-2.4,6.7-1,9.7c1.4,2.7,5,3.2,7.9,4.1c9.3,2.7,15.9,12.9,14.5,22.5c-0.4,3-1.5,5.9-1.7,8.9c-0.7,10.5,0.9,13.5,9.5,19.7
	L811.9,220.1z"/>
<path class="st1" d="M870.3,265.7c0,2-0.3,4-1.1,5.8c-3.1,6.6-12.7,6.2-19,10c-7.9,4.7-9.6,15.2-10.3,24.3
	c-0.8,10.4-1.4,20.9,0.7,31s7.2,20,15.7,26c10.4,7.2,24.5,7.5,36.3,3.1s21.7-12.9,30.3-22.2c8.1-8.8,15.4-18.6,19.8-29.8
	c0.8-2,1.5-4.1,0.8-6.1c-0.9-3-4.2-4.4-6.9-6c-6.2-3.8-10.3-10.3-12.5-17.2s-2.5-14.3-2.6-21.5c-0.1-7.5-0.1-15.8-4.9-21.6
	s-13.1-7.4-20.7-7.4c-6.2,0-23.4,0.6-27.6,6C865,244.7,870.6,259.3,870.3,265.7z"/>
<path class="st2" d="M870.3,265.7c0,2-0.3,4-1.1,5.8c-3.1,6.6-12.7,6.2-19,10c-7.9,4.7-9.6,15.2-10.3,24.3
	c-0.8,10.4-1.4,20.9,0.7,31s7.2,20,15.7,26c10.4,7.2,24.5,7.5,36.3,3.1s21.7-12.9,30.3-22.2c8.1-8.8,15.4-18.6,19.8-29.8
	c0.8-2,1.5-4.1,0.8-6.1c-0.9-3-4.2-4.4-6.9-6c-6.2-3.8-10.3-10.3-12.5-17.2s-2.5-14.3-2.6-21.5c-0.1-7.5-0.1-15.8-4.9-21.6
	s-13.1-7.4-20.7-7.4c-6.2,0-23.4,0.6-27.6,6C865,244.7,870.6,259.3,870.3,265.7z"/>
<path class="st1" d="M817,533.9c0.3,1.5,1,2.9,2.1,4.1c1,0.8,2.1,1.3,3.4,1.6c32.8,9.6,67.9,5.8,101.9,1.9
	c-4.7-14.2-9.3-28.5-10.6-43.3c-1.1-12.2,0.1-25-4.2-36.5c-1.3-3.4-75.9,12.2-83.2,13.5c-3.8,0.7-8.1,0.4-10.8,3.4
	c-3.2,3.6-3.5,12.2-3.8,16.8C810.7,508.3,813.4,521.4,817,533.9z"/>
<path class="st1" d="M891.7,692.6c-6,2.8-12.2,5.4-18.6,7.7c-3.5,1.3-7,2.4-10.6,3.5c-5.9,1.8-12,3.4-18.3,4.7
	c-3.6-9.2-7.2-18.4-10.9-27.5c-2.7-6.8-5.3-13.5-7.6-20.5c-1.6-4.7-2.8-9.5-3.8-14.4c-3.3-16.5-2.4-33.6,2.5-49.8
	c13.9,2.6,27.4,4.3,41.1,6.3c7.3,1,14.6,2.2,22,3.6c0.6,4.8,1.1,9.6,1.6,14.5c0.7,7.4,1.3,14.9,1.8,22.3
	C891.8,659.5,892.1,676.1,891.7,692.6z"/>
<path class="st2" d="M891.7,692.6c-6,2.8-12.2,5.4-18.6,7.7c-3.5,1.3-7,2.4-10.6,3.5c-5.9,1.8-12,3.4-18.3,4.7
	c-3.6-9.2-7.2-18.4-10.9-27.5c-2.7-6.8-5.3-13.5-7.6-20.5c-1.6-4.7-2.8-9.5-3.8-14.4c-3.3-16.5-2.4-33.6,2.5-49.8
	c13.9,2.6,27.4,4.3,41.1,6.3c7.3,1,14.6,2.2,22,3.6c0.6,4.8,1.1,9.6,1.6,14.5c0.7,7.4,1.3,14.9,1.8,22.3
	C891.8,659.5,892.1,676.1,891.7,692.6z"/>
<path class="st1" d="M968.6,649.3c0.1,5.8-1.6,11.6-3.1,17.3c-0.1,0.4-0.2,0.8-0.3,1.2c-3.6-1.1-6.7-3.5-8.8-6.6
	c-1.1-1.7-1.9-3.6-2.4-5.5c-4.5,3.1-9.1,6.1-13.7,9.2c-15.1,9.9-31,19.7-48.6,27.9c-6,2.8-12.2,5.4-18.6,7.7
	c-1.3-4.7-2.6-9.4-3.8-14.1c-1.3-4.9-2.3-9.8-3.1-14.8c-1.5-11.3-0.3-22.8,3.3-33.7l0,0l0.5-1.3c1.7-4.8,3.9-9.4,6.5-13.8
	c2.5-4,7.4-3.3,12.5-2c2.3,0.6,4.6,1.3,6.7,1.7c13.1,2.7,26.6-0.1,40,0.7c6.4,0.3,12.6,1.9,18.3,4.7c6.4,3.2,11.6,8.2,13.6,15
	c0.3,1,0.5,2,0.7,3C968.5,646.9,968.6,648.1,968.6,649.3z"/>
<path class="st1" d="M728.1,188.8c-20.7-20-44.1-36.9-68.1-52.8c-6.2-3.9-12.3-8.2-18-12.8c-6-5-11.2-10.9-17.6-15.4
	s-14.2-7.6-21.9-6.1s-14.4,8.8-13.3,16.5c1,6.7,7.1,11.4,12.7,15.2c10.6,7.3,21.2,14.7,32.8,20.4c4,1.8,7.9,3.9,11.6,6.2
	c7.2,4.8,12.4,12,17.8,18.7c20.5,25.5,45.6,46.8,74,63c0.3,0.2,12.2-25.3,11.7-28.6C748.6,205.4,733.5,194,728.1,188.8z"/>
<path class="st3" d="M904.7,511.9c-15.9,1-31.2,6.4-46.8,9.8s-32.5,4.8-47-2l8.8,60.1c0.5,3.3,1,6.8,0.3,10
	c-0.7,3.1-2.4,6.1-2.3,9.3c0.2,5.1,5,8.7,9.5,11c13,6.9,27.7,10.3,42.4,9.8c-1.1,4.4-2.5,8.8-3.5,13.2c7.3,7.9,19.4,8.4,29.9,10.9
	c8,1.9,15.5,5.2,23.3,7.5c9.5,2.8,19.3,4.2,29.2,4.1c6.7-0.1,13.7-1,18.9-5.2c6.4-5.1,8.3-13.8,9.7-21.9c0.8-4.5,1.5-9.1,1-13.6
	c-0.5-5.2-2.5-10.2-4.5-15l-13.7-33.3c-2.5-6-5-12.1-8-17.9C942,530,925.8,510.6,904.7,511.9z"/>
<path class="st7" d="M916.9,304.3c2.4-6.4,8.9-10.3,15.7-9.6c4,0.6,7.6,2.8,11,4.9l19.1,11.9c3.2,1.9,6.2,4,9.1,6.3
	c13.2,10.9,18.2,28.9,19.7,45.9c1.5,17,0,34.4,3.4,51.2c-8.1,6.7-17,12.3-25.1,19c-4.2,3.5-8.5,7-11.7,11.5c-2.5,3.5-4.3,7.6-7,11
	c-4.3,5.4-10.6,8.9-17.5,9.7c4.4,2.5,6.8,7.5,8,12.4s1.5,10,2.8,14.9c1.8,6.7,5.5,12.8,6.8,19.6c0.9,4.7,0.5,9.5,0.8,14.3
	c1.6,24.6,20.9,46.2,19.6,70.8c-9.1-3.3-17.8-7.9-25.7-13.5c-3.6-2.5-7-5.3-10.4-8.1l-25.5-20.7c-12.4-10-24.9-20.2-34.8-32.8
	c-6.2-7.9-11.2-16.6-17.4-24.5s-13.8-15-23.3-18.3c-1.4,2.1-3.9,3.5-5.2,5.6c-0.2,0.3-0.4,0.7-0.6,1.1c-0.2,0.9-0.1,1.9,0.3,2.8
	c1.1,4,1.8,8.2,2,12.4l0.6,7.5c0.2,2,0.2,4,0,6c-1,6.4-6.9,11.4-13.3,12.4c-0.9,0.2-1.9,0.2-2.8-0.1c-1.8-0.6-2.8-2.5-3.3-4.3
	c-2.5-8.5,1.3-17.5,1.7-26.4c0-2.3,0-4.5-0.2-6.8l-0.6-8.9c-5.8-1.2-9.2-7.5-10.7-13.2c-4.2-15.5-8.3-31.5-5.9-47.3
	c0.6-4.2,1.8-8.5,1-12.8c-1-5.7-5.1-10.3-7.2-15.6c-7-17.4,7.9-36.3,6.5-55c-0.6-7.9-5.6-14.7-8.6-22c-1.6-4.2-3.6-8.3-6-12.1
	c-3.1-4.4-7.2-7.9-11.2-11.4c-12.4-10.9-24.1-22.4-35.2-34.7c-5.7-0.6-11-3-15.2-6.9c-2.6-2.5-4.8-5.8-4.9-9.4s2.6-7.4,6.2-7.6
	c2.1-0.1,4.1,0.9,6.2,1.4c6.5,1.4,13-3.4,15.9-9.3s2.9-12.9,2.8-19.5c6.4-1.1,13,1.2,17.3,6.1c4.5,4.9,7.4,10.9,10.9,16.5
	c1.4,2.5,3.3,4.7,5.4,6.6c4.8,3.8,11.7,4.5,15.9,9c2.1,2.3,3.3,5.3,5.3,7.7c5.5,6.9,15.5,7.7,23,12.2s12.7,12.8,21,15.5
	c3,1,6.3,1.1,9.2,2.2c6.9,2.5,11,9.8,12,17.1s-0.7,14.6-2.3,21.7l-3.8,16.7c-0.8,3.7-1.5,8.1,1.2,10.8c1.3,1.1,2.8,1.8,4.4,2.2
	c7,2.3,14.8,4.5,21.4,1.3c3.1-1.5,5.5-4.1,7.8-6.8C905.4,333.5,911.9,318.4,916.9,304.3z"/>
<path class="st1" d="M995.8,644.3c-1.4,9.2-6.4,18.2-14.7,22.3c-4.9,2.4-10.7,2.8-15.9,1.1c-3.6-1.1-6.7-3.5-8.8-6.6
	c-1.1-1.7-1.9-3.6-2.4-5.5c0-0.1,0-0.2-0.1-0.3c-0.8-3.5-1.1-7.2-0.9-10.8c0-5.6,0.3-11.2,1-16.8c0.6-4.7,1.5-9.3,2.8-13.9
	c1.9-6.5,4.5-12.7,7-19c1.3-3.3,2.5-6.6,3.5-10l0,0c0.6-2,1.1-4.1,1.5-6.1l0.2-0.8c0.1-0.4,0.2-0.8,0.2-1.3c1-5.7,1.3-11.6,3.9-16.8
	c6-12.1,17.7-9,19.5,2.2c0.1,0.9,0.2,1.7,0.2,2.6c0.3,14.1-5.3,27.9-2.8,42.1c0.7,3.5,1.6,6.9,2.7,10.2c0.9,3.1,1.7,6.2,2.3,9.4
	C996.3,632.3,996.6,638.4,995.8,644.3z"/>
<path class="st7" d="M1001.3,487.4c0.3,5.8,0,11.6,1.2,17.3c2.7,13.4,13,25.3,11.9,38.9c-0.3,3.3-1.5,6.9-4.4,8.5s-7.7,1.5-8.7,4.8
	c-0.3,0.9-0.1,1.9-0.4,2.8c-0.6,1.9-3,2.8-5,2.7s-4-0.7-6.1-0.5c-7.2,0.6-9.9,10.3-16.4,13.6c-4.3,2.2-10,1-13.6-2.3
	s-5.2-8.5-4.9-13.4c0.2-3.7,1.4-7.2,2-10.9c1.1-6.5,0.5-13.1,0-19.7c-0.9-9.6-1.8-19.3-4.9-28.5c-1.5-4.3-3.5-8.4-4.8-12.8
	c-1.8-6.2-2.3-12.7-2.5-19.1c-0.4-13.5,0.5-28,8.6-38.9c6.1-8.2,14.8-14.8,21.6-22.3c4.3-4.7,5.5-6.2,10.3-2.2
	c3.9,3.3,8,7.8,8.4,12.3c1.2,11.4,0,22.7,2.1,34.3S1000.8,475.5,1001.3,487.4z"/>
<circle class="st1" cx="897.6" cy="216.2" r="51"/>
<path class="st3" d="M944.3,313.8c1.1-1.6,2.5-3.3,4.3-3.6c1.4-0.1,2.9,0.2,4.1,0.9l13.4,5.6c3.6-6,5.8-12.8,6.2-19.8
	c0.3-4.3-0.1-8.6,0.8-12.9c1.2-6.3,4.9-11.9,5.8-18.2c0.7-5.1-0.5-10.2-1.3-15.3c-2.3-15.7,0.2-31.8-1.1-47.6s-7.7-32.8-21.8-40.1
	c-4-2-8.3-3.2-12.5-4.8c-9.3-3.5-17.6-9.2-26.7-13s-19.9-5.6-28.8-1.2s-14,16.7-8.3,24.8c1.9,2.6,4.7,4.5,7.3,6.4
	c5.4,3.9,10.9,8.6,12.2,15.2c2.2,11.8-10,21-13.5,32.5c-1.3,4.5-1.4,9.2-0.3,13.8c1.5,6.8,5.1,13.3,5,20.2
	c-0.1,7.6-4.7,14.6-5.5,22.2c-0.3,2.8-0.1,5.6-0.5,8.4c-0.6,3.7-1.7,7.2-3.2,10.6c-8,20-16.1,40.2-28,58.2
	c12.7,0.2,25.3-2.7,36.6-8.6c-1.6,7.7-4.7,15-9.2,21.5c10.2-1.2,20-4.6,28.7-10c-2.1,7.6-5.2,14.8-9.1,21.6c0.3-0.6,6.6-2,7.8-2.7
	c2.4-1.4,4.3-3.4,5.5-5.9c3.4-6.1,5.5-13.4,8.7-19.7C927.7,339.1,935.5,326.1,944.3,313.8z"/>
<g class="st8">
	<path class="st3" d="M549,656.2c0,1.1-0.2,2.2-0.4,3.2c-7-1.1-14-2.1-21-3c0-0.3,0-0.6,0-0.9c0.1-3,0.9-5.9,2.5-8.5
		c2.1-3.3,5.2-5.3,8.6-5.2s6.4,2.3,8.3,5.7C548.4,650.3,549.1,653.2,549,656.2z"/>
	
		<ellipse transform="matrix(3.158516e-02 -0.9995 0.9995 3.158516e-02 -116.6992 1157.1862)" class="st3" cx="538.8" cy="638.8" rx="14" ry="10.7"/>
	
		<ellipse transform="matrix(3.158516e-02 -0.9995 0.9995 3.158516e-02 -99.0589 1141.1517)" class="st3" cx="539.4" cy="621.7" rx="14" ry="10.7"/>
	
		<ellipse transform="matrix(3.158516e-02 -0.9995 0.9995 3.158516e-02 -81.4284 1125.1075)" class="st3" cx="539.9" cy="604.6" rx="14" ry="10.7"/>
	
		<ellipse transform="matrix(3.158516e-02 -0.9995 0.9995 3.158516e-02 -63.7881 1109.073)" class="st3" cx="540.4" cy="587.5" rx="14" ry="10.7"/>
	<path class="st9" d="M504,469c-1.4-1.9-2.7-3.9-3.8-6l28.3-3.7l-30.4-0.7c-5.5-13-5.4-27.7,0.3-40.6l40.1,22.5l-36.8-28.8
		c14.9-24.1,46.5-31.5,70.6-16.6c24.1,14.9,31.5,46.5,16.6,70.6c-1.3,2.1-2.8,4.2-4.4,6.1c2.2,3,4.1,6.2,5.5,9.5l-37.1,17.8
		l39.3-11.8c5,16.6,1.3,34.6-9.8,47.9c16.8,22.8,11.9,54.9-10.9,71.7s-54.9,11.9-71.7-10.9c-14-19.1-13.2-45.3,2-63.4
		C488,513.3,488.8,487.1,504,469L504,469z"/>
	<path class="st2" d="M594.6,503.6c-0.4,11.5-4.6,22.5-12,31.3c16.8,22.8,11.9,54.9-10.9,71.7s-54.9,11.9-71.7-10.9
		c-14-19.1-13.2-45.3,2-63.4C495.5,523.4,594.8,497.8,594.6,503.6z"/>
</g>
<g>
	<path class="st3" d="M629.5,94.4h-0.4V84.1c0-3.3-2.7-6-6-6h-21.9c-3.3,0-6,2.7-6,6v56.6c0,3.3,2.7,6,6,6h21.9c3.3,0,6-2.7,6-6
		v-38.9h0.4L629.5,94.4z"/>
	<path class="st10" d="M627.9,84.1v56.5c0,2.5-2,4.5-4.5,4.5h-22c-2.5,0-4.5-2-4.5-4.5V84.1c0-2.5,2-4.5,4.5-4.5h2.7
		c-0.4,1.1,0.1,2.3,1.2,2.8c0.3,0.1,0.5,0.2,0.8,0.2h12.5c1.2,0,2.1-1,2.1-2.1c0-0.3-0.1-0.5-0.2-0.8h2.9
		C625.9,79.7,627.9,81.6,627.9,84.1z"/>
	<path class="st9" d="M620.8,108.5c-0.1,0.1-0.3,0.1-0.4,0.2c-0.1,0.1-0.3,0.1-0.4,0.2c-0.1,0-0.1,0-0.2,0.1
		c-0.4,0.2-0.8,0.3-1.3,0.4c-0.2,0-0.4,0.1-0.7,0.1c-0.2,0-0.4,0-0.6,0c-0.1,0-0.3,0-0.4,0c-0.5,0-1.1,0-1.6-0.1
		c-0.1,0-0.3-0.1-0.4-0.1c-0.6-0.2-1.3-0.4-1.9-0.7c-0.1,0-0.1-0.1-0.2-0.1c-0.1,0-0.2-0.1-0.2-0.1c0-0.1,0.1-0.1,0.1-0.1
		c1.7-2.1,4.9-2.5,7-0.8c0.1,0.1,0.3,0.2,0.4,0.4c0.2,0.2,0.3,0.4,0.5,0.6C620.7,108.4,620.8,108.4,620.8,108.5z"/>
	<circle class="st11" cx="617.1" cy="100.2" r="4.1"/>
	<circle class="st12" cx="616.7" cy="101.6" r="3.1"/>
	<path class="st11" d="M619.9,99.7c-0.7,0.5-1.5,0.7-2.4,0.7c0.3,0.2,0.7,0.4,1,0.4c-1.1,0.2-2.3,0.3-3.4,0c-0.3,0-0.5-0.1-0.7-0.2
		c-0.2-0.1-0.4-0.3-0.4-0.6c-0.1-0.4,0.3-0.8,0.6-1.1c1.1-0.8,2.5-1.1,3.8-0.8c0.4,0.1,0.8,0.3,1.1,0.6c0.3,0.3,0.4,0.9,0.1,1.2
		L619.9,99.7z"/>
	<path class="st3" d="M616.9,92.5c-4.7,0-8.5,3.8-8.5,8.5c0,3,1.5,5.7,4.1,7.2l0.1,0c0,0,0.1,0.1,0.1,0.1c0.1,0,0.2,0.1,0.2,0.1
		c0.1,0,0.1,0.1,0.2,0.1c0.6,0.3,1.2,0.5,1.9,0.7c0.1,0,0.3,0.1,0.4,0.1c0.5,0.1,1,0.1,1.6,0.1c0.1,0,0.3,0,0.4,0c0.2,0,0.4,0,0.6,0
		c0.2,0,0.4-0.1,0.7-0.1c0.4-0.1,0.9-0.2,1.3-0.4c0.1,0,0.1,0,0.2-0.1c0.1-0.1,0.3-0.1,0.4-0.2c0.2-0.1,0.3-0.1,0.4-0.2
		c1.5-0.8,2.7-1.9,3.5-3.4c0,0,0,0,0,0c0.4-0.8,0.7-1.6,0.9-2.5c0.9-4.6-2.1-9-6.7-9.9C618,92.5,617.4,92.5,616.9,92.5L616.9,92.5z
		 M624.1,105C624.1,105,624.1,105,624.1,105c-0.8,1.5-2,2.6-3.5,3.4c-0.1,0.1-0.3,0.1-0.4,0.2c-0.1,0.1-0.2,0.1-0.4,0.2
		c-0.1,0-0.1,0-0.2,0.1c-0.4,0.1-0.7,0.2-1.1,0.3c-0.3,0.1-0.6,0.1-0.8,0.1c-0.2,0-0.4,0-0.5,0c-0.1,0-0.2,0-0.3,0
		c-0.5,0-1,0-1.5-0.1c-0.3-0.1-0.6-0.1-0.9-0.2c-0.5-0.1-0.9-0.3-1.3-0.5c0,0-0.1-0.1-0.1-0.1c-0.1,0-0.1-0.1-0.2-0.1
		c-0.1,0-0.1-0.1-0.2-0.1c0,0-0.1,0-0.1-0.1c-3.9-2.4-5.1-7.5-2.7-11.4c2.4-3.9,7.5-5.1,11.4-2.7C625,96.2,626.3,101.1,624.1,105z"
		/>
	<path class="st11" d="M615,96.1c0-0.5-0.6-0.8-1.1-0.6s-0.7,0.6-0.8,1.1c-0.1,0.4,0,0.8,0.2,1.1c0.2,0.3,0.6,0.5,1,0.4
		c0.4-0.1,0.8-0.5,0.8-1c0.1-0.4,0-0.9-0.1-1.3L615,96.1z"/>
	<path class="st11" d="M621.3,96.8c0-0.5-0.6-0.8-1.1-0.6c-0.4,0.1-0.7,0.6-0.8,1.1c-0.1,0.4,0,0.8,0.2,1.1c0.2,0.3,0.6,0.5,1,0.4
		c0.4-0.1,0.8-0.5,0.8-1c0.1-0.4,0-0.9-0.1-1.3L621.3,96.8z"/>
	<path class="st9" d="M613,137.3c-2.7,1.7-6.1,1.8-8.8,0.1c0.2-0.4,0.5-0.8,0.9-1.2c2-2,5.1-2,7.1,0
		C612.5,136.5,612.8,136.9,613,137.3C613,137.3,613,137.3,613,137.3z"/>
	<circle class="st11" cx="608.3" cy="128.6" r="4.2"/>
	<circle class="st13" cx="608.6" cy="130.1" r="3.1"/>
	<path class="st11" d="M605.4,128.1c0.7,0.5,1.5,0.7,2.4,0.7c-0.3,0.2-0.7,0.4-1,0.4c1.1,0.2,2.3,0.3,3.5,0c0.3,0,0.5-0.1,0.7-0.2
		c0.2-0.1,0.4-0.3,0.4-0.6c0.1-0.4-0.3-0.8-0.6-1.1c-1.1-0.8-2.5-1.1-3.8-0.8c-0.4,0.1-0.9,0.3-1.1,0.6c-0.3,0.3-0.4,0.9-0.1,1.2
		L605.4,128.1z"/>
	<path class="st3" d="M608.5,138.7c-4.7,0-8.5-3.8-8.5-8.5c0-4.7,3.8-8.5,8.5-8.5c4.7,0,8.5,3.8,8.5,8.5c0,2.9-1.5,5.6-3.9,7.1
		C611.7,138.3,610.1,138.7,608.5,138.7z M608.5,122c-4.6,0-8.3,3.7-8.3,8.3s3.7,8.3,8.3,8.3c4.6,0,8.3-3.7,8.3-8.3c0,0,0,0,0,0
		C616.8,125.7,613.1,122,608.5,122z"/>
	<circle class="st9" cx="623.8" cy="120" r="1.2"/>
	<ellipse class="st14" cx="623" cy="135.1" rx="2.3" ry="0.3"/>
	<ellipse class="st14" cx="602.3" cy="105" rx="2.3" ry="0.3"/>
</g>
<g>
	<path class="st3" d="M528.4,72H528V60.7c0-3.6-2.9-6.5-6.5-6.5h-23.9c-3.6,0-6.5,2.9-6.5,6.5v61.9c0,3.6,2.9,6.5,6.5,6.5h23.9
		c3.6,0,6.5-2.9,6.5-6.5V80.1h0.4V72z"/>
	<path class="st10" d="M526.6,60.8v61.8c0,2.7-2.2,4.9-4.9,4.9h-24c-2.7,0-4.9-2.2-4.9-4.9V60.8c0-2.7,2.2-4.9,4.9-4.9h2.9
		c-0.5,1.2,0.1,2.5,1.3,3c0.3,0.1,0.6,0.2,0.9,0.2h13.7c1.3,0,2.3-1,2.3-2.3c0-0.3-0.1-0.6-0.2-0.9h3.1
		C524.4,55.9,526.6,58.1,526.6,60.8z"/>
	<path class="st9" d="M518.9,87.4c-0.2,0.1-0.3,0.2-0.5,0.2c-0.2,0.1-0.3,0.1-0.5,0.2c-0.1,0-0.1,0-0.2,0.1
		c-0.5,0.2-0.9,0.3-1.4,0.4c-0.2,0-0.5,0.1-0.7,0.1c-0.2,0-0.4,0-0.6,0c-0.1,0-0.3,0-0.4,0c-0.6,0-1.2-0.1-1.7-0.2
		c-0.1,0-0.3-0.1-0.4-0.1c-0.7-0.2-1.4-0.4-2-0.7c-0.1,0-0.1-0.1-0.2-0.1c-0.1,0-0.2-0.1-0.3-0.1c0-0.1,0.1-0.1,0.1-0.2
		c1.9-2.3,5.3-2.7,7.7-0.8c0.2,0.1,0.3,0.3,0.4,0.4c0.2,0.2,0.4,0.4,0.5,0.6C518.8,87.3,518.8,87.4,518.9,87.4z"/>
	<circle class="st11" cx="514.8" cy="78.4" r="4.5"/>
	<circle class="st12" cx="514.4" cy="80" r="3.4"/>
	<path class="st11" d="M517.9,77.8c-0.8,0.5-1.7,0.8-2.6,0.8c0.3,0.2,0.7,0.4,1.1,0.5c-1.2,0.3-2.5,0.3-3.8,0
		c-0.3,0-0.5-0.1-0.8-0.3c-0.2-0.1-0.4-0.4-0.5-0.7c-0.1-0.5,0.3-0.9,0.7-1.2c1.2-0.9,2.7-1.2,4.1-0.8c0.5,0.1,0.9,0.3,1.2,0.7
		c0.3,0.4,0.4,0.9,0.1,1.3L517.9,77.8z"/>
	<path class="st3" d="M514.6,69.9c-5.1,0-9.3,4.2-9.3,9.3c0,3.2,1.7,6.2,4.4,7.9l0.1,0c0,0,0.1,0.1,0.1,0.1c0.1,0,0.2,0.1,0.3,0.1
		c0.1,0,0.1,0.1,0.2,0.1c0.6,0.3,1.3,0.6,2,0.7c0.1,0,0.3,0.1,0.4,0.1c0.6,0.1,1.1,0.2,1.7,0.2c0.1,0,0.3,0,0.4,0c0.2,0,0.4,0,0.6,0
		c0.2,0,0.5-0.1,0.7-0.1c0.5-0.1,0.9-0.2,1.4-0.4c0.1,0,0.1,0,0.2-0.1c0.2-0.1,0.3-0.1,0.5-0.2c0.2-0.1,0.3-0.2,0.5-0.2
		c1.6-0.8,2.9-2.1,3.8-3.7c0,0,0,0,0,0c0.5-0.8,0.8-1.8,1-2.7c1-5-2.3-9.9-7.3-10.9C515.8,70,515.2,69.9,514.6,69.9L514.6,69.9z
		 M522.5,83.6C522.5,83.6,522.5,83.6,522.5,83.6c-0.9,1.6-2.2,2.9-3.8,3.7c-0.2,0.1-0.3,0.2-0.5,0.2c-0.1,0.1-0.3,0.1-0.4,0.2
		c-0.1,0-0.1,0-0.2,0.1c-0.4,0.1-0.8,0.3-1.2,0.3c-0.3,0.1-0.6,0.1-0.9,0.1c-0.2,0-0.4,0-0.6,0c-0.1,0-0.3,0-0.4,0
		c-0.6,0-1.1-0.1-1.7-0.2c-0.3-0.1-0.7-0.1-1-0.2c-0.5-0.2-1-0.3-1.4-0.6c-0.1,0-0.1-0.1-0.2-0.1c-0.1,0-0.2-0.1-0.2-0.1
		c-0.1,0-0.1-0.1-0.2-0.1c0,0-0.1,0-0.1-0.1c-4.3-2.6-5.6-8.2-3-12.5c2.6-4.3,8.2-5.6,12.5-3C523.5,74,524.9,79.3,522.5,83.6z"/>
	<path class="st11" d="M512.5,73.9c0-0.5-0.7-0.8-1.2-0.7c-0.5,0.2-0.8,0.6-0.9,1.2c-0.1,0.4,0,0.9,0.2,1.2c0.2,0.4,0.7,0.6,1.1,0.5
		c0.5-0.1,0.8-0.6,0.9-1.1c0.1-0.5,0-1-0.1-1.5L512.5,73.9z"/>
	<path class="st11" d="M519.4,74.7c0-0.5-0.7-0.8-1.2-0.7s-0.8,0.6-0.9,1.2c-0.1,0.4,0,0.9,0.2,1.2c0.2,0.4,0.7,0.6,1.1,0.5
		c0.5-0.1,0.8-0.6,0.9-1.1c0.1-0.5,0-1-0.1-1.5L519.4,74.7z"/>
	<path class="st9" d="M510.4,119c-2.9,1.9-6.7,1.9-9.7,0.2c0.3-0.5,0.6-0.9,1-1.3c2.1-2.2,5.6-2.2,7.8,0
		C509.8,118.2,510.1,118.5,510.4,119C510.4,119,510.4,119,510.4,119z"/>
	<circle class="st11" cx="505.2" cy="109.5" r="4.6"/>
	<circle class="st13" cx="505.6" cy="111.1" r="3.4"/>
	<path class="st11" d="M502,109c0.8,0.5,1.7,0.8,2.6,0.8c-0.3,0.2-0.7,0.4-1.1,0.5c1.3,0.3,2.5,0.3,3.8,0c0.3,0,0.5-0.1,0.8-0.3
		c0.2-0.1,0.4-0.4,0.5-0.7c0.1-0.5-0.3-0.9-0.7-1.2c-1.2-0.9-2.7-1.2-4.2-0.8c-0.5,0.1-0.9,0.3-1.2,0.7s-0.4,1-0.1,1.3L502,109z"/>
	<path class="st3" d="M505.4,120.5c-5.1,0-9.3-4.2-9.3-9.3c0-5.1,4.2-9.3,9.3-9.3c5.1,0,9.3,4.2,9.3,9.3c0,3.2-1.6,6.1-4.3,7.8
		C508.9,120,507.2,120.5,505.4,120.5z M505.4,102.2c-5,0-9.1,4.1-9.1,9.1c0,5,4.1,9.1,9.1,9.1s9.1-4.1,9.1-9.1c0,0,0,0,0,0
		C514.5,106.3,510.4,102.2,505.4,102.2z"/>
	<circle class="st9" cx="522.2" cy="100.1" r="1.4"/>
	<ellipse class="st14" cx="521.3" cy="116.6" rx="2.5" ry="0.3"/>
	<ellipse class="st14" cx="498.7" cy="83.6" rx="2.5" ry="0.3"/>
</g>
<g>
	<path class="st3" d="M580.1,59h-0.5V46.5c0-4-3.2-7.2-7.2-7.2c0,0,0,0,0,0h-26.3c-4,0-7.2,3.2-7.2,7.2c0,0,0,0,0,0v68.1
		c0,4,3.2,7.2,7.2,7.2c0,0,0,0,0,0h26.3c4,0,7.2-3.2,7.2-7.2c0,0,0,0,0,0V67.8h0.5V59z"/>
	<path class="st10" d="M572.8,41.2h-3.4c0.5,1.3-0.1,2.8-1.4,3.3c-0.3,0.1-0.6,0.2-1,0.2h-15.1c-1.4,0-2.5-1.1-2.5-2.5
		c0-0.3,0.1-0.7,0.2-1h-3.2c-3,0-5.4,2.4-5.4,5.4c0,0,0,0,0,0v68c0,3,2.4,5.4,5.4,5.4c0,0,0,0,0,0h26.4c3,0,5.4-2.4,5.4-5.4l0,0v-68
		C578.2,43.6,575.8,41.2,572.8,41.2z"/>
	<rect x="553.9" y="59.5" class="st9" width="9.4" height="0.9"/>
	<rect x="553.9" y="62.5" class="st15" width="16.3" height="0.9"/>
	<rect x="553.9" y="77.8" class="st9" width="9.4" height="0.9"/>
	<rect x="553.9" y="80.8" class="st15" width="16.3" height="0.9"/>
	<rect x="553.9" y="96" class="st9" width="9.4" height="0.9"/>
	<rect x="553.9" y="99" class="st15" width="16.3" height="0.9"/>
	<g>
		<rect x="541.9" y="77.8" class="st16" width="11.2" height="9.9"/>
		<circle class="st17" cx="546.9" cy="80.2" r="1.1"/>
		<path class="st17" d="M546.5,81c0,0,0.1,0.7,0.1,0.7s0.7,0.4,0.7,0.4l0.6-0.1l0.2-0.6c0,0-0.3-0.5-0.3-0.7L546.5,81z"/>
		<path class="st9" d="M549.5,87.6l0.1-0.3l0,0l-0.3-3l0-0.1l0.3-2.4l-1.7-0.6h0c0,0.3-0.2,0.6-0.5,0.7c-0.5,0.2-0.9-0.4-0.9-0.4
			l-1.4,1.1l0.7,2l0.3,1c0,0,0,1.1,0.1,1.3c0,0.1,0,0.1-0.1,0.2c0,0,0,0.1,0.1,0.1c0,0,0.1,0.1,0.1,0.3c0,0.1,0,0.1,0,0.2H549.5z"/>
		<path class="st17" d="M552.2,87.5c0,0,0.9,0.6,0.8,1c-0.1,0.4-1.2-0.7-1.2-0.7C551.9,87.7,552.2,87.5,552.2,87.5z"/>
		<path class="st11" d="M546,79.3c0,0,0.4-0.8,1-0.6s1.1,0.4,1.1,0.7s0,0.7,0,0.7s-0.1-0.5-0.5-0.4c-0.5,0.1-1.2,0-1.2,0l-0.1,1.1
			c0,0-0.1-0.2-0.3-0.1C545.8,80.8,545.5,79.5,546,79.3z"/>
		<path class="st9" d="M545.9,87.6h-1l-0.1-0.1c-0.4-0.7-0.4-1.7-0.4-1.7l0.2-2.1c0-0.7,0.4-1.1,0.4-1.1h0.5l0.4,1.3l-0.2,0.8
			l-0.3,0.9l-0.1,0.1c0,0,0.1,0.1,0,0.1c0,0-0.1,0.2-0.1,0.2s0.1,0.7,0.2,0.8c0.1,0.1,0,0.1,0,0.1c0,0,0.1,0.2,0.1,0.2v0.2
			L545.9,87.6z"/>
		<path class="st9" d="M549.1,81.7l0.6,0.1c0,0,0.3,0.3,0.5,0.8l0.3,1.3l0.5,0.9c0,0,0.5,0.5,0.9,1.7l0.6,1l-0.6,0.3
			c0,0-1.6-1.9-1.8-2.6l-0.9-1.7L549.1,81.7z"/>
	</g>
	<g>
		<rect x="541.7" y="59.2" class="st16" width="11.3" height="10"/>
		<path class="st11" d="M548.3,61.4c-0.4-0.7-1.3-0.8-1.3-0.8s-0.8-0.1-1.4,1c-0.5,1-1.2,2-0.1,2.3l0.2-0.6l0.1,0.6
			c0.2,0,0.3,0,0.5,0c1.2,0,2.2,0,2.2-0.4C548.5,63,548.8,62.1,548.3,61.4z"/>
		<circle class="st12" cx="547.1" cy="62.3" r="1.1"/>
		<path class="st12" d="M546.7,63.1c0,0,0.5,1.2-0.2,1.4l0.7,2.2l1.2-0.1l0.3-0.7l-0.1-1.1l-0.1-0.7c0,0-0.7,0.2-0.6-1.1L546.7,63.1
			z"/>
		<path class="st12" d="M546.4,64.4c0,0-1.1-0.1-1,0.7s0.2,1,0.2,1l0.1,1.2l-0.6,0.4h-0.6c0,0-1.8,0.4-0.9,0.8s1.2-0.3,1.2-0.3
			s1.6,0,1.7-0.3C546.7,67.7,546.4,64.4,546.4,64.4z"/>
		<path class="st12" d="M548.6,64.1c0,0,1-0.4,1.1,0.4c0.1,0.8,0.1,0.9,0.1,0.9l0.2,1.2c0,0,0.4,1,0.4,1.3s0.3,1.3,0.3,1.3
			s0.4,1.3,0,1.3c-0.4,0-0.5-1.4-0.5-1.4l-0.9-1.8l-0.3-1.1L548.6,64.1z"/>
		<path class="st9" d="M546.6,64.3h-0.3l0,1.4c0,0-0.4,0.6,0.1,1.2l0.1,0.9l2.5-0.1l0.2-0.9c0,0,0.3-0.7-0.1-1.4l-0.4-1.4h-0.2
			c0,0,0.5,2-0.6,2.1C546.8,66,546.6,64.3,546.6,64.3z"/>
		<path class="st11" d="M549.7,69.2h-3.6c0.2-0.5,0.3-0.9,0.3-0.9c0,0,0,0,0,0l0.1-0.3l0-0.1l0-0.1l0-0.2l2.2-0.1l0.1,0.1l0.2,0.5
			c0,0,0,0,0.1,0C549.3,68.3,549.5,68.6,549.7,69.2z"/>
		<path class="st3" d="M549.1,67.2l-2.7,0.1c0,0-0.1,0.9,0,0.9c0,0,2.8,0.2,2.8-0.2S549.1,67.2,549.1,67.2z"/>
		<circle class="st11" cx="547.2" cy="60.6" r="0.6"/>
		<path class="st11" d="M546.5,60.4c0-0.3,0.2-0.6,0.6-0.6c0,0,0,0-0.1,0c-0.3,0-0.6,0.3-0.6,0.6c0,0.3,0.3,0.6,0.6,0.6
			c0,0,0,0,0.1,0C546.7,61,546.5,60.8,546.5,60.4z"/>
		<polygon class="st11" points="548.2,61.3 547.3,60.9 546.1,61 545.9,62.1 546.5,62.1 546.7,61.7 546.7,62.1 546.9,62.1 
			547.1,61.4 547.2,62.1 548.2,62.1 		"/>
	</g>
	<g>
		<rect x="541.9" y="96.1" class="st18" width="11.2" height="9.8"/>
		<g>
			<path class="st13" d="M548.5,101.7l-0.3,1.6l0.8,2.2c0,0-0.2,1.4,0.5,1.4c0.8,0,0-1.4,0-1.4s-0.5-2.7-0.5-2.7
				c0,0,0.1-1.1,0.1-1.1H548.5z"/>
			<path class="st13" d="M547.5,98c0,0.2-0.5,0.8-0.5,0.8l0.7,0.9c0,0,0.7-0.3,0.7-0.5s0.2-0.9,0.2-0.9L547.5,98z"/>
			<path class="st3" d="M547.2,98.6l-1.2,0.2l-0.4,0.2c-0.2,0.1,0.1,1.7,0.1,1.7l-0.2,3.6c0,0-0.3,0.4-0.2,0.7
				c0.1,0.2-0.2,0.9-0.2,0.9s1.2,0.5,2.2,0.2s1.7-0.2,1.7-0.2s-0.2-1.2-0.3-1.5s0-0.1,0.1-0.3c0.1-0.2-0.2-1.2-0.2-1.3
				c0-0.2-0.1-0.1,0-0.2c0.1,0,0.1-0.6,0.1-0.6l0.8-1.5c0-0.2-1.1-1.2-1.1-1.2c-0.1,0.1-0.4,0.2-0.4,0.2
				C547.5,99.4,547.2,98.6,547.2,98.6z"/>
			<path class="st3" d="M548.4,101.9l0.8,0.1c0,0,0.1-0.4,0.3-0.7c0.2-0.3,0-0.8,0-0.8l-0.4-0.3L548.4,101.9z"/>
			<circle class="st13" cx="548.2" cy="97.7" r="1"/>
			<path class="st11" d="M549.3,97.7l-0.1,0.2c0,0-0.2-0.2-0.2-0.4c0-0.2-0.4-0.4-0.4-0.4l0.1,0.2l-0.4-0.1l0.1,0.2l-0.6-0.2l0,0.2
				l-0.1-0.1c0,0.1-0.2,0.3-0.2,0.3v-0.2c0,0.1-0.3,0.6-0.3,0.6l0-0.1c0-0.1-0.1-0.3,0-0.4l-0.3,0l0.3-0.2l-0.1-0.2h0.2
				c0.1-0.3,0.3-0.5,0.5-0.7c0.3-0.4,0.7-0.2,0.7-0.2l-0.1,0.2c0.5,0,0.9,0.4,0.9,0.4l-0.2,0.1C549.4,96.9,549.3,97.7,549.3,97.7z"
				/>
			<path class="st13" d="M545,100.6c0,0,0.2,1.8,0.4,2.2c0.2,0.4,3.2,0.8,3.2,0.8s1.1,0.8,1.4,0.3c0.3-0.5-0.9-0.7-0.9-0.7l-2.7-1.3
				l0,0c0.1-0.1,0.1-0.2,0.1-0.3c0-0.6-0.2-1.1-0.2-1.1L545,100.6z"/>
			<path class="st3" d="M546.4,100.7c0,0-1.4,0.1-1.5,0.1s0-0.2,0.1-1s0.5-0.8,0.5-0.8h0.6C546.1,98.9,546.4,100.6,546.4,100.7z"/>
		</g>
	</g>
	<g>
		<path class="st9" d="M555.5,67.9c-0.8,0-1.4-0.6-1.4-1.4s0.6-1.4,1.4-1.4s1.4,0.6,1.4,1.4l0,0C556.9,67.3,556.3,67.9,555.5,67.9z
			 M555.5,65.2c-0.7,0-1.3,0.6-1.3,1.3s0.6,1.3,1.3,1.3s1.3-0.6,1.3-1.3C556.8,65.8,556.2,65.2,555.5,65.2z"/>
		<circle class="st9" cx="556.1" cy="66.1" r="0.3"/>
		<circle class="st9" cx="555" cy="66.1" r="0.3"/>
		<path class="st9" d="M555.1,66.8c-0.1,0.9,0.9,1.1,0.8,0C555.9,66.8,555.1,66.8,555.1,66.8z"/>
	</g>
	<g>
		<path class="st9" d="M559.9,65.9c-0.1-0.1-0.2-0.1-0.3,0c-0.1,0.1-0.1,0.2,0,0.3c0,0,0,0,0,0l0.3,0.3l0.3-0.3
			c0.1-0.1,0.1-0.2,0-0.3C560.1,65.9,560,65.9,559.9,65.9C559.9,65.9,559.9,65.9,559.9,65.9z"/>
		<path class="st9" d="M558.8,65.9c-0.1-0.1-0.2-0.1-0.3,0c-0.1,0.1-0.1,0.2,0,0.3c0,0,0,0,0,0l0.3,0.3l0.3-0.3
			c0.1-0.1,0.1-0.2,0-0.3C559,65.9,558.9,65.9,558.8,65.9C558.8,65.9,558.8,65.9,558.8,65.9z"/>
		<path class="st9" d="M559.4,67.9c-0.8,0-1.4-0.6-1.4-1.4s0.6-1.4,1.4-1.4s1.4,0.6,1.4,1.4l0,0C560.8,67.3,560.2,67.9,559.4,67.9z
			 M559.4,65.2c-0.7,0-1.3,0.6-1.3,1.3s0.6,1.3,1.3,1.3s1.3-0.6,1.3-1.3C560.7,65.8,560.1,65.2,559.4,65.2z"/>
		<path class="st9" d="M558.9,67c0.3,0.4,0.8,0.4,1.1,0H558.9z"/>
	</g>
	<path class="st9" d="M567,67.9l-1.2-1.2c-0.3-0.3-0.3-0.9,0-1.2c0.3-0.3,0.8-0.3,1.2,0c0.4-0.3,0.9-0.3,1.2,0.1
		c0.3,0.3,0.3,0.8,0,1.2L567,67.9z M566.4,65.4c-0.4,0-0.7,0.3-0.7,0.7c0,0.2,0.1,0.4,0.2,0.5l1.1,1.1l1.1-1.1c0.3-0.3,0.3-0.7,0-1
		s-0.7-0.3-1,0l0,0l0,0C566.8,65.5,566.6,65.4,566.4,65.4L566.4,65.4z"/>
	<g>
		<path class="st9" d="M563.2,67.9c-0.8,0-1.4-0.6-1.4-1.4s0.6-1.4,1.4-1.4s1.4,0.6,1.4,1.4l0,0C564.6,67.2,563.9,67.9,563.2,67.9z
			 M563.2,65.2c-0.7,0-1.3,0.6-1.3,1.3s0.6,1.3,1.3,1.3c0.7,0,1.3-0.6,1.3-1.3C564.4,65.8,563.9,65.2,563.2,65.2z"/>
		<path class="st9" d="M562.7,66.9c0.3,0.4,0.8,0.4,1.1,0H562.7z"/>
		<polygon class="st9" points="562.8,66.5 562.6,66.4 562.4,66.5 562.5,66.3 562.3,66.2 562.5,66.1 562.6,65.9 562.7,66.1 
			562.9,66.1 562.8,66.3 		"/>
		<polygon class="st9" points="563.8,66.5 563.6,66.4 563.4,66.5 563.5,66.3 563.3,66.2 563.5,66.1 563.6,65.9 563.7,66.1 
			563.9,66.1 563.8,66.3 		"/>
	</g>
	<g>
		<g>
			<path class="st9" d="M555.5,86c-0.8,0-1.4-0.6-1.4-1.4c0-0.8,0.6-1.4,1.4-1.4s1.4,0.6,1.4,1.4l0,0C556.8,85.4,556.2,86,555.5,86z
				 M555.5,83.3c-0.7,0-1.3,0.6-1.3,1.3s0.6,1.3,1.3,1.3c0.7,0,1.3-0.6,1.3-1.3C556.7,83.9,556.2,83.3,555.5,83.3z"/>
			<circle class="st9" cx="556" cy="84.1" r="0.3"/>
			<circle class="st9" cx="554.9" cy="84.1" r="0.3"/>
			<path class="st9" d="M555.1,84.8c-0.1,0.9,0.9,1.1,0.8,0C555.9,84.8,555.1,84.8,555.1,84.8z"/>
		</g>
		<g>
			<path class="st9" d="M559.9,84c-0.1-0.1-0.2-0.1-0.3,0s-0.1,0.2,0,0.3c0,0,0,0,0,0l0.3,0.3l0.3-0.3c0.1-0.1,0.1-0.2,0-0.3
				C560.1,83.9,560,83.9,559.9,84C559.9,84,559.9,84,559.9,84z"/>
			<path class="st9" d="M558.8,84c-0.1-0.1-0.2-0.1-0.3,0c-0.1,0.1-0.1,0.2,0,0.3c0,0,0,0,0,0l0.3,0.3l0.3-0.3
				c0.1-0.1,0.1-0.2,0-0.3C559,83.9,558.9,83.9,558.8,84C558.8,84,558.8,84,558.8,84z"/>
			<path class="st9" d="M559.4,86c-0.8,0-1.4-0.6-1.4-1.4s0.6-1.4,1.4-1.4s1.4,0.6,1.4,1.4l0,0C560.8,85.3,560.1,86,559.4,86z
				 M559.4,83.3c-0.7,0-1.3,0.6-1.3,1.3s0.6,1.3,1.3,1.3c0.7,0,1.3-0.6,1.3-1.3C560.6,83.9,560.1,83.3,559.4,83.3z"/>
			<path class="st9" d="M558.9,85c0.3,0.4,0.8,0.4,1.1,0H558.9z"/>
		</g>
		<path class="st9" d="M566.9,86l-1.2-1.2c-0.3-0.3-0.3-0.9,0-1.2c0.3-0.3,0.8-0.3,1.2,0c0.4-0.3,0.9-0.3,1.2,0.1
			c0.3,0.3,0.3,0.8,0,1.2L566.9,86z M566.4,83.5c-0.4,0-0.7,0.3-0.7,0.7c0,0.2,0.1,0.4,0.2,0.5l1.1,1.1l1.1-1.1c0.3-0.3,0.3-0.7,0-1
			c-0.3-0.3-0.7-0.3-1,0l0,0l0,0C566.7,83.6,566.6,83.5,566.4,83.5L566.4,83.5z"/>
		<g>
			<path class="st9" d="M563.1,85.9c-0.8,0-1.4-0.6-1.4-1.4c0-0.8,0.6-1.4,1.4-1.4s1.4,0.6,1.4,1.4l0,0
				C564.5,85.3,563.9,85.9,563.1,85.9z M563.1,83.3c-0.7,0-1.3,0.6-1.3,1.3c0,0.7,0.6,1.3,1.3,1.3s1.3-0.6,1.3-1.3
				C564.4,83.8,563.8,83.3,563.1,83.3z"/>
			<path class="st9" d="M562.6,85c0.3,0.4,0.8,0.4,1.1,0H562.6z"/>
			<polygon class="st9" points="562.8,84.6 562.6,84.5 562.4,84.6 562.4,84.4 562.3,84.2 562.5,84.2 562.6,84 562.7,84.2 
				562.9,84.2 562.7,84.4 			"/>
			<polygon class="st9" points="563.8,84.6 563.6,84.5 563.4,84.6 563.4,84.4 563.3,84.2 563.5,84.2 563.6,84 563.7,84.2 
				563.9,84.2 563.8,84.4 			"/>
		</g>
	</g>
	<g>
		<g>
			<path class="st9" d="M555.5,104.8c-0.8,0-1.4-0.6-1.4-1.4s0.6-1.4,1.4-1.4s1.4,0.6,1.4,1.4l0,0
				C556.9,104.1,556.3,104.8,555.5,104.8z M555.5,102.1c-0.7,0-1.3,0.6-1.3,1.3s0.6,1.3,1.3,1.3s1.3-0.6,1.3-1.3
				C556.8,102.7,556.2,102.1,555.5,102.1z"/>
			<circle class="st9" cx="556.1" cy="102.9" r="0.3"/>
			<circle class="st9" cx="555" cy="102.9" r="0.3"/>
			<path class="st9" d="M555.1,103.6c-0.1,0.9,0.9,1.1,0.8,0C555.9,103.6,555.1,103.6,555.1,103.6z"/>
		</g>
		<g>
			<path class="st9" d="M559.9,102.8c-0.1-0.1-0.2-0.1-0.3,0c-0.1,0.1-0.1,0.2,0,0.3c0,0,0,0,0,0l0.3,0.3l0.3-0.3
				c0.1-0.1,0.1-0.2,0-0.3C560.1,102.7,560,102.7,559.9,102.8C559.9,102.8,559.9,102.8,559.9,102.8z"/>
			<path class="st9" d="M558.8,102.8c-0.1-0.1-0.2-0.1-0.3,0c-0.1,0.1-0.1,0.2,0,0.3c0,0,0,0,0,0l0.3,0.3l0.3-0.3
				c0.1-0.1,0.1-0.2,0-0.3C559,102.7,558.9,102.7,558.8,102.8C558.8,102.8,558.8,102.8,558.8,102.8z"/>
			<path class="st9" d="M559.4,104.8c-0.8,0-1.4-0.6-1.4-1.4c0-0.8,0.6-1.4,1.4-1.4s1.4,0.6,1.4,1.4l0,0
				C560.8,104.1,560.2,104.8,559.4,104.8z M559.4,102.1c-0.7,0-1.3,0.6-1.3,1.3s0.6,1.3,1.3,1.3s1.3-0.6,1.3-1.3
				C560.7,102.7,560.1,102.1,559.4,102.1z"/>
			<path class="st9" d="M558.9,103.8c0.3,0.4,0.8,0.4,1.1,0H558.9z"/>
		</g>
		<path class="st9" d="M567,104.8l-1.2-1.2c-0.3-0.3-0.3-0.9,0-1.2c0.3-0.3,0.8-0.3,1.2,0c0.4-0.3,0.9-0.3,1.2,0.1
			c0.3,0.3,0.3,0.8,0,1.2L567,104.8z M566.4,102.3c-0.4,0-0.7,0.3-0.7,0.7c0,0.2,0.1,0.4,0.2,0.5l1.1,1.1l1.1-1.1
			c0.3-0.3,0.3-0.7,0-1s-0.7-0.3-1,0l0,0l0,0C566.8,102.4,566.6,102.3,566.4,102.3L566.4,102.3z"/>
		<g>
			<path class="st9" d="M563.2,104.7c-0.8,0-1.4-0.6-1.4-1.4s0.6-1.4,1.4-1.4s1.4,0.6,1.4,1.4l0,0
				C564.6,104.1,563.9,104.7,563.2,104.7z M563.2,102c-0.7,0-1.3,0.6-1.3,1.3s0.6,1.3,1.3,1.3c0.7,0,1.3-0.6,1.3-1.3
				C564.4,102.6,563.9,102,563.2,102z"/>
			<path class="st9" d="M562.7,103.8c0.3,0.4,0.8,0.4,1.1,0H562.7z"/>
			<polygon class="st9" points="562.8,103.4 562.6,103.3 562.4,103.4 562.5,103.2 562.3,103 562.5,103 562.6,102.8 562.7,103 
				562.9,103 562.8,103.1 			"/>
			<polygon class="st9" points="563.8,103.4 563.6,103.3 563.4,103.4 563.5,103.2 563.3,103 563.5,103 563.6,102.8 563.7,103 
				563.9,103 563.8,103.1 			"/>
		</g>
	</g>
</g>
<g>
	<path class="st3" d="M402.2,242.3h-0.5v-12.4c0-4-3.2-7.2-7.2-7.2c0,0,0,0,0,0h-26.3c-4,0-7.2,3.2-7.2,7.2c0,0,0,0,0,0V298
		c0,4,3.2,7.2,7.2,7.2c0,0,0,0,0,0h26.3c4,0,7.2-3.2,7.2-7.2c0,0,0,0,0,0v-46.9h0.5V242.3z"/>
	<path class="st10" d="M394.8,224.5h-3.4c0.5,1.3-0.1,2.8-1.4,3.3c-0.3,0.1-0.6,0.2-1,0.2h-15.1c-1.4,0-2.5-1.1-2.5-2.5
		c0-0.3,0.1-0.7,0.2-1h-3.2c-3,0-5.4,2.4-5.4,5.4c0,0,0,0,0,0v68c0,3,2.4,5.4,5.4,5.4c0,0,0,0,0,0h26.4c3,0,5.4-2.4,5.4-5.4l0,0v-68
		C400.2,226.9,397.8,224.5,394.8,224.5z"/>
	<rect x="375.9" y="242.8" class="st9" width="9.4" height="0.9"/>
	<rect x="375.9" y="245.8" class="st15" width="16.3" height="0.9"/>
	<rect x="375.9" y="261.1" class="st9" width="9.4" height="0.9"/>
	<rect x="375.9" y="264.1" class="st15" width="16.3" height="0.9"/>
	<rect x="375.9" y="279.3" class="st9" width="9.4" height="0.9"/>
	<rect x="375.9" y="282.3" class="st15" width="16.3" height="0.9"/>
	<g>
		<rect x="363.9" y="261.1" class="st16" width="11.2" height="9.9"/>
		<circle class="st17" cx="369" cy="263.5" r="1.1"/>
		<path class="st17" d="M368.5,264.3c0,0,0.1,0.7,0.1,0.7c0,0.1,0.7,0.4,0.7,0.4l0.6-0.1l0.2-0.6c0,0-0.3-0.5-0.3-0.7L368.5,264.3z"
			/>
		<path class="st9" d="M371.5,270.9l0.1-0.3l0,0l-0.3-3l0-0.1l0.3-2.4l-1.7-0.6h0c0,0.3-0.2,0.6-0.5,0.7c-0.5,0.2-0.9-0.4-0.9-0.4
			l-1.4,1.1l0.7,2l0.3,1c0,0,0,1.1,0.1,1.3c0,0.1,0,0.1-0.1,0.2c0,0,0,0.1,0.1,0.1c0,0,0.1,0.1,0.1,0.3c0,0.1,0,0.1,0,0.2H371.5z"/>
		<path class="st17" d="M374.2,270.8c0,0,0.9,0.6,0.8,1c-0.1,0.4-1.2-0.7-1.2-0.7S374.2,270.8,374.2,270.8z"/>
		<path class="st11" d="M368,262.6c0,0,0.4-0.8,1-0.6c0.7,0.2,1.1,0.4,1.1,0.7s0,0.7,0,0.7s-0.1-0.5-0.5-0.4c-0.5,0.1-1.2,0-1.2,0
			l-0.1,1.1c0,0-0.1-0.2-0.3-0.1C367.8,264.1,367.5,262.8,368,262.6z"/>
		<path class="st9" d="M367.9,270.9h-1l-0.1-0.1c-0.4-0.7-0.4-1.7-0.4-1.7l0.2-2.1c0-0.7,0.4-1.1,0.4-1.1h0.5l0.4,1.3l-0.2,0.8
			l-0.3,0.9l-0.1,0.1c0,0,0.1,0.1,0,0.1c0,0-0.1,0.2-0.1,0.2s0.1,0.7,0.2,0.8c0.1,0.1,0,0.1,0,0.1c0,0,0.1,0.2,0.1,0.2v0.2
			L367.9,270.9z"/>
		<path class="st9" d="M371.1,265l0.6,0.1c0,0,0.3,0.3,0.5,0.8l0.3,1.3l0.5,0.9c0,0,0.5,0.5,0.9,1.7l0.6,1l-0.6,0.3
			c0,0-1.6-1.9-1.8-2.6l-0.9-1.7L371.1,265z"/>
	</g>
	<g>
		<rect x="363.8" y="242.5" class="st16" width="11.3" height="10"/>
		<path class="st11" d="M370.4,244.7c-0.4-0.7-1.3-0.8-1.3-0.8s-0.8-0.1-1.4,1c-0.5,1-1.2,2-0.1,2.3l0.2-0.6l0.1,0.6
			c0.2,0,0.3,0,0.5,0c1.2,0,2.2,0,2.2-0.4C370.5,246.3,370.8,245.4,370.4,244.7z"/>
		<circle class="st12" cx="369.2" cy="245.6" r="1.1"/>
		<path class="st12" d="M368.7,246.4c0,0,0.5,1.2-0.2,1.4l0.7,2.2l1.2-0.1l0.3-0.7l-0.1-1.1l-0.1-0.7c0,0-0.7,0.2-0.6-1.1
			L368.7,246.4z"/>
		<path class="st12" d="M368.4,247.7c0,0-1.1-0.1-1,0.7c0.1,0.8,0.2,1,0.2,1l0.1,1.2l-0.6,0.4h-0.6c0,0-1.8,0.4-0.9,0.8
			s1.2-0.3,1.2-0.3s1.6,0,1.7-0.3C368.7,251,368.4,247.7,368.4,247.7z"/>
		<path class="st12" d="M370.6,247.4c0,0,1-0.4,1.1,0.4c0.1,0.8,0.1,0.9,0.1,0.9l0.2,1.2c0,0,0.4,1,0.4,1.3c0,0.3,0.3,1.3,0.3,1.3
			s0.4,1.3,0,1.3s-0.5-1.4-0.5-1.4l-0.9-1.8l-0.3-1.1L370.6,247.4z"/>
		<path class="st9" d="M368.6,247.6h-0.3l0,1.4c0,0-0.4,0.6,0.1,1.2l0.1,0.9l2.5-0.1l0.2-0.9c0,0,0.3-0.7-0.1-1.4l-0.4-1.4h-0.2
			c0,0,0.5,2-0.6,2.1C368.8,249.3,368.6,247.6,368.6,247.6z"/>
		<path class="st11" d="M371.7,252.5h-3.6c0.2-0.5,0.3-0.9,0.3-0.9c0,0,0,0,0,0l0.1-0.3l0-0.1l0-0.1l0-0.2l2.2-0.1l0.1,0.1l0.2,0.5
			c0,0,0,0,0.1,0C371.3,251.6,371.5,251.9,371.7,252.5z"/>
		<path class="st3" d="M371.1,250.5l-2.7,0.1c0,0-0.1,0.9,0,0.9c0,0,2.8,0.2,2.8-0.2C371.2,251,371.1,250.5,371.1,250.5z"/>
		<circle class="st11" cx="369.2" cy="243.9" r="0.6"/>
		<path class="st11" d="M368.5,243.7c0-0.3,0.2-0.6,0.6-0.6c0,0,0,0-0.1,0c-0.3,0-0.6,0.3-0.6,0.6c0,0.3,0.3,0.6,0.6,0.6
			c0,0,0,0,0.1,0C368.7,244.3,368.5,244.1,368.5,243.7z"/>
		<polygon class="st11" points="370.2,244.6 369.3,244.2 368.2,244.3 367.9,245.4 368.5,245.4 368.7,245 368.7,245.4 369,245.4 
			369.1,244.7 369.2,245.4 370.2,245.4 		"/>
	</g>
	<g>
		<rect x="363.9" y="279.4" class="st18" width="11.2" height="9.8"/>
		<g>
			<path class="st13" d="M370.6,285l-0.3,1.6l0.8,2.2c0,0-0.2,1.4,0.5,1.4c0.8,0,0-1.4,0-1.4s-0.5-2.7-0.5-2.7c0,0,0.1-1.1,0.1-1.1
				H370.6z"/>
			<path class="st13" d="M369.5,281.3c0,0.2-0.5,0.8-0.5,0.8l0.7,0.9c0,0,0.7-0.3,0.7-0.5c0-0.1,0.2-0.9,0.2-0.9L369.5,281.3z"/>
			<path class="st3" d="M369.2,281.9l-1.2,0.2l-0.4,0.2c-0.2,0.1,0.1,1.7,0.1,1.7l-0.2,3.6c0,0-0.3,0.4-0.2,0.7S367,289,367,289
				s1.2,0.5,2.2,0.2c1-0.4,1.7-0.2,1.7-0.2s-0.2-1.2-0.3-1.5s0-0.1,0.1-0.3s-0.2-1.2-0.2-1.3c0-0.2-0.1-0.1,0-0.2
				c0.1,0,0.1-0.6,0.1-0.6l0.8-1.5c0-0.2-1.1-1.2-1.1-1.2c-0.1,0.1-0.4,0.2-0.4,0.2C369.5,282.7,369.2,281.9,369.2,281.9z"/>
			<path class="st3" d="M370.4,285.2l0.8,0.1c0,0,0.1-0.4,0.3-0.7c0.2-0.3,0-0.8,0-0.8l-0.4-0.3L370.4,285.2z"/>
			<circle class="st13" cx="370.2" cy="281" r="1"/>
			<path class="st11" d="M371.3,281l-0.1,0.2c0,0-0.2-0.2-0.2-0.4c0-0.2-0.4-0.4-0.4-0.4l0.1,0.2l-0.4-0.1l0.1,0.2l-0.6-0.2l0,0.2
				l-0.1-0.1c0,0.1-0.2,0.3-0.2,0.3v-0.2c0,0.1-0.3,0.6-0.3,0.6l0-0.1c0-0.1-0.1-0.3,0-0.4l-0.3,0l0.3-0.2l-0.1-0.2h0.2
				c0.1-0.3,0.3-0.5,0.5-0.7c0.3-0.4,0.7-0.2,0.7-0.2l-0.1,0.2c0.5,0,0.9,0.4,0.9,0.4l-0.2,0.1C371.4,280.2,371.3,281,371.3,281z"/>
			<path class="st13" d="M367,283.9c0,0,0.2,1.8,0.4,2.2c0.2,0.4,3.2,0.8,3.2,0.8s1.1,0.8,1.4,0.3c0.3-0.5-0.9-0.7-0.9-0.7l-2.7-1.3
				l0,0c0.1-0.1,0.1-0.2,0.1-0.3c0-0.6-0.2-1.1-0.2-1.1L367,283.9z"/>
			<path class="st3" d="M368.4,284c0,0-1.4,0.1-1.5,0.1c-0.1,0,0-0.2,0.1-1s0.5-0.8,0.5-0.8h0.6C368.1,282.2,368.4,283.9,368.4,284z
				"/>
		</g>
	</g>
	<g>
		<path class="st9" d="M377.5,251.2c-0.8,0-1.4-0.6-1.4-1.4s0.6-1.4,1.4-1.4s1.4,0.6,1.4,1.4l0,0
			C378.9,250.6,378.3,251.2,377.5,251.2z M377.5,248.5c-0.7,0-1.3,0.6-1.3,1.3s0.6,1.3,1.3,1.3s1.3-0.6,1.3-1.3
			C378.8,249.1,378.2,248.5,377.5,248.5z"/>
		<circle class="st9" cx="378.1" cy="249.4" r="0.3"/>
		<circle class="st9" cx="377" cy="249.4" r="0.3"/>
		<path class="st9" d="M377.1,250.1c-0.1,0.9,0.9,1.1,0.8,0C377.9,250.1,377.1,250.1,377.1,250.1z"/>
	</g>
	<g>
		<path class="st9" d="M381.9,249.2c-0.1-0.1-0.2-0.1-0.3,0s-0.1,0.2,0,0.3c0,0,0,0,0,0l0.3,0.3l0.3-0.3c0.1-0.1,0.1-0.2,0-0.3
			C382.1,249.2,382,249.2,381.9,249.2C381.9,249.2,381.9,249.2,381.9,249.2z"/>
		<path class="st9" d="M380.9,249.2c-0.1-0.1-0.2-0.1-0.3,0s-0.1,0.2,0,0.3c0,0,0,0,0,0l0.3,0.3l0.3-0.3c0.1-0.1,0.1-0.2,0-0.3
			C381,249.2,380.9,249.2,380.9,249.2C380.9,249.2,380.9,249.2,380.9,249.2z"/>
		<path class="st9" d="M381.4,251.2c-0.8,0-1.4-0.6-1.4-1.4s0.6-1.4,1.4-1.4c0.8,0,1.4,0.6,1.4,1.4l0,0
			C382.8,250.6,382.2,251.2,381.4,251.2z M381.4,248.5c-0.7,0-1.3,0.6-1.3,1.3s0.6,1.3,1.3,1.3c0.7,0,1.3-0.6,1.3-1.3
			C382.7,249.1,382.1,248.5,381.4,248.5z"/>
		<path class="st9" d="M380.9,250.3c0.3,0.4,0.8,0.4,1.1,0H380.9z"/>
	</g>
	<path class="st9" d="M389,251.2l-1.2-1.2c-0.3-0.3-0.3-0.9,0-1.2c0.3-0.3,0.8-0.3,1.2,0c0.4-0.3,0.9-0.3,1.2,0.1
		c0.3,0.3,0.3,0.8,0,1.2L389,251.2z M388.4,248.7c-0.4,0-0.7,0.3-0.7,0.7c0,0.2,0.1,0.4,0.2,0.5l1.1,1.1l1.1-1.1
		c0.3-0.3,0.3-0.7,0-1c-0.3-0.3-0.7-0.3-1,0l0,0l0,0C388.8,248.8,388.6,248.7,388.4,248.7L388.4,248.7z"/>
	<g>
		<path class="st9" d="M385.2,251.2c-0.8,0-1.4-0.6-1.4-1.4s0.6-1.4,1.4-1.4s1.4,0.6,1.4,1.4l0,0
			C386.6,250.5,385.9,251.2,385.2,251.2z M385.2,248.5c-0.7,0-1.3,0.6-1.3,1.3s0.6,1.3,1.3,1.3c0.7,0,1.3-0.6,1.3-1.3
			C386.4,249.1,385.9,248.5,385.2,248.5z"/>
		<path class="st9" d="M384.7,250.2c0.3,0.4,0.8,0.4,1.1,0H384.7z"/>
		<polygon class="st9" points="384.8,249.8 384.6,249.7 384.4,249.8 384.5,249.6 384.3,249.5 384.5,249.4 384.6,249.2 384.7,249.4 
			385,249.4 384.8,249.6 		"/>
		<polygon class="st9" points="385.9,249.8 385.6,249.7 385.5,249.8 385.5,249.6 385.3,249.5 385.5,249.4 385.6,249.2 385.7,249.4 
			386,249.4 385.8,249.6 		"/>
	</g>
	<g>
		<g>
			<path class="st9" d="M377.5,269.3c-0.8,0-1.4-0.6-1.4-1.4s0.6-1.4,1.4-1.4s1.4,0.6,1.4,1.4l0,0
				C378.9,268.7,378.2,269.3,377.5,269.3z M377.5,266.6c-0.7,0-1.3,0.6-1.3,1.3c0,0.7,0.6,1.3,1.3,1.3c0.7,0,1.3-0.6,1.3-1.3
				C378.7,267.2,378.2,266.6,377.5,266.6z"/>
			<circle class="st9" cx="378" cy="267.4" r="0.3"/>
			<circle class="st9" cx="377" cy="267.4" r="0.3"/>
			<path class="st9" d="M377.1,268.1c-0.1,0.9,0.9,1.1,0.8,0C377.9,268.1,377.1,268.1,377.1,268.1z"/>
		</g>
		<g>
			<path class="st9" d="M381.9,267.3c-0.1-0.1-0.2-0.1-0.3,0c-0.1,0.1-0.1,0.2,0,0.3c0,0,0,0,0,0l0.3,0.3l0.3-0.3
				c0.1-0.1,0.1-0.2,0-0.3C382.1,267.2,382,267.2,381.9,267.3C381.9,267.3,381.9,267.3,381.9,267.3z"/>
			<path class="st9" d="M380.8,267.3c-0.1-0.1-0.2-0.1-0.3,0c-0.1,0.1-0.1,0.2,0,0.3c0,0,0,0,0,0l0.3,0.3l0.3-0.3
				c0.1-0.1,0.1-0.2,0-0.3C381,267.2,380.9,267.2,380.8,267.3C380.8,267.3,380.8,267.3,380.8,267.3z"/>
			<path class="st9" d="M381.4,269.3c-0.8,0-1.4-0.6-1.4-1.4c0-0.8,0.6-1.4,1.4-1.4s1.4,0.6,1.4,1.4l0,0
				C382.8,268.6,382.2,269.3,381.4,269.3z M381.4,266.6c-0.7,0-1.3,0.6-1.3,1.3c0,0.7,0.6,1.3,1.3,1.3c0.7,0,1.3-0.6,1.3-1.3
				C382.7,267.2,382.1,266.6,381.4,266.6z"/>
			<path class="st9" d="M380.9,268.3c0.3,0.4,0.8,0.4,1.1,0H380.9z"/>
		</g>
		<path class="st9" d="M388.9,269.3l-1.2-1.2c-0.3-0.3-0.3-0.9,0-1.2c0.3-0.3,0.8-0.3,1.2,0c0.4-0.3,0.9-0.3,1.2,0.1
			c0.3,0.3,0.3,0.8,0,1.2L388.9,269.3z M388.4,266.8c-0.4,0-0.7,0.3-0.7,0.7c0,0.2,0.1,0.4,0.2,0.5l1.1,1.1l1.1-1.1
			c0.3-0.3,0.3-0.7,0-1c-0.3-0.3-0.7-0.3-1,0l0,0l0,0C388.7,266.9,388.6,266.8,388.4,266.8L388.4,266.8z"/>
		<g>
			<path class="st9" d="M385.1,269.2c-0.8,0-1.4-0.6-1.4-1.4c0-0.8,0.6-1.4,1.4-1.4c0.8,0,1.4,0.6,1.4,1.4l0,0
				C386.5,268.6,385.9,269.2,385.1,269.2z M385.1,266.6c-0.7,0-1.3,0.6-1.3,1.3c0,0.7,0.6,1.3,1.3,1.3c0.7,0,1.3-0.6,1.3-1.3
				C386.4,267.1,385.8,266.6,385.1,266.6z"/>
			<path class="st9" d="M384.7,268.3c0.3,0.4,0.8,0.4,1.1,0H384.7z"/>
			<polygon class="st9" points="384.8,267.9 384.6,267.8 384.4,267.9 384.4,267.7 384.3,267.5 384.5,267.5 384.6,267.3 384.7,267.5 
				384.9,267.5 384.8,267.7 			"/>
			<polygon class="st9" points="385.8,267.9 385.6,267.8 385.4,267.9 385.4,267.7 385.3,267.5 385.5,267.5 385.6,267.3 385.7,267.5 
				385.9,267.5 385.8,267.7 			"/>
		</g>
	</g>
	<g>
		<g>
			<path class="st9" d="M377.5,288.1c-0.8,0-1.4-0.6-1.4-1.4c0-0.8,0.6-1.4,1.4-1.4s1.4,0.6,1.4,1.4l0,0
				C378.9,287.4,378.3,288.1,377.5,288.1z M377.5,285.4c-0.7,0-1.3,0.6-1.3,1.3c0,0.7,0.6,1.3,1.3,1.3s1.3-0.6,1.3-1.3
				C378.8,286,378.2,285.4,377.5,285.4z"/>
			<circle class="st9" cx="378.1" cy="286.2" r="0.3"/>
			<circle class="st9" cx="377" cy="286.2" r="0.3"/>
			<path class="st9" d="M377.1,286.9c-0.1,0.9,0.9,1.1,0.8,0C377.9,286.9,377.1,286.9,377.1,286.9z"/>
		</g>
		<g>
			<path class="st9" d="M381.9,286.1c-0.1-0.1-0.2-0.1-0.3,0c-0.1,0.1-0.1,0.2,0,0.3c0,0,0,0,0,0l0.3,0.3l0.3-0.3
				c0.1-0.1,0.1-0.2,0-0.3C382.1,286,382,286,381.9,286.1C381.9,286.1,381.9,286.1,381.9,286.1z"/>
			<path class="st9" d="M380.9,286.1c-0.1-0.1-0.2-0.1-0.3,0c-0.1,0.1-0.1,0.2,0,0.3c0,0,0,0,0,0l0.3,0.3l0.3-0.3
				c0.1-0.1,0.1-0.2,0-0.3C381,286,380.9,286,380.9,286.1C380.9,286.1,380.9,286.1,380.9,286.1z"/>
			<path class="st9" d="M381.4,288.1c-0.8,0-1.4-0.6-1.4-1.4s0.6-1.4,1.4-1.4c0.8,0,1.4,0.6,1.4,1.4l0,0
				C382.8,287.4,382.2,288.1,381.4,288.1z M381.4,285.4c-0.7,0-1.3,0.6-1.3,1.3s0.6,1.3,1.3,1.3c0.7,0,1.3-0.6,1.3-1.3
				C382.7,286,382.1,285.4,381.4,285.4z"/>
			<path class="st9" d="M380.9,287.1c0.3,0.4,0.8,0.4,1.1,0H380.9z"/>
		</g>
		<path class="st9" d="M389,288.1l-1.2-1.2c-0.3-0.3-0.3-0.9,0-1.2c0.3-0.3,0.8-0.3,1.2,0c0.4-0.3,0.9-0.3,1.2,0.1
			c0.3,0.3,0.3,0.8,0,1.2L389,288.1z M388.4,285.6c-0.4,0-0.7,0.3-0.7,0.7c0,0.2,0.1,0.4,0.2,0.5l1.1,1.1l1.1-1.1
			c0.3-0.3,0.3-0.7,0-1c-0.3-0.3-0.7-0.3-1,0l0,0l0,0C388.8,285.7,388.6,285.6,388.4,285.6L388.4,285.6z"/>
		<g>
			<path class="st9" d="M385.2,288c-0.8,0-1.4-0.6-1.4-1.4s0.6-1.4,1.4-1.4s1.4,0.6,1.4,1.4l0,0C386.6,287.4,385.9,288,385.2,288z
				 M385.2,285.3c-0.7,0-1.3,0.6-1.3,1.3s0.6,1.3,1.3,1.3c0.7,0,1.3-0.6,1.3-1.3C386.4,285.9,385.9,285.3,385.2,285.3z"/>
			<path class="st9" d="M384.7,287.1c0.3,0.4,0.8,0.4,1.1,0H384.7z"/>
			<polygon class="st9" points="384.8,286.7 384.6,286.6 384.4,286.7 384.5,286.5 384.3,286.3 384.5,286.3 384.6,286.1 384.7,286.3 
				385,286.3 384.8,286.4 			"/>
			<polygon class="st9" points="385.9,286.7 385.6,286.6 385.5,286.7 385.5,286.5 385.3,286.3 385.5,286.3 385.6,286.1 385.7,286.3 
				386,286.3 385.8,286.4 			"/>
		</g>
	</g>
</g>
<path class="st4" d="M203.9,252.7c-10.8,4.4-15,18.2-12.5,29.5S201.6,303,209,312l20.7,25.3c5.7,7,12,14.4,20.7,16.8
	c12.8,3.6,25.6-4.6,36.6-11.9c33-22,68.2-40.3,105.2-54.8c3.6-1.4,7.3-2.8,10.3-5.3c6.2-5.2,7.9-14.7,4.5-22
	c-3.4-7.3-11.4-12-19.5-12.1s-15.9,4.2-20.7,10.6c-2.3,3.1-4,6.6-6.2,9.7c-5.6,7.8-14.4,12.7-23,17.1c-20.8,10.6-42.1,19.9-64,28
	c-4,1.5-8.5,2.9-12.3,0.9c-2.3-1.2-3.9-3.4-5.3-5.6c-6.4-10-11.5-20.9-15.1-32.2c-2.7-8.5-4.9-17.8-11.5-23.8
	c-9.3-8.6-26.1-6.5-33.1,4c0,0-8.2,12-3.2,17S203.9,252.7,203.9,252.7z"/>
</svg>
